<svg width="1519" height="602" viewBox="0 0 1519 602" fill="none" xmlns="http://www.w3.org/2000/svg">
<path fill-rule="evenodd" clip-rule="evenodd" d="M483.11 0.581908C473.437 2.99891 465.36 8.57791 451.387 22.4919C436.384 37.4309 433.902 41.4689 436.905 46.0519C438.858 49.0329 442.793 50.1649 446.047 48.6819C447.376 48.0769 453.756 42.7029 460.223 36.7419C466.69 30.7799 477.532 21.4309 484.314 15.9659C503.095 0.834911 501.95 1.92391 499.904 1.13791C496.72 -0.0830921 487.052 -0.404092 483.11 0.581908ZM545.482 27.4769C543.557 28.9579 539.732 31.8509 536.982 33.9049C534.232 35.9599 525.12 44.4299 516.732 52.7279C504.081 65.2429 501.482 68.3049 501.482 70.6969C501.482 74.7039 504.977 75.9719 510.576 73.9969C519.7 70.7779 539.126 53.9329 544.718 44.3899C547.834 39.0739 549.766 32.1009 549.308 27.8269L548.982 24.7849L545.482 27.4769ZM477.747 48.0719C467.268 50.8939 456.393 57.9589 444.389 69.7449C433.169 80.7609 417.3 101.617 414.466 109.072C413.12 112.611 414.794 115.53 418.169 115.53C421.014 115.53 422.867 113.776 441.982 92.9909C448.032 86.4119 457.032 77.3289 461.982 72.8049C472.297 63.3769 489.543 49.9859 492.786 48.8849C494.84 48.1879 494.788 48.0959 491.982 47.4529C487.283 46.3779 483.411 46.5459 477.747 48.0719ZM395.651 70.0949C380.851 74.0789 365.673 91.0759 351.949 119.03C344.101 135.015 343.164 141.164 347.794 146.28C350.248 148.991 354.847 149.239 357.048 146.78C357.909 145.818 363.318 137.054 369.068 127.306C374.818 117.558 381.83 106.533 384.651 102.806C393.157 91.5659 409.818 73.4839 412.225 72.8799C416.076 71.9129 414.727 70.7909 408.825 70.0539C405.714 69.6649 402.677 69.1919 402.075 69.0039C401.474 68.8149 398.583 69.3059 395.651 70.0949ZM588.409 73.5009C586.125 78.2249 555.322 108.77 544.396 117.145C538.902 121.356 533.974 125.611 533.444 126.6C530.295 132.485 534.472 137.266 541.748 136.104C548.135 135.084 559.176 129.332 566.69 123.11C579.309 112.661 585.407 101.903 587.451 86.4869C588.068 81.8359 589.047 76.5369 589.627 74.7129C590.988 70.4319 590.248 69.6959 588.409 73.5009ZM540.982 79.9079C539.332 80.6229 536.021 81.5179 533.625 81.8979C525.542 83.1779 513.874 88.5059 501.895 96.3869C482.751 108.98 477.756 114.404 481.682 118.33C483.498 120.146 486.031 119.792 491.663 116.938C498.664 113.391 519.044 100.898 524.199 96.9939C528.067 94.0639 545.083 78.4789 544.315 78.5689C544.132 78.5909 542.632 79.1929 540.982 79.9079ZM628.671 113.979C627.432 116.7 624.691 121.2 622.579 123.979C620.468 126.757 613.226 136.68 606.486 146.03C594.151 163.142 589.212 169.414 580.108 179.53C572.03 188.506 570.139 192.866 572.103 197.985C572.895 200.048 577.655 202.53 580.818 202.53C588.541 202.53 609.701 181.597 621.27 162.513C628.561 150.486 630.736 142.856 631.244 127.53C631.49 120.105 631.518 112.905 631.307 111.53C630.968 109.322 630.66 109.608 628.671 113.979ZM508.504 131.298C503.841 134.413 494.166 142.62 487.004 149.534C473.236 162.827 466.957 167.948 453.982 176.464C443.134 183.584 441.482 185.248 441.482 189.049C441.482 193.948 444.483 196.024 451.317 195.851C472.477 195.316 506.265 169.571 514.558 147.663C516.378 142.856 518.601 125.42 517.373 125.581C517.158 125.61 513.167 128.182 508.504 131.298ZM434.706 133.608C424.381 135.395 408.069 142.516 391.982 152.259C381.706 158.483 377.482 162.112 377.482 164.717C377.482 167.835 381.779 166.872 400.316 159.599C410.032 155.787 422.279 151.114 427.53 149.215C436.632 145.924 443.786 142.494 453.291 136.866C455.661 135.463 457.461 134.193 457.291 134.043C456.301 133.171 439.139 132.841 434.706 133.608ZM949.747 143.026C933.524 147.535 914.153 162.945 907.043 176.997C904.638 181.751 904.374 182.999 905.332 185.101C907.534 189.932 912.503 189.149 915.876 183.44C919.548 177.225 929.195 168.169 938.882 161.845C957.859 149.457 959.69 148.142 961.221 145.806C962.063 144.52 962.523 143.237 962.241 142.956C960.953 141.668 954.503 141.705 949.747 143.026ZM558.982 150.621C551.144 151.728 541.124 155.67 533.279 160.734C519.608 169.555 488.163 197.61 482.036 206.452C479.015 210.811 478.395 215.227 480.607 216.628C485.098 219.473 491.6 215.889 511.482 199.613C518.357 193.984 529.382 185.062 535.982 179.786C542.582 174.509 552.032 166.289 556.982 161.519C561.932 156.749 567.095 152.1 568.455 151.188L570.927 149.53L567.955 149.652C566.32 149.719 562.282 150.155 558.982 150.621ZM981.353 153.654C972.117 155.002 959.967 162.189 950.864 171.689C941.259 181.712 938.635 187.621 941.84 192.006C943.847 194.749 948.949 194.404 952.253 191.3C954.462 189.225 955.311 188.952 956.709 189.864C958.158 190.809 959.211 190.189 963.257 186.01C974.596 174.297 995.983 155.53 997.993 155.53C998.812 155.53 999.482 155.028 999.482 154.413C999.482 153.799 998.681 153.506 997.702 153.762C996.723 154.018 993.685 153.947 990.952 153.603C988.218 153.26 983.899 153.283 981.353 153.654ZM1029.76 158.78C1028.57 163.242 1008.43 194.391 995.009 212.53C990.737 218.305 982.807 227.355 977.385 232.64C968.42 241.382 964.653 244.54 953.232 252.89C946.943 257.488 948.748 262.549 956.666 262.517C961.947 262.495 975.721 257.21 984.191 251.954C998.798 242.89 1013.74 225.135 1022.07 206.948C1027.59 194.893 1030.43 182.317 1031.02 167.334C1031.3 160.292 1031.38 154.53 1031.21 154.53C1031.04 154.53 1030.38 156.443 1029.76 158.78ZM424.482 165.488C406.9 171.891 395.845 179.747 379.969 197.121C365.005 213.496 361.561 220.242 366.919 222.683C368.962 223.614 370.073 223.374 373.783 221.199C378.344 218.527 408.844 191.378 418.316 181.559C423.89 175.782 434.06 162.447 432.743 162.643C432.325 162.706 428.607 163.986 424.482 165.488ZM673.982 184.356C663.648 192.482 624.418 230.645 620.934 235.963C619.655 237.915 619.571 238.828 620.51 240.582C622.179 243.7 627.962 242.828 637.762 237.979C654.485 229.705 669.972 214.321 677.909 198.101C682.195 189.342 686.973 175.437 685.635 175.619C685.276 175.667 680.032 179.599 673.982 184.356ZM337.387 190.398C323.528 197.303 316.304 202.68 306.014 213.751C296.557 223.926 283.864 240.352 282.053 244.76C280.188 249.298 281.52 252.53 285.255 252.53C287.21 252.53 290.11 250.866 294.58 247.179C304.858 238.701 331.415 209.78 338.409 199.446C341.915 194.267 345.925 188.793 347.32 187.28C348.715 185.767 349.659 184.551 349.419 184.576C349.179 184.601 343.764 187.221 337.387 190.398ZM857.306 199.972C844.135 204.997 825.482 223.268 825.482 231.145C825.482 234.323 827.51 236.53 830.431 236.53C831.025 236.53 835.667 232.634 840.747 227.872C851.301 217.976 856.873 214.157 867.482 209.548C871.607 207.755 875.516 205.862 876.168 205.34C876.82 204.818 878.62 204.04 880.168 203.61L882.982 202.829L878.982 201.024C873.788 198.68 862.17 198.116 857.306 199.972ZM905.982 209.351C902.682 210.346 897.83 212.124 895.2 213.303C874.521 222.57 848.578 248.331 836.722 271.373C833.16 278.293 832.437 280.611 832.683 284.314C833.023 289.45 834.821 291.164 838.816 290.161C840.714 289.685 844.288 285.682 851.489 275.972C868.875 252.525 885.092 238.734 908.025 227.892C913.501 225.303 922.707 220.602 928.482 217.445C934.257 214.288 940.557 211.346 942.482 210.908C945.973 210.112 945.967 210.108 940.482 209.342C937.457 208.92 929.807 208.342 923.482 208.058C914.175 207.64 910.838 207.886 905.982 209.351ZM702.482 219.111C697.807 224.279 690.499 231.447 686.241 235.04C676.778 243.026 674.908 245.589 676.446 248.463C680.723 256.455 706.988 239.669 710.919 226.43C712.519 221.041 713.08 209.457 711.732 209.622C711.32 209.672 707.157 213.943 702.482 219.111ZM547.412 219.114C546.689 219.986 544.046 222.089 541.54 223.788C533.558 229.197 525.551 236.601 519.216 244.428C510.688 254.966 500.39 265.562 491.229 273.224C482.818 280.258 481.131 283.38 484.018 286.57C491.655 295.009 518.814 277.161 536.249 252.247C541.146 245.249 544.926 236.111 546.49 227.488C547.128 223.965 548.079 220.283 548.602 219.306C549.781 217.103 549.164 217.003 547.412 219.114ZM1067.76 233.441C1060.71 235.246 1052.83 240.129 1045.18 247.442C1031.55 260.456 1025.79 270.443 1029.68 274.33C1032.26 276.906 1036.25 275.609 1043.16 269.95C1054.97 260.284 1061.8 255.406 1067.67 252.44C1073.56 249.463 1090.24 243.39 1098.98 241.043C1103.11 239.934 1103.46 239.685 1100.96 239.615C1099.3 239.568 1094.59 238.12 1090.49 236.397C1082.61 233.088 1073.68 231.926 1067.76 233.441ZM602.721 238.148C594.288 239.979 587.915 243.369 580.951 249.726C573.818 256.238 569.482 262.072 569.482 265.157C569.482 268.09 573.589 270.948 576.484 270.029C579.916 268.94 600.189 250.842 604.473 245.042C606.653 242.091 608.898 239.391 609.46 239.044C610.638 238.315 610.85 236.467 609.732 236.659C609.32 236.73 606.164 237.4 602.721 238.148ZM433.982 238.735C419.317 243.854 410.382 249.308 388.482 266.508C381.057 272.34 369.411 281.342 362.602 286.513C344.929 299.935 339.482 305.109 339.482 308.475C339.482 313.791 344.976 316.136 353.63 314.514C364.224 312.529 379.835 303.79 401.482 287.726C422.297 272.281 433.396 258.879 437.806 243.867C439.745 237.265 439.425 236.835 433.982 238.735ZM719.482 248.418C710.362 257.75 688.56 276.995 678.982 284.169C666.39 293.6 657.248 302.857 657.66 305.76C657.95 307.803 658.494 308.017 663.112 307.901C673.565 307.639 691.913 299.666 703.32 290.429C710.924 284.271 717.604 275.494 720.427 267.947C722.127 263.403 725.917 243.514 725.189 242.951C725.075 242.863 722.507 245.323 719.482 248.418ZM1144.48 249.24C1137.53 256.812 1131.46 264.274 1126.75 271.03C1116.53 285.696 1111.2 291.651 1103.99 296.433C1100.15 298.985 1096.84 301.887 1096.65 302.881C1095.03 311.309 1104.88 314.172 1116.13 308.546C1132.4 300.417 1147.36 279.528 1149.15 262.454C1149.72 256.943 1148.1 247.476 1146.6 247.568C1146.26 247.589 1145.31 248.341 1144.48 249.24ZM351.482 252.576C336.705 253.725 326.791 256.299 315.911 261.812C304.892 267.397 287.539 282.035 278.192 293.633C272.671 300.483 273.319 306.53 279.575 306.53C281.507 306.53 286.042 303.482 295.625 295.742C311.163 283.193 314.654 280.678 331.482 269.91C349.281 258.521 355.122 255.356 361.96 253.398C368.86 251.421 367.607 251.323 351.482 252.576ZM477.128 259.818C468.549 265.726 459.467 275.248 452.554 285.584C444.662 297.383 428.482 329.672 428.482 333.623C428.482 336.894 432.295 341.53 434.986 341.53C438.434 341.53 442.465 338.311 445.919 332.801C451.145 324.463 468.481 289.894 473.886 277.03C476.428 270.98 479.622 263.812 480.982 261.1C482.343 258.389 483.35 256.085 483.219 255.979C483.089 255.873 480.348 257.601 477.128 259.818ZM984.372 270.025C977.437 276.285 967.459 286.301 962.199 292.283C956.939 298.265 948.698 306.505 943.884 310.594C939.071 314.684 932.065 320.635 928.317 323.819C920.556 330.41 919.095 333.587 922.335 336.827C924.345 338.838 924.803 338.882 931.559 337.723C945.537 335.327 960.558 326.498 973.07 313.327C986.91 298.757 992.728 287.186 995.419 268.878C995.997 264.944 996.746 261.006 997.083 260.128C997.42 259.249 997.535 258.555 997.339 258.586C997.143 258.617 991.308 263.764 984.372 270.025ZM784.982 263.95C771.104 267.89 761.648 273.007 751.813 281.897C741.822 290.928 736.893 302.184 739.486 310.042C740.975 314.553 742.959 314.465 745.377 309.78C749.248 302.279 759.831 291.363 776.336 277.843C785.611 270.246 794.051 263.494 795.091 262.839C796.924 261.684 796.921 261.648 794.982 261.663C793.882 261.672 789.382 262.701 784.982 263.95ZM1073.55 266.016C1051.58 271.009 1025.52 291.766 1014.87 312.747C1012.09 318.23 1011.87 320.78 1014.03 322.57C1016.2 324.37 1020.15 322.329 1029.3 314.685C1050.68 296.816 1061.3 290.196 1089.14 277.386C1099.13 272.79 1107.1 268.821 1106.84 268.565C1105.6 267.309 1096.07 265.483 1088.48 265.045C1082.94 264.725 1077.75 265.063 1073.55 266.016ZM630.076 268.59C619.071 270.427 603.188 280.913 585.595 297.958C573.345 309.825 569.482 314.793 569.482 318.68C569.482 322.642 572.674 325.53 577.052 325.53C581.151 325.53 583.495 324.045 603.982 308.471C611.682 302.617 622.032 294.963 626.982 291.46C631.932 287.958 638.783 282.491 642.207 279.311C645.63 276.132 649.208 273.53 650.157 273.53C654.401 273.53 644.788 269.211 638.482 268.285C636.557 268.002 632.774 268.139 630.076 268.59ZM932.323 268.022C932.053 268.293 927.635 268.748 922.506 269.034C905.82 269.964 896.088 273.645 881.744 284.453C870.823 292.683 858.982 305.461 850.379 318.301C842.833 329.566 835.482 343.624 835.482 346.793C835.482 353.499 841.83 354.65 846.817 348.848C866.889 325.497 883.336 308.833 898.982 295.993C905.582 290.576 914.357 283.032 918.482 279.228C922.607 275.424 927.894 271.476 930.232 270.456C932.57 269.436 934.482 268.36 934.482 268.066C934.482 267.394 932.982 267.364 932.323 268.022ZM239.616 286.841C235.564 290.154 229.819 295.812 226.847 299.414C218.422 309.629 190.482 352.853 190.482 355.673C190.482 358.95 192.24 360.53 195.889 360.53C198.265 360.53 200.166 359.219 204.949 354.28C215.736 343.143 237.245 311.049 241.571 299.636C243.638 294.182 247.527 281.18 247.163 280.938C247.063 280.871 243.667 283.528 239.616 286.841ZM783.482 296.381C783.482 297.399 781.205 301.24 778.421 304.917C769.348 316.903 748.482 358.478 748.482 364.571C748.482 372.843 756.367 375.875 762.548 369.98C769.868 362.999 780.479 343.748 785 329.245C787.416 321.497 787.655 319.514 787.107 311.768C786.253 299.723 785.431 294.53 784.377 294.53C783.885 294.53 783.482 295.363 783.482 296.381ZM544.41 300.397C542.445 301.379 536.827 303.434 531.926 304.962C515.597 310.053 505.725 316.126 483.446 334.786C465.074 350.174 449.452 365.558 449.468 368.245C449.489 371.551 452.776 372.909 457.281 371.473C468.927 367.762 504.925 343.116 522.651 326.718C526.032 323.589 531.614 317.3 535.054 312.742C538.495 308.183 542.586 303.494 544.146 302.32C549.907 297.988 549.958 297.621 544.41 300.397ZM829.375 301.072C820.692 306.624 816.545 314.298 810.521 335.953C807.105 348.231 806.763 352.668 809.053 354.959C813.287 359.192 819.417 355.359 821.541 347.149C822.128 344.884 824.434 336.955 826.666 329.53C829.887 318.817 833.95 299.586 833.138 298.897C833.052 298.824 831.359 299.803 829.375 301.072ZM409.322 313.797C402.909 321.625 394.173 332.667 389.909 338.334C379.417 352.279 371.156 361.017 359.917 370.056C354.728 374.23 350.482 378.239 350.482 378.965C350.482 383.972 360.099 382.96 372.982 376.597C394.1 366.167 412.588 341.756 418.853 316.03C420.382 309.753 421.917 299.518 421.326 299.547C421.137 299.556 415.735 305.969 409.322 313.797ZM296.982 316.058C294.782 316.783 290.939 317.411 288.442 317.453C278.153 317.627 266.349 322.502 252.688 332.218C239.207 341.805 235.89 346.874 240.415 350.969C242.917 353.233 246.41 352.516 257.14 347.534C269.519 341.786 279.19 335.079 287.482 326.492C291.607 322.22 296.444 317.994 298.232 317.102C300.02 316.209 301.482 315.265 301.482 315.004C301.482 314.743 301.37 314.577 301.232 314.635C301.094 314.693 299.182 315.333 296.982 316.058ZM720.499 317.997C719.773 319.354 717.335 321.685 715.081 323.177C708.156 327.76 700.841 335.286 685.095 354.03C665.422 377.448 663.54 379.823 658.621 387.435C645.31 408.034 665.352 398.776 692.099 371.971C711.097 352.932 718.808 340.815 720.459 327.408C720.959 323.35 721.671 319.017 722.041 317.78C722.932 314.806 722.148 314.917 720.499 317.997ZM624.982 321.836C615.732 326.686 616.598 326.077 583.279 351.183C552.873 374.093 548.861 378.11 552.971 381.521C555.35 383.496 560.296 381.99 574.593 374.938C596.153 364.303 615.928 350.117 624.278 339.294C628.333 334.039 633.865 321.527 633.278 318.942C633.073 318.041 630.523 318.931 624.982 321.836ZM1144.98 322.939C1136.42 325.061 1131.31 328.425 1121.48 338.407C1103.45 356.725 1086.48 386.918 1086.48 400.688C1086.48 403.581 1087.05 404.854 1088.86 406.041C1091.91 408.04 1095.18 406.694 1098.13 402.225C1099.29 400.468 1104.53 392.505 1109.77 384.53C1119.29 370.058 1124.51 363.266 1138.27 347.421C1142.46 342.604 1146.84 336.261 1148.57 332.53C1150.23 328.955 1152.01 325.249 1152.53 324.294C1153.05 323.339 1153.48 322.326 1153.48 322.044C1153.48 321.258 1150.5 321.572 1144.98 322.939ZM1069.48 329.218C1058.35 338.727 1050.61 346.608 1040.68 358.53C1025.48 376.77 1009.02 394.911 1003.01 400.046C997.149 405.057 996.169 407.757 999.557 409.57C1003.69 411.781 1016.9 407.746 1026.15 401.447C1041.48 391.012 1061.39 366.833 1070 348.19C1072.65 342.471 1077.48 326.901 1077.48 324.113C1077.48 322.781 1075.64 323.955 1069.48 329.218ZM1192.48 330.569C1178.91 335.423 1157.1 354.397 1144.25 372.53C1130.94 391.307 1126.3 403.505 1132.14 404.338C1133.83 404.578 1136.66 401.892 1145.14 392.007C1158.28 376.683 1174.68 362.199 1195.83 347.239C1204.54 341.074 1212.53 335.538 1213.58 334.937C1215.39 333.897 1215.4 333.766 1213.73 332.256C1209.15 328.11 1201.14 327.474 1192.48 330.569ZM346.17 334.659C334.416 336.17 320.247 342.994 292.482 360.517C267.178 376.486 257.482 384.308 257.482 388.751C257.482 392.821 261.051 393.981 267.25 391.924C277.446 388.541 327.392 359.849 339.642 350.336C347.376 344.331 356.835 333.133 353.732 333.656C353.319 333.726 349.917 334.177 346.17 334.659ZM986.666 342.993C976.114 348.129 962.699 356.848 950.482 366.511C936.993 377.179 923.561 386.901 915.982 391.481C912.132 393.807 908.42 396.431 907.732 397.311C905.817 399.764 906.207 405.255 908.457 407.505C913.332 412.38 922.344 411.424 935.982 404.584C962.475 391.297 989.445 365.608 996.39 347.046C998.817 340.559 999 338.53 997.159 338.53C996.432 338.53 991.71 340.539 986.666 342.993ZM884.72 341.641C878.561 344.69 872.964 351.618 867.439 363.03C862.024 374.216 860.243 381.813 861.471 388.494C862.471 393.936 865.36 396.53 870.418 396.53C875.664 396.53 878.374 393.339 879.444 385.903C880.494 378.609 883.533 370.417 887.527 364.12C891.155 358.4 899.891 348.913 903.682 346.576L906.382 344.912L902.232 342.221C897.041 338.855 890.768 338.648 884.72 341.641ZM254.376 359.158C253.61 360.08 250.61 362.588 247.709 364.732C239.95 370.463 234.142 378.403 226.826 393.277C221.926 403.238 219.535 409.648 217.189 419.113C214.324 430.665 214.19 431.92 215.558 434.365C217.529 437.888 220.51 438.194 223.355 435.165C226.274 432.058 247.917 388.317 251.094 379.105C252.407 375.296 253.502 370.796 253.526 369.105C253.55 367.414 254.205 364.247 254.981 362.068C256.579 357.581 256.4 356.719 254.376 359.158ZM1257.48 366.83C1250.59 374.548 1244.91 382.022 1237.19 393.53C1233.32 399.305 1227.08 407.798 1223.32 412.403C1219.56 417.008 1216.48 421.61 1216.48 422.63C1216.48 425.39 1220.69 427.76 1224.13 426.933C1241.58 422.723 1260.93 397.057 1263.02 375.324C1263.36 371.862 1263.26 367.402 1262.81 365.411L1261.98 361.792L1257.48 366.83ZM1226.03 363.452C1225.72 363.959 1222.65 365.31 1219.21 366.455C1206.25 370.766 1192.55 384.574 1181.09 404.879C1176 413.887 1175.16 419.023 1178.31 421.875C1181.48 424.747 1185.73 423.94 1190.76 419.512C1195.74 415.131 1210.52 396.968 1217.74 386.372C1221.99 380.122 1226.48 370.201 1226.48 367.052C1226.48 366.28 1226.93 365.37 1227.48 365.03C1228.03 364.69 1228.48 363.989 1228.48 363.471C1228.48 362.262 1226.77 362.249 1226.03 363.452ZM1276.15 365.28C1275.85 366.793 1273.12 375.23 1270.1 384.03C1267.07 392.83 1262.03 408.546 1258.88 418.955C1253.61 436.433 1253.28 438.078 1254.61 440.455C1255.66 442.347 1257 443.11 1259.63 443.332C1262.63 443.585 1263.66 443.109 1265.91 440.433C1271.51 433.779 1277.68 418.197 1281.05 402.215C1283.25 391.73 1282.93 378.426 1280.26 369.78C1279.03 365.793 1277.73 362.53 1277.37 362.53C1277 362.53 1276.46 363.767 1276.15 365.28ZM638.965 378.445C630.06 382.713 625.328 385.703 620.693 389.995C611.393 398.605 597.014 421.106 595.068 430.096C594.569 432.401 594.928 433.827 596.516 435.846C599.139 439.181 603.147 439.368 607.001 436.336C609.93 434.032 631.377 401.964 637.986 390.007C642.461 381.913 645.56 377.925 649.822 374.78C654.468 371.351 652.102 372.15 638.965 378.445ZM813.316 379.097C791.269 383.086 771.094 396.259 750.177 420.325C738.849 433.359 730.482 445.782 730.482 449.569C730.482 453.045 733.57 456.53 736.649 456.53C738.134 456.53 744.36 450.914 756.399 438.715C766.07 428.917 779.607 416.451 786.482 411.012C793.357 405.573 804.411 396.828 811.045 391.577C817.68 386.326 824.43 381.043 826.045 379.836L828.982 377.641L824.982 377.675C822.782 377.694 817.533 378.334 813.316 379.097ZM400.982 382.228C384.557 384.406 365.162 396.317 347.972 414.784C335.699 427.968 332.894 434.591 338.941 436.109C342.202 436.928 346.036 434.697 359.385 424.212C365.763 419.203 377.282 410.844 384.982 405.638C403.191 393.325 416.482 383.526 416.482 382.415C416.482 381.55 406.956 381.435 400.982 382.228ZM201.183 387.162C200.835 387.51 197.953 387.735 194.778 387.662C182.09 387.369 171.82 390.829 157.848 400.104C148.589 406.25 135.092 418.45 132.933 422.625C128.61 430.985 134.949 438.534 142.798 434.372C143.999 433.735 148.488 430.55 152.772 427.296C157.057 424.041 166.282 417.806 173.272 413.439C182.693 407.555 187.827 403.537 193.11 397.915C197.03 393.744 201.53 389.478 203.11 388.437C205.64 386.768 205.734 386.542 203.899 386.537C202.753 386.533 201.531 386.815 201.183 387.162ZM506.799 390.888C488.05 397.112 465.333 414.354 449.959 434.03C442.292 443.843 439.082 449.839 439.082 454.349C439.082 458.526 442.292 461.53 446.756 461.53C449.346 461.53 452.169 459.216 465.395 446.248C482.46 429.517 486.456 426.257 506.482 412.721C522.286 402.038 534.146 391.794 532.554 390.202C531.973 389.621 527.557 389.002 522.74 388.825C515.596 388.563 512.659 388.943 506.799 390.888ZM333.482 395.482C308.727 401.126 294.865 408.993 275.39 428.449C264.002 439.826 252.367 454.373 245.14 466.27C239.738 475.162 240.394 480.53 246.88 480.53C249.475 480.53 253.318 477.051 275.43 454.683C300.267 429.56 325.171 405.845 332.674 400.172C334.705 398.637 338.53 396.535 341.174 395.502C347.277 393.118 343.889 393.109 333.482 395.482ZM1058.43 402.125C1056.53 404.103 1052.96 407.113 1050.48 408.814C1045.21 412.438 1029.55 424.911 1017.48 435.104C1007.26 443.731 996.544 450.987 986.732 455.914C980.845 458.871 979.482 459.994 979.482 461.888C979.482 465.18 982.241 467.285 988.244 468.572C1009.32 473.093 1040.13 448.056 1054.5 414.731C1056.56 409.945 1059.25 404.343 1060.47 402.28C1061.68 400.218 1062.5 398.53 1062.28 398.53C1062.06 398.53 1060.32 400.148 1058.43 402.125ZM983.236 402.614C974.991 404.558 967.131 409.616 957.934 418.898C942.469 434.506 925.655 462.395 924.69 474.04C924.294 478.813 924.494 479.492 926.731 480.958C931.07 483.801 933.49 481.783 946.071 464.831C952.521 456.14 962.152 443.63 967.473 437.03C972.795 430.43 978.501 423.005 980.153 420.53C983.012 416.249 990.482 402.802 990.482 401.938C990.482 401.334 987.476 401.614 983.236 402.614ZM837.85 405.308C820.786 411.409 802.771 428.19 791.099 448.855C786.268 457.408 785.294 462.137 788.139 463.229C790.466 464.122 792.379 462.742 809.665 447.708C818.089 440.381 829.632 431.259 835.316 427.438C848.897 418.306 852.837 415.069 856.099 410.361C859.571 405.351 858.64 404.391 849.804 403.873C844.887 403.585 841.549 403.985 837.85 405.308ZM682.745 407.044C673.231 409.111 665.117 414.005 654.693 423.965C642.52 435.597 640.161 440.12 644.311 443.875C646.864 446.186 651.681 445.937 655.097 443.319C659.932 439.615 677.845 423.916 680.113 421.397C684.1 416.968 691.4 405.53 690.189 405.609C689.525 405.653 686.175 406.299 682.745 407.044ZM427.82 413.006C426.697 413.792 422.9 415.523 419.38 416.852C407.771 421.236 400.793 425.876 373.982 447.039C353.277 463.382 345.988 468.287 338.982 470.591C332.767 472.634 332.143 475.397 337.482 477.235C346.464 480.328 362.734 474.19 384.852 459.363C406.658 444.745 418.522 433.638 424.506 422.24C426.299 418.824 428.449 415.24 429.285 414.274C431.283 411.962 430.401 411.198 427.82 413.006ZM564.982 412.464C552.601 415.475 536.956 427.188 520.382 445.855C505.493 462.624 502.915 467.802 507.847 471.034C511.969 473.734 515.512 471.3 538.482 449.986C543.707 445.138 556.516 434.841 566.946 427.104C585.007 413.706 585.768 413.007 582.946 412.402C578.91 411.537 568.649 411.572 564.982 412.464ZM1320.1 412.642C1304.86 416.219 1286.05 433.735 1275.06 454.59C1269.51 465.107 1268.83 469.77 1272.39 472.657C1277.33 476.66 1279.73 475.033 1290.98 460.062C1300.85 446.919 1305.48 442.515 1320.85 431.622C1326.97 427.286 1333.76 421.892 1335.93 419.634C1338.11 417.377 1340.58 415.496 1341.43 415.454C1342.29 415.412 1340.06 414.513 1336.48 413.457C1329.47 411.387 1326.15 411.222 1320.1 412.642ZM715.449 415.364C698.03 421.658 685.293 432.328 670.263 453.218C659.901 467.622 646.91 492.302 647.65 496.181C648.261 499.386 652.145 498.94 656.792 495.132C661.396 491.359 680.094 468.552 709.343 431.03C714.488 424.43 720.336 417.574 722.34 415.795C726.769 411.861 725.384 411.774 715.449 415.364ZM898.62 419.082C886.558 427.7 880.842 433.136 867.726 448.463C849.26 470.042 843.482 478.009 843.482 481.892C843.482 492.878 857.037 487.443 876.829 468.521C895.062 451.091 902.382 439.26 905.021 422.957C905.805 418.119 906.341 414.084 906.214 413.991C906.086 413.898 902.669 416.189 898.62 419.082ZM1131.48 416.441C1130.11 417.457 1125.74 419.45 1121.78 420.87C1107.34 426.046 1091.78 435.444 1073.37 450.094C1062.4 458.835 1060.04 461.631 1060.87 464.936C1062.58 471.75 1075.99 466.606 1100.21 449.844C1112.67 441.227 1120.12 434.132 1127.92 423.468C1131.51 418.552 1134.35 414.544 1134.22 414.562C1134.09 414.579 1132.86 415.425 1131.48 416.441ZM1228.6 435.602C1226.73 436.738 1221.52 439.002 1217.01 440.634C1199.09 447.117 1188.26 454.983 1162.21 480.44C1145.36 496.907 1136.67 506.623 1128.66 517.943C1124.91 523.254 1124.48 524.45 1124.48 529.693C1124.48 532.903 1124.76 535.53 1125.1 535.53C1125.44 535.53 1128.7 533.537 1132.35 531.102C1155.24 515.826 1207.96 466.829 1218.98 450.588C1221.73 446.537 1225.96 441.042 1228.37 438.376C1230.78 435.711 1232.58 433.532 1232.37 433.534C1232.16 433.536 1230.46 434.467 1228.6 435.602ZM111.322 447.78C105 453.968 99.0136 460.282 98.0186 461.812C97.0236 463.342 91.8836 467.802 86.5956 471.723C75.4246 480.005 74.4816 481.005 74.4816 484.566C74.4816 491.264 83.1246 492.528 93.5716 487.358C97.9106 485.211 102.593 481.577 108.065 476.108C119.176 465.003 121.729 459.381 123.879 441.28C124.19 438.668 124.078 436.53 123.63 436.53C123.182 436.53 117.644 441.593 111.322 447.78ZM300.482 458.293C293.057 465.658 281.92 475.482 275.732 480.123C266.919 486.733 264.482 489.075 264.482 490.938C264.482 494.087 266.63 494.762 272.304 493.397C286.758 489.92 302.049 478.062 308.628 465.227C310.432 461.707 314.972 445.558 314.285 445.102C314.119 444.992 307.907 450.927 300.482 458.293ZM1400.48 447.133C1393.28 449.06 1385.95 453.574 1377.5 461.289C1364.69 472.981 1360.47 481.492 1365.31 485.875C1369.61 489.77 1374.88 487.463 1387 476.382C1390.29 473.374 1396.81 467.919 1401.48 464.262C1406.16 460.604 1411.96 455.802 1414.38 453.592C1416.8 451.381 1419.72 449.259 1420.88 448.877C1422.44 448.361 1421.31 447.857 1416.48 446.918C1408.28 445.323 1407.19 445.338 1400.48 447.133ZM194.482 448.674C189.807 449.157 183.507 450.245 180.482 451.091C165.354 455.324 135.899 473.959 129.185 483.544C125.284 489.113 128.591 495.53 135.361 495.53C138.177 495.53 141.343 494.199 147.572 490.398C152.198 487.575 162.057 481.649 169.482 477.228C186.575 467.053 188.333 465.771 197.682 456.671C204.303 450.227 206.35 447.148 203.673 447.663C203.293 447.736 199.157 448.191 194.482 448.674ZM770.632 453.548C761.111 457.868 749.352 473.936 745.08 488.462C743.21 494.817 742.958 509.565 744.607 516.113C746.613 524.078 754.545 527.285 759.415 522.101C761.265 520.132 761.951 517.606 763.039 508.765C764.615 495.966 766.289 491.332 774.478 477.118C780.852 466.053 782.787 461.502 783.766 455.28L784.356 451.53L779.669 451.552C777.091 451.564 773.024 452.462 770.632 453.548ZM1336.85 455.369C1327.69 458.533 1320.21 463.817 1308.99 475.035C1296.68 487.344 1288.87 497.271 1280.92 510.724C1272.33 525.253 1270.83 532.043 1275.64 534.616C1279.5 536.682 1282.15 534.718 1292.08 522.405C1304.18 507.409 1314.2 496.583 1330.88 480.482C1346.62 465.295 1355.01 455.483 1353.23 454.353C1351.06 452.976 1342.18 453.527 1336.85 455.369ZM603.338 456.487C594.694 459.205 586.646 464.244 579.41 471.469C572.119 478.748 562.482 491.896 562.482 494.564C562.482 496.977 565.019 498.812 567.336 498.076C569.688 497.33 611.948 454.491 610.204 454.621C609.532 454.671 606.442 455.511 603.338 456.487ZM1145.98 460.457C1120.72 466.879 1092.43 485.641 1061.43 516.53C1046.42 531.485 1038.72 540.89 1033.5 550.67C1028.45 560.109 1029.94 567.53 1036.88 567.53C1041.13 567.53 1043.14 565.977 1048.87 558.228C1054.98 549.966 1068.54 534.375 1078.88 523.708C1087.28 515.05 1099.91 503.978 1118.48 489.011C1125.91 483.026 1136.2 474.615 1141.36 470.32C1146.52 466.025 1151.92 461.629 1153.36 460.552C1156.6 458.134 1155.19 458.116 1145.98 460.457ZM642.002 470.492C641.107 472.223 637.411 476.868 633.789 480.814C630.168 484.761 623.83 492.274 619.706 497.51C615.582 502.746 605.295 514.037 596.845 522.601C581.278 538.378 579.483 541.131 582.682 544.33C587.464 549.112 609.148 538.939 621.99 525.89C631.423 516.305 638.501 504.6 641.421 493.755C642.668 489.126 644.788 468.502 644.089 467.803C643.836 467.551 642.897 468.761 642.002 470.492ZM706.704 474.268C698.025 480.017 675.055 503.066 672.867 508.221C671.427 511.614 672.166 514.277 675.077 516.185C677.03 517.464 678.018 517.512 681.194 516.481C691.053 513.283 705.534 499.254 710.561 488.03C712.151 484.481 715.819 469.465 715.216 468.974C715.087 468.869 711.257 471.251 706.704 474.268ZM531.806 471.969C520.21 475.595 507.224 487.594 498.191 503.03C493.697 510.709 487.482 525.694 487.482 528.851C487.482 531.981 489.83 533.911 492.747 533.178C495.817 532.408 498.973 528.976 511.973 512.272C519.817 502.194 525.316 496.245 531.103 491.579C535.569 487.977 542.658 481.767 546.856 477.78L554.488 470.53L545.235 470.597C540.146 470.634 534.103 471.251 531.806 471.969ZM1034.98 471.929C1028.35 474.027 1024.33 476.531 1018.16 482.42C1011.26 488.998 1004.39 499.957 1004.26 504.596C1004.17 507.63 1006.37 510.53 1008.76 510.53C1010.04 510.53 1014.89 505.077 1020.32 497.561C1024.46 491.819 1035.05 482.197 1046.88 473.422L1050.78 470.53L1044.88 470.597C1041.64 470.634 1037.18 471.233 1034.98 471.929ZM1437.06 476.53C1436.07 478.455 1434.48 480.93 1433.53 482.03C1427.94 488.555 1410.74 519.592 1408.41 527.382C1407.32 531.026 1407.36 531.833 1408.7 533.176C1411.17 535.645 1414.02 533.994 1419.89 526.708C1427.2 517.62 1433.86 506.352 1436.53 498.53C1438.65 492.351 1440.19 479.233 1439.3 475C1438.95 473.355 1438.58 473.607 1437.06 476.53ZM429.337 476.501C423.217 478.351 413.771 484.383 406.801 490.893C390.306 506.297 370.482 534.974 370.482 543.43C370.482 549.974 377.078 551.58 382.913 546.456C384.839 544.765 389.885 538.578 394.128 532.706C398.37 526.834 404.919 518.364 408.681 513.884C416.457 504.624 440.261 481.243 444.597 478.606C446.18 477.644 447.176 476.558 446.812 476.193C445.901 475.282 432.593 475.517 429.337 476.501ZM474.165 483.658C471.703 489.365 460.555 507.359 439.083 540.282C428.806 556.041 416.331 569.609 403.791 578.665C395.536 584.628 393.832 586.908 394.966 590.479C397.472 598.375 415.103 590.136 432.073 573.138C449.13 556.053 464 530.888 470.315 508.419C473.465 497.213 477.667 478.382 477.137 477.852C476.958 477.672 475.621 480.285 474.165 483.658ZM1218.96 489.291C1199.69 509.822 1201.93 506.642 1170.31 558.399C1162.44 571.293 1157.71 576.756 1152.06 579.492C1149.64 580.664 1147.38 582.34 1147.05 583.217C1144.57 589.665 1156.37 594.049 1165.08 589.918C1169.84 587.658 1178.29 578.201 1183.87 568.903C1190.43 557.946 1211.16 516.549 1217.51 501.707C1220.4 494.93 1224.5 486.717 1226.61 483.457C1228.71 480.197 1230.34 477.535 1230.21 477.541C1230.08 477.547 1225.02 482.834 1218.96 489.291ZM1271.48 485.076C1270.11 485.836 1266.51 487.19 1263.48 488.085C1247.42 492.837 1232.82 507.737 1222.38 530.013C1215.36 544.986 1211.42 565.815 1214.52 571.596C1215.23 572.925 1216.61 573.53 1218.95 573.53C1223.34 573.53 1223.91 572.698 1235.77 548.962C1241.02 538.475 1248.76 524.603 1252.98 518.134C1257.19 511.666 1262.66 502.471 1265.12 497.702C1267.58 492.932 1270.74 487.994 1272.15 486.729C1275.23 483.961 1274.91 483.177 1271.48 485.076ZM181.089 492.171C172.897 493.928 163.413 498.529 154.482 505.081C136.294 518.424 111.137 547.926 107.452 560.235C106.356 563.894 106.414 564.777 107.896 567.038C111.743 572.911 115.483 571.614 124.486 561.285C136.122 547.936 156.263 527.932 166.368 519.688C171.531 515.476 180.797 507.898 186.96 502.848C193.122 497.797 199.698 492.997 201.573 492.179C204.935 490.714 204.865 490.693 196.482 490.693C191.807 490.693 184.88 491.358 181.089 492.171ZM369.482 497.572C347.037 509.065 331.904 521.872 316.358 542.527C307.259 554.616 297.482 572.946 297.482 577.914C297.482 584.44 304.077 586.723 308.654 581.78C310.055 580.267 314.471 574.08 318.469 568.03C326.519 555.846 333.193 547.269 344.534 534.53C348.697 529.855 357.121 520.046 363.255 512.732C369.389 505.418 376.337 497.838 378.695 495.889C387.508 488.601 386.721 488.745 369.482 497.572ZM787.883 495.219C786.887 497.865 784.568 502.404 782.73 505.306C778.166 512.509 771.277 526.378 767.468 536.03C761.447 551.286 755.453 561.637 748.771 568.319C745.233 571.858 742.482 575.486 742.482 576.615C742.482 579.237 746.82 583.53 749.469 583.53C759.532 583.53 773.306 567.823 781.403 547.113C787.118 532.496 788.446 525.922 788.492 512.03C788.513 505.43 788.986 498.058 789.541 495.648C790.929 489.63 790.071 489.408 787.883 495.219ZM881.975 495.424C868.154 499.156 855.281 505.568 842.847 514.915C827.446 526.492 808.482 551.073 808.482 559.457C808.482 563.027 812.097 565.987 815.091 564.869C816.131 564.481 821.932 559.152 827.982 553.027C847.11 533.662 863.336 523.152 891.219 512.067C899.889 508.62 910.07 504.323 913.845 502.518L920.708 499.236L914.845 496.701C906.846 493.244 892.165 492.673 881.975 495.424ZM1449.94 496.705C1448.83 500.234 1424.83 536.235 1419.2 542.792C1416.49 545.961 1410.04 551.732 1404.87 555.615C1392.67 564.785 1391.26 567.437 1395.64 573.006C1397.6 575.496 1398.28 575.712 1402.95 575.324C1413.95 574.412 1429.63 564.321 1438.78 552.268C1451.32 535.758 1455.89 520.062 1452.98 503.52C1452.18 498.966 1451.33 495.046 1451.09 494.809C1450.86 494.573 1450.34 495.426 1449.94 496.705ZM1391.48 503.19C1383.33 503.752 1376.08 505.696 1369.04 509.208C1359.94 513.744 1355.6 517.278 1349.88 524.822C1343.97 532.607 1328.36 564.445 1327.74 569.958C1327.11 575.619 1330.17 579.53 1335.24 579.53C1340.86 579.53 1346.4 572.891 1356.48 554.035C1368.66 531.263 1375.1 521.919 1384.48 513.408C1388.88 509.416 1393.83 505.583 1395.48 504.888C1398.53 503.607 1399.51 502.387 1397.23 502.705C1396.54 502.801 1393.96 503.019 1391.48 503.19ZM67.4926 512.797C65.5736 514.025 59.6816 516.867 54.3996 519.112C36.8306 526.579 21.0266 539.917 9.87761 556.686C2.03461 568.484 0.0235914 574.393 0.000591383 585.703C-0.0154086 593.983 0.283608 595.784 2.08061 598.203C4.55961 601.543 8.62062 602.324 11.9966 600.112C14.6456 598.376 16.4556 593.12 16.4996 587.03C16.5726 577.029 24.6426 564.446 43.4326 545.03C50.8846 537.33 58.7636 528.33 60.9406 525.03C63.1186 521.73 66.6996 517.117 68.8986 514.78C73.3156 510.086 72.8196 509.387 67.4926 512.797ZM569.982 513.455C547.778 519.776 530.835 535.536 518.967 560.907C511.395 577.096 510.736 584.84 516.75 586.955C522.428 588.952 524.438 587.093 531.482 573.324C539.24 558.159 544.915 549.889 558.104 534.523C574.34 515.609 577.678 511.525 576.809 511.639C576.354 511.698 573.282 512.516 569.982 513.455ZM105.668 519.675C93.1046 527.91 85.0196 536.155 70.9976 555.03C64.4606 563.83 55.8206 574.489 51.7966 578.717C47.7736 582.944 44.4816 587.07 44.4816 587.885C44.4816 590.736 45.7476 592.616 48.6936 594.14C54.3116 597.045 62.6296 593.812 72.5146 584.881C80.9316 577.277 98.5186 552.695 105.397 538.922C109.173 531.358 115.774 514.489 115.187 513.902C115.032 513.747 110.749 516.345 105.668 519.675ZM940.982 515.078C932.662 517.357 922.428 523.171 913.924 530.449C900.763 541.715 885.491 562.567 885.485 569.28C885.481 573.389 888.777 576.954 891.824 576.136C893.011 575.818 894.249 575.551 894.576 575.544C894.902 575.536 898.89 571.028 903.436 565.525C912.697 554.318 922.934 544.421 934.786 535.219C939.169 531.815 946.24 526.105 950.497 522.53C954.755 518.955 959.08 515.494 960.11 514.839C962.846 513.098 947.511 513.29 940.982 515.078ZM1041.29 518.06C1027.56 521.668 1016.24 531.708 1005.25 550.03C998.007 562.108 992.288 580.636 993.864 586.916C994.234 588.391 995.65 590.105 997.01 590.725C1001.73 592.878 1003.81 590.712 1011.43 575.698C1015.33 568.009 1023.01 555.334 1028.57 547.4C1037.24 535.039 1047.28 517.855 1046.29 517.076C1046.12 516.94 1043.87 517.383 1041.29 518.06ZM1483.65 521.887C1482.96 524.559 1480.9 529.734 1479.07 533.387C1477.24 537.041 1473.79 544.53 1471.39 550.03C1468.99 555.53 1465.33 563.054 1463.26 566.749C1458.96 574.393 1458.5 577.933 1461.57 579.58C1469.4 583.769 1481.05 568.782 1485.54 548.752C1486.73 543.462 1486.79 527.147 1485.65 521.03L1484.9 517.03L1483.65 521.887ZM212.056 525.28C207.946 534.945 197.447 550.454 191.159 556.15C185.623 561.165 181.362 563.867 166.273 571.934C154.91 578.009 151.482 580.924 151.482 584.512C151.482 589.822 155.984 589.834 170.017 584.563C189.592 577.21 201.059 569.409 208.359 558.477C214.28 549.61 216.482 541.598 216.482 528.925C216.482 523.208 216.132 518.53 215.705 518.53C215.277 518.53 213.635 521.568 212.056 525.28ZM718.482 520.945C698.578 526.584 677.517 546.631 665.134 571.724C659.34 583.467 658.507 588.021 661.466 591.783C663.772 594.714 667.933 595.429 671.519 593.51C672.568 592.949 677.227 586.762 681.875 579.76C695.146 559.766 699.626 555.118 728.839 531.038C734.541 526.337 738.417 522.424 738.248 521.538C737.867 519.543 724.812 519.152 718.482 520.945ZM1101.55 523.823C1101.48 526.718 1090.12 556.31 1085.76 564.953C1084.39 567.661 1079.94 573.37 1075.88 577.64C1070.53 583.256 1068.48 586.131 1068.48 588.032C1068.48 598.68 1079.84 597.262 1092.07 585.09C1101.77 575.427 1106.41 563.694 1106.72 548.03C1106.86 540.782 1104.83 528.903 1102.43 523.03C1101.72 521.289 1101.61 521.392 1101.55 523.823ZM294.275 526.499C282.087 527.743 266.828 537.119 252.379 552.242C241.335 563.802 236.739 574.644 241.053 578.959C244.797 582.702 249.615 580.146 253.566 572.321C256.578 566.354 271.222 552.217 281.982 544.888C286.932 541.516 293.727 536.344 297.081 533.394C300.436 530.444 304.036 527.494 305.081 526.839C306.797 525.764 306.69 525.656 303.982 525.731C302.332 525.777 297.964 526.122 294.275 526.499ZM1327.98 530.585C1326.88 531.028 1324.84 531.421 1323.45 531.46C1322.06 531.498 1317.59 533.13 1313.51 535.085C1301.07 541.048 1282.97 560.881 1278.79 573.126C1276.3 580.439 1278.78 588.53 1283.51 588.53C1285.85 588.53 1287.24 586.65 1288.85 581.3C1291.33 573.045 1300.11 562.255 1313.57 550.89C1318.47 546.76 1323.38 541.44 1326.16 537.268C1328.66 533.503 1330.54 530.278 1330.34 530.102C1330.14 529.925 1329.08 530.143 1327.98 530.585ZM645.342 541.189C641.844 543.752 634.009 550.615 627.93 556.439C621.852 562.264 614.764 568.861 612.18 571.099C606.62 575.914 606.017 579.233 610.117 582.457C611.566 583.597 613.479 584.526 614.367 584.52C622.35 584.472 643.847 565.385 649.483 553.341C652.659 546.555 654.596 536.53 652.731 536.53C652.165 536.53 648.84 538.627 645.342 541.189ZM1516.14 541.971C1515.71 543.589 1513.65 546.964 1511.59 549.471C1503.52 559.253 1491.48 580.274 1491.48 584.589C1491.48 587.413 1494.07 592.16 1496.03 592.909C1502.08 595.23 1507.15 592.101 1511.59 583.322C1517.51 571.597 1519.42 559.291 1517.61 544.53C1517 539.52 1516.87 539.292 1516.14 541.971ZM867.482 552.893C862.807 556.383 855.832 562.051 851.982 565.489C848.132 568.926 840.707 575.138 835.482 579.292C824.454 588.06 823.482 589.109 823.482 592.243C823.482 595.767 827.223 597.083 831.802 595.17C842.666 590.631 863.006 574.066 869.551 564.428C874.792 556.71 878.895 546.515 876.751 546.538C876.328 546.543 872.157 549.402 867.482 552.893ZM969.527 554.694C959.512 556.496 947.153 565.123 936.429 577.799C929.853 585.573 926.482 591.229 926.482 594.49C926.482 597.477 930.024 600.53 933.491 600.53C936.577 600.53 943.727 594.059 973.893 563.965L983.982 553.9L978.982 553.897C976.232 553.895 971.977 554.254 969.527 554.694ZM802.149 566.197C801.069 567.277 801.378 568.276 802.982 568.892C804.002 569.283 804.482 568.838 804.482 567.499C804.482 565.534 803.41 564.935 802.149 566.197ZM147.482 595.471C147.482 595.989 147.932 596.69 148.482 597.03C149.032 597.37 149.482 596.946 149.482 596.089C149.482 595.232 149.032 594.53 148.482 594.53C147.932 594.53 147.482 594.953 147.482 595.471Z" fill="black"/>
</svg>
