<svg width="353" height="203" viewBox="0 0 353 203" fill="none" xmlns="http://www.w3.org/2000/svg">
<path fill-rule="evenodd" clip-rule="evenodd" d="M112.324 0.135396C110.075 0.697776 108.197 1.99588 104.948 5.23334C101.46 8.7093 100.883 9.64885 101.581 10.7152C102.035 11.4088 102.95 11.6722 103.707 11.3271C104.016 11.1864 105.499 9.93597 107.003 8.54898C108.506 7.16177 111.027 4.98647 112.604 3.71489C116.971 0.194264 116.704 0.447648 116.229 0.264765C115.488 -0.0193336 113.241 -0.0940228 112.324 0.135396ZM126.826 6.39323C126.378 6.73783 125.489 7.41096 124.849 7.88888C124.21 8.36703 122.091 10.3378 120.141 12.2686C117.2 15.1805 116.596 15.893 116.596 16.4495C116.596 17.3819 117.408 17.6769 118.71 17.2174C120.831 16.4684 125.348 12.5489 126.648 10.3285C127.373 9.09158 127.822 7.46913 127.715 6.47467L127.639 5.76687L126.826 6.39323ZM111.077 11.1852C108.641 11.8418 106.112 13.4857 103.321 16.228C100.713 18.7912 97.0231 23.6439 96.3642 25.3785C96.0512 26.2019 96.4404 26.8811 97.2251 26.8811C97.8866 26.8811 98.3174 26.473 102.762 21.6368C104.168 20.106 106.261 17.9926 107.412 16.94C109.81 14.7463 113.82 11.6306 114.574 11.3744C115.051 11.2122 115.039 11.1908 114.387 11.0412C113.294 10.7911 112.394 10.8301 111.077 11.1852ZM91.9897 16.3094C88.5486 17.2364 85.0197 21.1912 81.8288 27.6955C80.0042 31.4148 79.7863 32.8455 80.8628 34.0359C81.4334 34.6667 82.5026 34.7244 83.0144 34.1523C83.2146 33.9284 84.4722 31.8892 85.809 29.6211C87.1459 27.353 88.7762 24.7877 89.4321 23.9205C91.4098 21.3052 95.2835 17.098 95.8432 16.9575C96.7385 16.7325 96.4249 16.4714 95.0526 16.2999C94.3293 16.2094 93.6232 16.0993 93.4833 16.0556C93.3435 16.0116 92.6714 16.1259 91.9897 16.3094ZM136.806 17.1019C136.275 18.2011 129.114 25.3082 126.573 27.2569C125.296 28.2367 124.15 29.2267 124.027 29.4568C123.295 30.8261 124.266 31.9386 125.958 31.6682C127.443 31.4309 130.01 30.0925 131.757 28.6448C134.691 26.2136 136.108 23.7104 136.584 20.1235C136.727 19.0413 136.955 17.8084 137.09 17.384C137.406 16.3879 137.234 16.2166 136.806 17.1019ZM125.779 18.5927C125.396 18.7591 124.626 18.9673 124.069 19.0557C122.19 19.3536 119.477 20.5933 116.692 22.427C112.241 25.3571 111.079 26.6191 111.992 27.5326C112.414 27.9551 113.003 27.8728 114.313 27.2087C115.94 26.3834 120.679 23.4766 121.877 22.5682C122.777 21.8865 126.733 18.2602 126.554 18.2811C126.512 18.2863 126.163 18.4263 125.779 18.5927ZM146.167 26.5202C145.879 27.1533 145.242 28.2004 144.751 28.847C144.26 29.4934 142.576 31.8022 141.009 33.9777C138.141 37.9593 136.993 39.4187 134.876 41.7724C132.998 43.8609 132.559 44.8754 133.015 46.0665C133.199 46.5465 134.306 47.124 135.041 47.124C136.837 47.124 141.757 42.2533 144.447 37.8129C146.142 35.0145 146.647 33.2392 146.766 29.6732C146.823 27.9456 146.829 26.2703 146.78 25.9504C146.701 25.4367 146.63 25.5032 146.167 26.5202ZM118.228 30.55C117.144 31.2747 114.895 33.1843 113.229 34.7931C110.028 37.886 108.568 39.0776 105.552 41.059C103.03 42.7157 102.645 43.1029 102.645 43.9873C102.645 45.1271 103.343 45.6102 104.932 45.5699C109.852 45.4454 117.708 39.4552 119.636 34.3577C120.059 33.2392 120.576 29.1823 120.29 29.2197C120.24 29.2265 119.312 29.8249 118.228 30.55ZM101.07 31.0874C98.6694 31.5032 94.8769 33.1601 91.1366 35.4271C88.7474 36.8753 87.7653 37.7197 87.7653 38.3258C87.7653 39.0513 88.7644 38.8272 93.0743 37.1349C95.3333 36.248 98.1807 35.1607 99.4016 34.7188C101.518 33.9531 103.181 33.155 105.391 31.8455C105.942 31.5191 106.361 31.2236 106.321 31.1887C106.091 30.9858 102.101 30.909 101.07 31.0874ZM220.818 33.2788C217.046 34.3279 212.543 37.9135 210.889 41.183C210.33 42.2892 210.269 42.5796 210.492 43.0687C211.004 44.1927 212.159 44.0105 212.943 42.6822C213.797 41.2361 216.04 39.129 218.292 37.6575C222.704 34.7751 223.13 34.4692 223.486 33.9256C223.682 33.6264 223.789 33.3279 223.723 33.2625C223.424 32.9628 221.924 32.9714 220.818 33.2788ZM129.964 35.046C128.142 35.3035 125.812 36.2207 123.988 37.399C120.81 39.4515 113.499 45.9792 112.074 48.0365C111.372 49.0508 111.228 50.0783 111.742 50.4043C112.786 51.0662 114.298 50.2323 118.921 46.4453C120.519 45.1355 123.082 43.0596 124.617 41.832C126.151 40.6041 128.349 38.6915 129.499 37.5817C130.65 36.4718 131.851 35.3901 132.167 35.1779L132.742 34.7921L132.051 34.8205C131.671 34.8361 130.732 34.9375 129.964 35.046ZM228.167 35.7517C226.019 36.0653 223.194 37.7376 221.078 39.948C218.845 42.2801 218.235 43.655 218.98 44.6753C219.446 45.3135 220.633 45.2332 221.401 44.511C221.914 44.0282 222.112 43.9647 222.437 44.1769C222.774 44.3968 223.019 44.2525 223.959 43.2802C226.596 40.5548 231.568 36.1882 232.036 36.1882C232.226 36.1882 232.382 36.0714 232.382 35.9283C232.382 35.7854 232.195 35.7172 231.968 35.7768C231.74 35.8364 231.034 35.8198 230.398 35.7398C229.763 35.66 228.759 35.6654 228.167 35.7517ZM239.421 36.9444C239.144 37.9826 234.461 45.2302 231.342 49.4507C230.348 50.7944 228.505 52.9002 227.244 54.1299C225.16 56.1639 224.284 56.8987 221.629 58.8416C220.166 59.9114 220.586 61.089 222.427 61.0815C223.655 61.0764 226.857 59.8467 228.827 58.6238C232.223 56.5148 235.697 52.3836 237.633 48.1519C238.916 45.347 239.577 42.4209 239.715 38.9347C239.779 37.2962 239.799 35.9555 239.759 35.9555C239.719 35.9555 239.567 36.4006 239.421 36.9444ZM98.6929 38.5052C94.6051 39.995 92.0348 41.8229 88.3436 45.8654C84.8644 49.6755 84.0637 51.2451 85.3094 51.8131C85.7844 52.0297 86.0427 51.9739 86.9053 51.4678C87.9657 50.8461 95.0571 44.5292 97.2593 42.2445C98.5553 40.9003 100.92 37.7976 100.614 37.8432C100.516 37.8579 99.652 38.1557 98.6929 38.5052ZM156.702 42.8953C154.3 44.786 145.179 53.6657 144.368 54.903C144.071 55.3572 144.052 55.5697 144.27 55.9778C144.658 56.7033 146.002 56.5004 148.281 55.3721C152.169 53.447 155.77 49.8675 157.615 46.0934C158.612 44.0554 159.723 40.8201 159.412 40.8624C159.328 40.8736 158.109 41.7885 156.702 42.8953ZM78.4432 44.3011C75.2209 45.9078 73.5413 47.1589 71.1488 49.7348C68.9501 52.1023 65.9989 55.9243 65.5779 56.9499C65.1442 58.0058 65.4539 58.7578 66.3223 58.7578C66.7769 58.7578 67.4511 58.3706 68.4904 57.5128C70.8801 55.5401 77.0546 48.8109 78.6808 46.4064C79.4959 45.2014 80.4283 43.9277 80.7526 43.5757C81.0769 43.2236 81.2964 42.9407 81.2406 42.9465C81.1848 42.9523 79.9258 43.5619 78.4432 44.3011ZM199.325 46.5288C196.263 47.698 191.926 51.9492 191.926 53.782C191.926 54.5215 192.398 55.035 193.077 55.035C193.215 55.035 194.294 54.1285 195.475 53.0205C197.929 50.7179 199.225 49.8293 201.691 48.7569C202.651 48.3397 203.559 47.8993 203.711 47.7778C203.863 47.6563 204.281 47.4753 204.641 47.3753L205.295 47.1935L204.365 46.7736C203.158 46.2282 200.456 46.0969 199.325 46.5288ZM210.643 48.7111C209.876 48.9426 208.747 49.3563 208.136 49.6306C203.328 51.7868 197.296 57.7808 194.54 63.1421C193.711 64.7523 193.543 65.2916 193.601 66.1532C193.68 67.3482 194.098 67.747 195.027 67.5137C195.468 67.4029 196.299 66.4715 197.973 64.2122C202.015 58.7566 205.786 55.5478 211.118 53.0251C212.391 52.4227 214.531 51.3289 215.874 50.5943C217.217 49.8598 218.682 49.1753 219.129 49.0733C219.941 48.8881 219.939 48.8872 218.664 48.709C217.961 48.6108 216.182 48.4763 214.712 48.4102C212.548 48.313 211.772 48.3702 210.643 48.7111ZM163.329 50.982C162.242 52.1845 160.542 53.8523 159.552 54.6883C157.352 56.5465 156.918 57.1428 157.275 57.8115C158.27 59.6711 164.376 55.7654 165.29 52.685C165.662 51.4311 165.793 48.7357 165.479 48.7741C165.383 48.7857 164.416 49.7795 163.329 50.982ZM127.274 50.9827C127.106 51.1856 126.492 51.6749 125.909 52.0702C124.053 53.3288 122.192 55.0515 120.719 56.8727C118.736 59.3246 116.342 61.79 114.212 63.5728C112.256 65.2095 111.864 65.9359 112.535 66.6781C114.311 68.6417 120.625 64.4889 124.679 58.692C125.818 57.0637 126.696 54.9375 127.06 52.9311C127.208 52.1114 127.43 51.2547 127.551 51.0274C127.825 50.5148 127.682 50.4915 127.274 50.9827ZM248.257 54.3162C246.617 54.7362 244.786 55.8724 243.006 57.5739C239.837 60.602 238.5 62.9257 239.403 63.8302C240.002 64.4295 240.931 64.1277 242.538 62.811C245.284 60.562 246.871 59.427 248.235 58.7369C249.604 58.0442 253.484 56.6311 255.516 56.0851C256.476 55.827 256.556 55.7691 255.976 55.7528C255.59 55.7419 254.494 55.4049 253.541 55.004C251.71 54.2341 249.633 53.9637 248.257 54.3162ZM140.134 55.4114C138.173 55.8375 136.691 56.6263 135.072 58.1054C133.414 59.6206 132.406 60.978 132.406 61.6958C132.406 62.3783 133.361 63.0433 134.034 62.8294C134.832 62.576 139.545 58.3651 140.541 57.0155C141.048 56.3289 141.57 55.7007 141.701 55.6199C141.975 55.4503 142.024 55.0203 141.764 55.065C141.668 55.0815 140.934 55.2374 140.134 55.4114ZM100.902 55.548C97.4921 56.7391 95.4146 58.0081 90.3228 62.0102C88.5965 63.3671 85.8888 65.4617 84.3057 66.6648C80.1967 69.7878 78.9302 70.9917 78.9302 71.7749C78.9302 73.0118 80.2076 73.5574 82.2197 73.18C84.6828 72.7182 88.3124 70.6848 93.3454 66.9471C98.1849 63.3534 100.765 60.2351 101.791 56.7421C102.242 55.206 102.167 55.106 100.902 55.548ZM167.281 57.801C165.161 59.9724 160.092 64.4502 157.865 66.1195C154.937 68.3138 152.812 70.4677 152.907 71.1432C152.975 71.6185 153.101 71.6683 154.175 71.6413C156.605 71.5804 160.871 69.7252 163.523 67.576C165.291 66.1432 166.844 64.101 167.501 62.345C167.896 61.2877 168.777 56.66 168.608 56.529C168.581 56.5085 167.984 57.0809 167.281 57.801ZM266.095 57.9923C264.478 59.7541 263.066 61.4904 261.972 63.0623C259.596 66.4748 258.355 67.8604 256.681 68.973C255.787 69.5668 255.019 70.242 254.974 70.4733C254.597 72.4343 256.886 73.1005 259.504 71.7914C263.286 69.9 266.764 65.0396 267.179 61.0669C267.313 59.7846 266.937 57.5819 266.587 57.6033C266.508 57.6082 266.286 57.7831 266.095 57.9923ZM81.7203 58.7685C78.2846 59.0359 75.9796 59.6348 73.4499 60.9175C70.888 62.217 66.8534 65.6229 64.6802 68.3215C63.3965 69.9154 63.5472 71.3223 65.0017 71.3223C65.4509 71.3223 66.5053 70.6131 68.7334 68.8122C72.346 65.8924 73.1577 65.3072 77.0702 62.8017C81.2085 60.1518 82.5666 59.4153 84.1564 58.9598C85.7607 58.4998 85.4694 58.477 81.7203 58.7685ZM110.933 60.4536C108.939 61.8282 106.827 64.0438 105.22 66.4487C103.385 69.1941 99.6229 76.707 99.6229 77.6263C99.6229 78.3873 100.509 79.466 101.135 79.466C101.937 79.466 102.874 78.717 103.677 77.435C104.892 75.4949 108.923 67.4515 110.179 64.4584C110.771 63.0507 111.513 61.3829 111.829 60.7518C112.146 60.1211 112.38 59.585 112.349 59.5603C112.319 59.5356 111.682 59.9377 110.933 60.4536ZM228.869 62.8285C227.256 64.285 224.936 66.6155 223.713 68.0074C222.49 69.3993 220.574 71.3165 219.455 72.2679C218.336 73.2196 216.707 74.6042 215.836 75.3451C214.031 76.8787 213.692 77.6179 214.445 78.3717C214.912 78.8397 215.019 78.8499 216.589 78.5802C219.839 78.0227 223.332 75.9684 226.241 72.9038C229.459 69.5137 230.811 66.8215 231.437 62.5616C231.571 61.6463 231.746 60.73 231.824 60.5257C231.902 60.3212 231.929 60.1597 231.883 60.1669C231.838 60.1741 230.481 61.3717 228.869 62.8285ZM182.51 61.415C179.283 62.3317 177.085 63.5223 174.798 65.5908C172.475 67.6921 171.329 70.3111 171.932 72.1395C172.278 73.1891 172.74 73.1686 173.302 72.0785C174.202 70.3332 176.662 67.7933 180.5 64.6475C182.656 62.8799 184.619 61.3089 184.86 61.1565C185.287 60.8877 185.286 60.8794 184.835 60.8828C184.579 60.8849 183.533 61.1244 182.51 61.415ZM249.604 61.8957C244.496 63.0574 238.436 67.8871 235.961 72.7689C235.314 74.0447 235.263 74.638 235.764 75.0545C236.268 75.4733 237.187 74.9984 239.314 73.2198C244.285 69.0621 246.755 67.5218 253.228 64.5412C255.551 63.4718 257.403 62.5483 257.344 62.4888C257.055 62.1965 254.839 61.7717 253.074 61.6698C251.785 61.5953 250.579 61.6739 249.604 61.8957ZM146.494 62.4946C143.935 62.922 140.242 65.3619 136.152 69.3278C133.304 72.089 132.406 73.245 132.406 74.1494C132.406 75.0712 133.148 75.7432 134.166 75.7432C135.119 75.7432 135.664 75.3977 140.427 71.774C142.217 70.4119 144.624 68.631 145.775 67.8159C146.926 67.0011 148.518 65.729 149.314 64.9891C150.11 64.2494 150.942 63.644 151.163 63.644C152.15 63.644 149.915 62.6391 148.448 62.4236C148.001 62.3578 147.121 62.3897 146.494 62.4946ZM216.767 62.3624C216.704 62.4255 215.677 62.5314 214.485 62.5979C210.605 62.8143 208.342 63.6708 205.007 66.1855C202.468 68.1005 199.715 71.0736 197.715 74.0612C195.96 76.6823 194.251 79.9533 194.251 80.6906C194.251 82.2509 195.727 82.5187 196.887 81.1688C201.554 75.7355 205.378 71.8582 209.015 68.8706C210.55 67.6102 212.59 65.8549 213.549 64.9698C214.508 64.0847 215.737 63.1661 216.281 62.9288C216.825 62.6914 217.269 62.4411 217.269 62.3727C217.269 62.2163 216.92 62.2093 216.767 62.3624ZM55.7112 66.7412C54.7691 67.512 53.4333 68.8285 52.7423 69.6666C50.7835 72.0434 44.2874 82.1006 44.2874 82.7568C44.2874 83.5193 44.6961 83.8869 45.5445 83.8869C46.097 83.8869 46.539 83.5818 47.651 82.4327C50.159 79.8413 55.1599 72.3738 56.1657 69.7183C56.6463 68.4493 57.5505 65.424 57.4659 65.3677C57.4426 65.3521 56.653 65.9703 55.7112 66.7412ZM182.161 68.9609C182.161 69.1978 181.632 70.0915 180.985 70.947C178.875 73.7359 174.024 83.4094 174.024 84.8271C174.024 86.7518 175.857 87.4573 177.294 86.0857C178.996 84.4614 181.463 79.9821 182.514 76.6076C183.076 74.8048 183.131 74.3434 183.004 72.5411C182.806 69.7385 182.614 68.5302 182.369 68.5302C182.255 68.5302 182.161 68.724 182.161 68.9609ZM126.576 69.8953C126.12 70.1238 124.813 70.602 123.674 70.9575C119.877 72.1421 117.582 73.5551 112.402 77.8969C108.131 81.4773 104.498 85.0568 104.502 85.682C104.507 86.4512 105.271 86.7672 106.319 86.4331C109.026 85.5696 117.396 79.835 121.517 76.0196C122.304 75.2916 123.601 73.8283 124.401 72.7677C125.201 71.707 126.152 70.6159 126.515 70.3428C127.855 69.3348 127.866 69.2494 126.576 69.8953ZM192.831 70.0524C190.813 71.3442 189.848 73.1298 188.448 78.1684C187.654 81.0252 187.574 82.0576 188.107 82.5906C189.091 83.5756 190.516 82.6837 191.01 80.7734C191.147 80.2464 191.683 78.4015 192.202 76.6739C192.951 74.1812 193.895 69.7066 193.706 69.5463C193.686 69.5293 193.293 69.7571 192.831 70.0524ZM95.1682 73.0132C93.6771 74.8346 91.646 77.4038 90.6546 78.7224C88.2152 81.9671 86.2945 84.0002 83.6814 86.1034C82.475 87.0746 81.4878 88.0074 81.4878 88.1763C81.4878 89.3413 83.7237 89.1058 86.7191 87.6253C91.629 85.1985 95.9275 79.5186 97.3842 73.5328C97.7397 72.0723 98.0966 69.6908 97.9591 69.6976C97.9152 69.6997 96.6592 71.1918 95.1682 73.0132ZM69.0489 73.5393C68.5374 73.708 67.6439 73.8541 67.0633 73.8639C64.6711 73.9044 61.9267 75.0387 58.7504 77.2993C55.6161 79.53 54.8449 80.7095 55.8969 81.6623C56.4787 82.189 57.2908 82.0222 59.7855 80.863C62.6637 79.5256 64.9122 77.965 66.8401 75.967C67.7992 74.973 68.9238 73.9898 69.3395 73.7822C69.7552 73.5744 70.0952 73.3548 70.0952 73.294C70.0952 73.2333 70.0691 73.1947 70.037 73.2082C70.0049 73.2217 69.5604 73.3706 69.0489 73.5393ZM167.518 73.9904C167.349 74.3062 166.782 74.8486 166.258 75.1957C164.648 76.2621 162.947 78.0132 159.286 82.3745C154.712 87.8233 154.274 88.3759 153.131 90.1471C150.036 94.94 154.696 92.7858 160.914 86.5489C165.332 82.119 167.124 79.2997 167.508 76.1802C167.625 75.236 167.79 74.2278 167.876 73.94C168.083 73.248 167.901 73.2738 167.518 73.9904ZM145.31 74.8837C143.159 76.0122 143.36 75.8705 135.614 81.7121C128.544 87.0427 127.611 87.9773 128.567 88.771C129.12 89.2305 130.27 88.8801 133.594 87.2393C138.607 84.7648 143.205 81.464 145.146 78.9458C146.089 77.723 147.375 74.8118 147.238 74.2103C147.191 74.0007 146.598 74.2078 145.31 74.8837ZM266.211 75.1403C264.22 75.6341 263.032 76.4168 260.747 78.7394C256.555 83.0016 252.609 90.0268 252.609 93.2307C252.609 93.9038 252.741 94.2 253.162 94.4762C253.871 94.9413 254.631 94.6282 255.317 93.5883C255.587 93.1795 256.805 91.3267 258.024 89.4711C260.237 86.1038 261.45 84.5235 264.651 80.8367C265.624 79.7159 266.644 78.2401 267.046 77.3719C267.431 76.5401 267.845 75.6778 267.966 75.4556C268.088 75.2334 268.187 74.9977 268.187 74.9321C268.187 74.7492 267.493 74.8223 266.211 75.1403ZM248.657 76.6013C246.07 78.8138 244.269 80.6476 241.96 83.4215C238.427 87.6656 234.6 91.8865 233.203 93.0813C231.839 94.2473 231.611 94.8755 232.399 95.2973C233.36 95.8118 236.432 94.8729 238.583 93.4073C242.147 90.9793 246.775 85.3534 248.778 81.0156C249.393 79.685 250.517 76.0622 250.517 75.4135C250.517 75.1036 250.089 75.3767 248.657 76.6013ZM277.255 76.9157C274.099 78.0451 269.028 82.4599 266.04 86.679C262.946 91.048 261.867 93.8862 263.225 94.08C263.618 94.1358 264.277 93.5109 266.248 91.2108C269.303 87.6453 273.116 84.2752 278.033 80.7944C280.059 79.3599 281.916 78.0718 282.16 77.932C282.582 77.69 282.583 77.6595 282.195 77.3082C281.13 76.3435 279.267 76.1955 277.255 76.9157ZM80.4852 77.8673C77.7524 78.2189 74.4581 79.8067 68.0026 83.8839C62.1194 87.5995 59.8651 89.4195 59.8651 90.4533C59.8651 91.4002 60.6949 91.6701 62.1361 91.1915C64.5067 90.4044 76.1193 83.7284 78.9674 81.515C80.7656 80.1178 82.9648 77.5122 82.2434 77.6339C82.1474 77.6502 81.3564 77.7552 80.4852 77.8673ZM229.402 79.8064C226.949 81.0015 223.83 83.0302 220.989 85.2785C217.853 87.7607 214.73 90.0228 212.968 91.0885C212.073 91.6297 211.21 92.2402 211.05 92.445C210.604 93.0157 210.695 94.2933 211.218 94.8169C212.352 95.9512 214.447 95.7287 217.618 94.1372C223.778 91.0456 230.048 85.0684 231.663 80.7495C232.227 79.2401 232.27 78.768 231.842 78.768C231.673 78.768 230.575 79.2354 229.402 79.8064ZM205.699 79.4919C204.267 80.2013 202.966 81.8133 201.681 84.4686C200.422 87.0713 200.008 88.8389 200.294 90.3934C200.526 91.6597 201.198 92.2632 202.374 92.2632C203.594 92.2632 204.224 91.5208 204.473 89.7906C204.717 88.0934 205.423 86.1874 206.352 84.7222C207.195 83.3913 209.227 81.1839 210.108 80.6401L210.736 80.2529L209.771 79.6268C208.564 78.8436 207.105 78.7955 205.699 79.4919ZM59.1429 83.5676C58.9648 83.7822 58.2673 84.3657 57.5928 84.8646C55.7888 86.1981 54.4385 88.0455 52.7375 91.5063C51.5982 93.824 51.0423 95.3155 50.4968 97.5178C49.8307 100.206 49.7996 100.498 50.1176 101.067C50.5759 101.886 51.269 101.957 51.9304 101.253C52.6091 100.53 57.6412 90.3523 58.3798 88.2089C58.6851 87.3226 58.9397 86.2755 58.9453 85.8821C58.9509 85.4886 59.1032 84.7517 59.2836 84.2447C59.6551 83.2007 59.6135 83.0001 59.1429 83.5676ZM292.367 85.3527C290.765 87.1485 289.444 88.8876 287.65 91.5652C286.75 92.9089 285.298 94.885 284.424 95.9565C283.55 97.028 282.835 98.0988 282.835 98.3361C282.835 98.9783 283.814 99.5297 284.612 99.3373C288.671 98.3577 293.168 92.3859 293.656 87.3291C293.734 86.5236 293.711 85.4858 293.605 85.0226L293.414 84.1805L292.367 85.3527ZM285.055 84.5668C284.982 84.6847 284.268 84.9991 283.469 85.2655C280.457 86.2686 277.271 89.4814 274.605 94.2059C273.422 96.3018 273.227 97.4968 273.96 98.1604C274.698 98.8287 275.686 98.6409 276.855 97.6106C278.013 96.5913 281.449 92.3651 283.126 89.8997C284.116 88.4455 285.16 86.1371 285.16 85.4044C285.16 85.2248 285.264 85.013 285.392 84.9339C285.52 84.8548 285.625 84.6917 285.625 84.5712C285.625 84.2899 285.228 84.2869 285.055 84.5668ZM296.708 84.9921C296.637 85.3441 296.003 87.3072 295.3 89.3548C294.597 91.4023 293.424 95.0591 292.693 97.481C291.466 101.548 291.39 101.93 291.699 102.484C291.944 102.924 292.255 103.101 292.867 103.153C293.564 103.212 293.803 103.101 294.327 102.478C295.629 100.93 297.063 97.3046 297.846 93.586C298.36 91.1464 298.285 88.0509 297.664 86.0391C297.377 85.1115 297.074 84.3522 296.99 84.3522C296.906 84.3522 296.779 84.6401 296.708 84.9921ZM148.561 88.0553C146.49 89.0483 145.39 89.7441 144.312 90.7427C142.15 92.7461 138.807 97.9815 138.355 100.073C138.239 100.61 138.322 100.941 138.691 101.411C139.301 102.187 140.233 102.231 141.129 101.525C141.81 100.989 146.796 93.5276 148.333 90.7455C149.374 88.8622 150.094 87.9343 151.085 87.2025C152.165 86.4047 151.615 86.5906 148.561 88.0553ZM189.098 88.207C183.972 89.1351 179.281 92.2002 174.418 97.7998C171.784 100.832 169.839 103.723 169.839 104.604C169.839 105.413 170.557 106.224 171.272 106.224C171.618 106.224 173.065 104.917 175.864 102.079C178.113 99.7989 181.26 96.8984 182.859 95.6329C184.457 94.3673 187.027 92.3326 188.57 91.1108C190.112 89.889 191.682 88.6598 192.057 88.3789L192.74 87.8682L191.81 87.8761C191.299 87.8805 190.078 88.0295 189.098 88.207ZM93.2291 88.9355C89.4103 89.4423 84.9009 92.2137 80.9042 96.5105C78.0507 99.5781 77.3985 101.119 78.8044 101.472C79.5626 101.663 80.4541 101.144 83.5577 98.7042C85.0406 97.5387 87.7188 95.5938 89.5091 94.3825C93.7427 91.5175 96.8329 89.2375 96.8329 88.979C96.8329 88.7777 94.6181 88.751 93.2291 88.9355ZM46.7754 90.0835C46.6945 90.1645 46.0244 90.2169 45.2862 90.1999C42.3362 90.1317 39.9485 90.9367 36.6999 93.0948C34.5472 94.5249 31.4091 97.3635 30.9071 98.3349C29.902 100.28 31.3759 102.037 33.2008 101.068C33.48 100.92 34.5237 100.179 35.5197 99.4218C36.516 98.6644 38.6608 97.2137 40.286 96.1976C42.4764 94.8285 43.6701 93.8936 44.8984 92.5855C45.8098 91.615 46.8561 90.6224 47.2234 90.3802C47.8117 89.9918 47.8335 89.9393 47.4069 89.9381C47.1404 89.9372 46.8563 90.0028 46.7754 90.0835ZM117.832 90.9505C113.473 92.3987 108.191 96.4105 104.616 100.989C102.834 103.272 102.087 104.667 102.087 105.716C102.087 106.688 102.834 107.387 103.872 107.387C104.474 107.387 105.13 106.849 108.205 103.831C112.173 99.9385 113.102 99.18 117.758 96.0305C121.433 93.5448 124.19 91.1613 123.82 90.7909C123.685 90.6557 122.658 90.5116 121.538 90.4705C119.877 90.4095 119.194 90.4979 117.832 90.9505ZM77.5352 92.0194C71.7796 93.3326 68.5567 95.1631 64.0287 99.69C61.381 102.337 58.6758 105.722 56.9955 108.49C55.7395 110.559 55.8921 111.808 57.4001 111.808C58.0034 111.808 58.8969 110.999 64.038 105.794C69.8127 99.9486 75.6029 94.4306 77.3474 93.1107C77.8196 92.7535 78.7089 92.2644 79.3236 92.024C80.7426 91.4693 79.9549 91.4673 77.5352 92.0194ZM246.087 93.5651C245.646 94.0253 244.815 94.7257 244.239 95.1214C243.013 95.9647 239.374 98.8668 236.567 101.239C234.191 103.246 231.699 104.934 229.417 106.081C228.049 106.769 227.732 107.03 227.732 107.471C227.732 108.236 228.373 108.726 229.769 109.026C234.67 110.078 241.833 104.252 245.174 96.4982C245.654 95.3846 246.278 94.0811 246.561 93.6011C246.844 93.1214 247.033 92.7286 246.982 92.7286C246.93 92.7286 246.528 93.1051 246.087 93.5651ZM228.605 93.6788C226.688 94.1312 224.86 95.308 222.722 97.4677C219.126 101.099 215.217 107.588 214.992 110.298C214.9 111.409 214.947 111.567 215.467 111.908C216.476 112.569 217.038 112.1 219.964 108.155C221.463 106.133 223.702 103.222 224.94 101.687C226.177 100.151 227.504 98.4234 227.888 97.8475C228.552 96.8514 230.289 93.7226 230.289 93.5216C230.289 93.381 229.59 93.4462 228.605 93.6788ZM194.802 94.3057C190.835 95.7252 186.646 99.6298 183.932 104.438C182.809 106.428 182.583 107.528 183.244 107.783C183.785 107.99 184.23 107.669 188.249 104.171C190.207 102.466 192.891 100.344 194.213 99.4548C197.37 97.33 198.286 96.5768 199.045 95.4814C199.852 94.3157 199.636 94.0923 197.581 93.9718C196.438 93.9048 195.662 93.9978 194.802 94.3057ZM158.74 94.7096C156.528 95.1905 154.641 96.3293 152.218 98.6467C149.387 101.353 148.839 102.406 149.804 103.279C150.397 103.817 151.517 103.759 152.311 103.15C153.436 102.288 157.6 98.6353 158.128 98.0492C159.055 97.0187 160.752 94.3573 160.47 94.3757C160.316 94.3859 159.537 94.5363 158.74 94.7096ZM99.469 96.0968C99.2079 96.2797 98.3251 96.6825 97.5067 96.9917C94.8076 98.0118 93.1852 99.0914 86.9516 104.015C82.1376 107.818 80.4429 108.959 78.814 109.495C77.369 109.971 77.2239 110.614 78.4652 111.041C80.5536 111.761 84.3364 110.333 89.4789 106.883C94.5488 103.482 97.3072 100.897 98.6985 98.2454C99.1154 97.4505 99.6153 96.6166 99.8096 96.3919C100.274 95.8539 100.069 95.6761 99.469 96.0968ZM131.36 95.9707C128.481 96.6713 124.843 99.3966 120.99 103.74C117.528 107.642 116.929 108.847 118.075 109.599C119.034 110.227 119.858 109.66 125.198 104.701C126.413 103.573 129.391 101.177 131.816 99.3771C136.015 96.2597 136.192 96.0971 135.536 95.9563C134.598 95.755 132.212 95.7632 131.36 95.9707ZM306.926 96.0121C303.383 96.8444 299.011 100.92 296.454 105.772C295.165 108.22 295.005 109.304 295.834 109.976C296.983 110.908 297.541 110.529 300.156 107.046C302.451 103.988 303.526 102.963 307.101 100.428C308.524 99.4194 310.102 98.1644 310.608 97.639C311.113 97.1139 311.689 96.6762 311.887 96.6664C312.084 96.6566 311.566 96.4475 310.735 96.2018C309.105 95.7201 308.333 95.6817 306.926 96.0121ZM166.343 96.6455C162.293 98.1099 159.332 100.593 155.838 105.453C153.428 108.805 150.408 114.547 150.58 115.45C150.722 116.195 151.625 116.092 152.706 115.206C153.776 114.328 158.123 109.021 164.924 100.291C166.12 98.7549 167.48 97.1597 167.946 96.7458C168.975 95.8304 168.653 95.8102 166.343 96.6455ZM208.931 97.5106C206.127 99.5158 204.798 100.781 201.748 104.347C197.455 109.368 196.111 111.221 196.111 112.125C196.111 114.681 199.263 113.417 203.865 109.014C208.104 104.958 209.806 102.206 210.419 98.4122C210.602 97.2865 210.726 96.3476 210.697 96.326C210.667 96.3044 209.872 96.8374 208.931 97.5106ZM263.072 96.8961C262.752 97.1325 261.737 97.5962 260.816 97.9266C257.46 99.1309 253.84 101.318 249.562 104.726C247.009 106.76 246.462 107.411 246.654 108.18C247.052 109.765 250.17 108.568 255.802 104.668C258.698 102.663 260.431 101.012 262.244 98.5311C263.079 97.3872 263.738 96.4547 263.708 96.4589C263.678 96.4628 263.392 96.6597 263.072 96.8961ZM285.651 101.354C285.218 101.619 284.006 102.145 282.957 102.525C278.791 104.034 276.273 105.864 270.217 111.787C266.299 115.619 264.278 117.879 262.417 120.513C261.544 121.749 261.444 122.027 261.444 123.247C261.444 123.994 261.509 124.605 261.588 124.605C261.666 124.605 262.425 124.142 263.273 123.575C268.595 120.021 280.853 108.62 283.416 104.841C284.055 103.899 285.037 102.62 285.598 102C286.159 101.38 286.578 100.873 286.528 100.873C286.479 100.874 286.084 101.09 285.651 101.354ZM25.8825 104.188C24.4127 105.628 23.0209 107.097 22.7895 107.453C22.5582 107.809 21.3632 108.847 20.1337 109.759C17.5364 111.686 17.3171 111.919 17.3171 112.747C17.3171 114.306 19.3267 114.6 21.7556 113.397C22.7644 112.897 23.853 112.052 25.1253 110.779C27.7086 108.195 28.3022 106.887 28.8021 102.676C28.8744 102.068 28.8483 101.57 28.7442 101.57C28.64 101.57 27.3524 102.748 25.8825 104.188ZM69.8626 106.634C68.1363 108.348 65.5469 110.634 64.1082 111.713C62.0592 113.251 61.4926 113.796 61.4926 114.23C61.4926 114.962 61.992 115.12 63.3112 114.802C66.6718 113.993 70.227 111.234 71.7566 108.247C72.176 107.428 73.2316 103.671 73.0719 103.565C73.0333 103.539 71.589 104.92 69.8626 106.634ZM325.615 104.037C323.941 104.486 322.237 105.536 320.271 107.331C317.293 110.052 316.312 112.032 317.438 113.052C318.438 113.958 319.664 113.421 322.481 110.843C323.246 110.143 324.761 108.874 325.848 108.023C326.935 107.172 328.284 106.054 328.846 105.54C329.408 105.026 330.088 104.532 330.357 104.443C330.721 104.323 330.458 104.206 329.335 103.987C327.429 103.616 327.175 103.62 325.615 104.037ZM45.2174 104.396C44.1305 104.508 42.6657 104.761 41.9624 104.958C38.4451 105.943 31.5967 110.279 30.0357 112.509C29.1287 113.805 29.8976 115.298 31.4717 115.298C32.1264 115.298 32.8625 114.989 34.3107 114.104C35.3863 113.447 37.6785 112.068 39.4049 111.04C43.379 108.672 43.7878 108.374 45.9614 106.257C47.5008 104.757 47.9767 104.041 47.3543 104.161C47.266 104.178 46.3044 104.284 45.2174 104.396ZM179.174 105.53C176.96 106.535 174.226 110.274 173.233 113.654C172.798 115.132 172.739 118.564 173.123 120.087C173.589 121.941 175.433 122.687 176.566 121.481C176.996 121.023 177.155 120.435 177.408 118.378C177.775 115.4 178.164 114.321 180.068 111.014C181.55 108.44 182 107.381 182.227 105.933L182.364 105.06L181.275 105.066C180.675 105.068 179.73 105.277 179.174 105.53ZM310.821 105.954C308.692 106.69 306.951 107.919 304.343 110.53C301.48 113.394 299.665 115.703 297.817 118.834C295.821 122.214 295.472 123.794 296.59 124.393C297.487 124.873 298.102 124.416 300.412 121.551C303.225 118.062 305.555 115.543 309.433 111.797C313.092 108.263 315.043 105.98 314.629 105.717C314.125 105.397 312.06 105.525 310.821 105.954ZM140.277 106.214C138.268 106.846 136.396 108.019 134.714 109.7C133.019 111.393 130.778 114.453 130.778 115.073C130.778 115.635 131.368 116.062 131.907 115.891C132.454 115.717 142.279 105.749 141.874 105.78C141.717 105.791 140.999 105.987 140.277 106.214ZM266.443 107.138C260.571 108.632 253.993 112.997 246.785 120.184C243.295 123.664 241.505 125.852 240.29 128.128C239.117 130.324 239.463 132.051 241.076 132.051C242.066 132.051 242.532 131.69 243.865 129.887C245.286 127.964 248.438 124.337 250.843 121.855C252.794 119.84 255.732 117.264 260.049 113.781C261.776 112.389 264.169 110.432 265.369 109.432C266.568 108.433 267.823 107.41 268.159 107.16C268.911 106.597 268.584 106.593 266.443 107.138ZM149.267 109.472C149.059 109.875 148.199 110.956 147.357 111.874C146.515 112.793 145.042 114.541 144.083 115.759C143.124 116.977 140.732 119.604 138.768 121.597C135.148 125.268 134.731 125.909 135.475 126.653C136.587 127.766 141.628 125.398 144.614 122.362C146.807 120.132 148.453 117.409 149.132 114.885C149.422 113.808 149.915 109.009 149.752 108.847C149.693 108.788 149.475 109.07 149.267 109.472ZM164.31 110.351C162.292 111.689 156.952 117.052 156.443 118.251C156.108 119.041 156.28 119.66 156.957 120.104C157.411 120.402 157.641 120.413 158.379 120.173C160.671 119.429 164.038 116.165 165.207 113.553C165.577 112.727 166.429 109.234 166.289 109.119C166.259 109.095 165.369 109.649 164.31 110.351ZM123.646 109.816C120.95 110.66 117.931 113.452 115.83 117.043C114.786 118.83 113.341 122.317 113.341 123.051C113.341 123.78 113.886 124.229 114.565 124.058C115.278 123.879 116.012 123.08 119.035 119.194C120.859 116.849 122.137 115.465 123.483 114.379C124.521 113.541 126.169 112.096 127.145 111.168L128.92 109.481L126.768 109.497C125.585 109.506 124.18 109.649 123.646 109.816ZM240.636 109.807C239.093 110.295 238.16 110.878 236.724 112.248C235.12 113.778 233.524 116.328 233.493 117.408C233.473 118.114 233.984 118.788 234.539 118.788C234.836 118.788 235.965 117.52 237.226 115.771C238.189 114.435 240.65 112.196 243.402 110.154L244.309 109.481L242.937 109.497C242.183 109.506 241.147 109.645 240.636 109.807ZM334.121 110.877C333.888 111.325 333.519 111.901 333.3 112.157C331.998 113.675 328.001 120.897 327.458 122.709C327.204 123.557 327.214 123.745 327.526 124.058C328.1 124.632 328.763 124.248 330.127 122.553C331.827 120.438 333.375 117.816 333.998 115.996C334.489 114.559 334.848 111.506 334.64 110.521C334.559 110.139 334.473 110.197 334.121 110.877ZM99.8217 110.871C98.3988 111.301 96.2026 112.705 94.582 114.219C90.7469 117.803 86.1378 124.476 86.1378 126.443C86.1378 127.966 87.6714 128.34 89.028 127.148C89.4758 126.754 90.649 125.314 91.6356 123.948C92.6218 122.582 94.1445 120.611 95.0192 119.569C96.8271 117.414 102.362 111.974 103.37 111.36C103.738 111.137 103.969 110.884 103.885 110.799C103.673 110.587 100.579 110.642 99.8217 110.871ZM110.244 112.536C109.672 113.864 107.08 118.051 102.088 125.711C99.6983 129.378 96.7978 132.535 93.8822 134.642C91.9629 136.029 91.5667 136.56 91.8304 137.391C92.413 139.228 96.5123 137.311 100.458 133.356C104.424 129.381 107.881 123.525 109.349 118.297C110.082 115.69 111.059 111.308 110.935 111.185C110.894 111.143 110.583 111.751 110.244 112.536ZM283.411 113.847C278.93 118.624 279.45 117.884 272.101 129.926C270.27 132.927 269.171 134.198 267.856 134.834C267.294 135.107 266.769 135.497 266.691 135.701C266.116 137.201 268.859 138.221 270.883 137.26C271.99 136.734 273.956 134.534 275.252 132.37C276.779 129.821 281.597 120.189 283.073 116.735C283.747 115.159 284.699 113.248 285.189 112.489C285.679 111.731 286.056 111.111 286.027 111.113C285.997 111.114 284.821 112.344 283.411 113.847ZM295.622 112.866C295.302 113.043 294.466 113.358 293.762 113.566C290.029 114.672 286.632 118.139 284.205 123.322C282.574 126.805 281.659 131.652 282.378 132.997C282.543 133.306 282.865 133.447 283.408 133.447C284.428 133.447 284.561 133.253 287.32 127.731C288.54 125.291 290.339 122.063 291.32 120.558C292.301 119.053 293.571 116.913 294.143 115.804C294.715 114.694 295.451 113.545 295.778 113.25C296.494 112.606 296.42 112.424 295.622 112.866ZM42.1035 114.517C40.1989 114.925 37.9938 115.996 35.9173 117.521C31.6886 120.625 25.8395 127.49 24.9827 130.354C24.7279 131.205 24.7414 131.41 25.086 131.936C25.9804 133.303 26.85 133.001 28.9432 130.598C31.6486 127.492 36.3314 122.837 38.6808 120.919C39.8813 119.939 42.0356 118.176 43.4685 117.001C44.9012 115.826 46.4301 114.709 46.8661 114.519C47.6478 114.178 47.6315 114.173 45.6824 114.173C44.5955 114.173 42.9849 114.327 42.1035 114.517ZM85.9053 115.773C80.6868 118.448 77.1683 121.427 73.5538 126.233C71.4383 129.046 69.1651 133.311 69.1651 134.467C69.1651 135.985 70.6985 136.517 71.7627 135.367C72.0884 135.015 73.1151 133.575 74.0447 132.167C75.9163 129.332 77.468 127.337 80.1048 124.373C81.0727 123.285 83.0313 121.003 84.4575 119.301C85.8837 117.599 87.4991 115.835 88.0473 115.382C90.0964 113.686 89.9134 113.72 85.9053 115.773ZM183.184 115.226C182.953 115.842 182.414 116.898 181.986 117.573C180.925 119.249 179.324 122.476 178.438 124.722C177.038 128.271 175.644 130.68 174.091 132.235C173.268 133.058 172.629 133.902 172.629 134.165C172.629 134.775 173.637 135.774 174.253 135.774C176.593 135.774 179.795 132.119 181.678 127.3C183.007 123.899 183.315 122.37 183.326 119.137C183.331 117.602 183.441 115.886 183.57 115.326C183.893 113.925 183.693 113.874 183.184 115.226ZM205.061 115.274C201.848 116.142 198.855 117.634 195.964 119.809C192.383 122.502 187.974 128.222 187.974 130.173C187.974 131.003 188.814 131.692 189.51 131.432C189.752 131.342 191.101 130.102 192.508 128.676C196.955 124.171 200.727 121.725 207.21 119.146C209.226 118.344 211.593 117.344 212.471 116.924L214.067 116.161L212.703 115.571C210.844 114.766 207.43 114.633 205.061 115.274ZM337.114 115.572C336.857 116.393 331.275 124.769 329.968 126.295C329.336 127.032 327.836 128.375 326.635 129.279C323.798 131.412 323.471 132.029 324.49 133.325C324.945 133.904 325.103 133.955 326.189 133.864C328.746 133.652 332.393 131.304 334.52 128.5C337.434 124.658 338.497 121.006 337.821 117.157C337.635 116.098 337.438 115.186 337.383 115.13C337.328 115.076 337.207 115.274 337.114 115.572ZM323.523 117.081C321.627 117.211 319.942 117.664 318.304 118.481C316.189 119.536 315.18 120.358 313.85 122.114C312.476 123.925 308.846 131.333 308.703 132.616C308.556 133.933 309.268 134.843 310.446 134.843C311.754 134.843 313.04 133.298 315.385 128.911C318.217 123.612 319.714 121.438 321.895 119.458C322.918 118.529 324.069 117.637 324.452 117.476C325.161 117.178 325.389 116.894 324.859 116.968C324.7 116.99 324.098 117.041 323.523 117.081ZM15.6922 119.316C15.246 119.602 13.8761 120.263 12.648 120.785C8.56321 122.523 4.88873 125.626 2.29657 129.528C0.47305 132.273 0.00548505 133.648 0.000137498 136.279C-0.00358254 138.206 0.0659396 138.625 0.483746 139.188C1.06012 139.965 2.00431 140.147 2.78924 139.632C3.40514 139.228 3.82597 138.005 3.8362 136.588C3.85317 134.261 5.72946 131.333 10.0982 126.816C11.8308 125.024 13.6627 122.93 14.1688 122.162C14.6752 121.394 15.5078 120.321 16.0191 119.777C17.046 118.685 16.9307 118.522 15.6922 119.316ZM132.522 119.469C127.36 120.94 123.42 124.607 120.661 130.51C118.9 134.277 118.747 136.079 120.145 136.571C121.466 137.035 121.933 136.603 123.571 133.399C125.374 129.871 126.694 127.946 129.76 124.371C133.535 119.97 134.311 119.02 134.109 119.046C134.004 119.06 133.289 119.25 132.522 119.469ZM24.568 120.916C21.647 122.832 19.7672 124.751 16.5071 129.142C14.9872 131.19 12.9784 133.67 12.0428 134.654C11.1075 135.637 10.3421 136.597 10.3421 136.787C10.3421 137.45 10.6364 137.888 11.3214 138.242C12.6276 138.918 14.5615 138.166 16.8598 136.088C18.8168 134.319 22.9058 128.599 24.5049 125.395C25.3829 123.635 26.9176 119.71 26.7812 119.573C26.7451 119.537 25.7493 120.141 24.568 120.916ZM218.78 119.847C216.846 120.377 214.467 121.73 212.489 123.423C209.429 126.044 205.879 130.896 205.877 132.458C205.876 133.414 206.643 134.244 207.351 134.053C207.627 133.979 207.915 133.917 207.991 133.916C208.067 133.914 208.994 132.865 210.051 131.584C212.204 128.977 214.584 126.674 217.34 124.533C218.359 123.741 220.003 122.412 220.993 121.58C221.983 120.749 222.988 119.943 223.228 119.791C223.864 119.386 220.298 119.431 218.78 119.847ZM242.103 120.54C238.909 121.38 236.277 123.716 233.723 127.979C232.039 130.789 230.709 135.1 231.076 136.562C231.162 136.905 231.491 137.304 231.807 137.448C232.906 137.949 233.389 137.445 235.16 133.951C236.067 132.162 237.853 129.213 239.146 127.367C241.161 124.491 243.496 120.493 243.266 120.311C243.226 120.28 242.703 120.383 242.103 120.54ZM344.951 121.431C344.792 122.053 344.313 123.257 343.888 124.107C343.462 124.957 342.658 126.699 342.101 127.979C341.544 129.259 340.694 131.009 340.211 131.869C339.212 133.648 339.104 134.471 339.819 134.855C341.639 135.829 344.349 132.342 345.392 127.682C345.668 126.451 345.682 122.655 345.416 121.231L345.242 120.301L344.951 121.431ZM49.3034 122.22C48.3478 124.469 45.9068 128.078 44.4448 129.403C43.1577 130.57 42.167 131.199 38.6588 133.076C36.0168 134.489 35.2198 135.167 35.2198 136.002C35.2198 137.238 36.2665 137.241 39.5292 136.014C44.0805 134.303 46.7466 132.488 48.4439 129.945C49.8205 127.881 50.3325 126.017 50.3325 123.068C50.3325 121.738 50.2511 120.65 50.1518 120.65C50.0523 120.65 49.6705 121.357 49.3034 122.22ZM167.049 121.212C162.421 122.524 157.524 127.188 154.645 133.027C153.298 135.759 153.104 136.819 153.792 137.694C154.328 138.376 155.296 138.542 156.13 138.096C156.373 137.965 157.457 136.526 158.537 134.897C161.623 130.244 162.665 129.163 169.457 123.56C170.782 122.466 171.684 121.556 171.644 121.35C171.556 120.885 168.52 120.795 167.049 121.212ZM256.113 121.881C256.096 122.555 253.455 129.44 252.441 131.451C252.123 132.081 251.09 133.41 250.144 134.403C248.9 135.71 248.424 136.379 248.424 136.821C248.424 139.299 251.066 138.969 253.908 136.137C256.163 133.888 257.242 131.158 257.315 127.514C257.349 125.827 256.875 123.063 256.318 121.697C256.153 121.292 256.126 121.316 256.113 121.881ZM68.4195 122.504C65.5858 122.793 62.038 124.975 58.6786 128.494C56.1108 131.184 55.0423 133.706 56.0453 134.71C56.9158 135.581 58.036 134.986 58.9546 133.166C59.6549 131.777 63.0596 128.488 65.5614 126.783C66.7122 125.998 68.2921 124.795 69.0719 124.108C69.852 123.422 70.689 122.736 70.9319 122.583C71.3309 122.333 71.306 122.308 70.6764 122.325C70.2928 122.336 69.2772 122.416 68.4195 122.504ZM308.759 123.455C308.503 123.558 308.029 123.649 307.706 123.658C307.383 123.667 306.342 124.047 305.393 124.502C302.501 125.889 298.293 130.504 297.323 133.353C296.743 135.055 297.32 136.937 298.42 136.937C298.964 136.937 299.286 136.5 299.661 135.255C300.238 133.334 302.278 130.824 305.409 128.179C306.547 127.218 307.689 125.98 308.334 125.01C308.916 124.134 309.354 123.383 309.308 123.342C309.262 123.301 309.014 123.352 308.759 123.455ZM150.043 125.922C149.23 126.518 147.408 128.115 145.995 129.47C144.582 130.826 142.934 132.361 142.333 132.881C141.04 134.002 140.9 134.774 141.853 135.524C142.19 135.789 142.635 136.006 142.842 136.004C144.698 135.993 149.696 131.552 151.006 128.749C151.745 127.171 152.195 124.838 151.761 124.838C151.63 124.838 150.857 125.326 150.043 125.922ZM352.507 126.104C352.405 126.48 351.928 127.266 351.447 127.849C349.571 130.125 346.773 135.016 346.773 136.02C346.773 136.677 347.376 137.782 347.83 137.956C349.236 138.496 350.417 137.768 351.447 135.725C352.823 132.997 353.268 130.134 352.848 126.699C352.706 125.534 352.675 125.481 352.507 126.104ZM201.691 128.645C200.604 129.457 198.983 130.776 198.088 131.576C197.193 132.376 195.466 133.821 194.251 134.788C191.687 136.828 191.461 137.072 191.461 137.801C191.461 138.621 192.331 138.927 193.396 138.482C195.922 137.426 200.651 133.572 202.172 131.329C203.391 129.533 204.345 127.161 203.847 127.167C203.748 127.168 202.778 127.833 201.691 128.645ZM225.417 129.064C223.089 129.484 220.215 131.491 217.722 134.44C216.193 136.249 215.409 137.565 215.409 138.324C215.409 139.019 216.233 139.729 217.039 139.729C217.756 139.729 219.419 138.224 226.432 131.221L228.778 128.88L227.615 128.879C226.976 128.878 225.987 128.962 225.417 129.064ZM186.501 131.741C186.25 131.992 186.322 132.225 186.695 132.368C186.932 132.459 187.044 132.355 187.044 132.044C187.044 131.587 186.795 131.447 186.501 131.741ZM34.2898 138.552C34.2898 138.673 34.3944 138.836 34.5223 138.915C34.6502 138.994 34.7548 138.895 34.7548 138.696C34.7548 138.497 34.6502 138.333 34.5223 138.333C34.3944 138.333 34.2898 138.432 34.2898 138.552Z" fill="white"/>
<path d="M100.208 191.493V164.409H102.813L103.231 167.062H103.417C103.696 166.907 104.161 166.659 104.812 166.317C105.463 165.945 106.223 165.573 107.091 165.2C107.959 164.797 108.873 164.471 109.834 164.223C110.795 163.944 111.741 163.804 112.671 163.804C114.004 163.804 115.151 164.115 116.112 164.735C117.104 165.356 117.801 166.209 118.204 167.295C119.506 166.488 120.948 165.712 122.529 164.968C124.141 164.192 125.846 163.804 127.644 163.804C129.318 163.804 130.62 164.208 131.55 165.014C132.48 165.821 133.131 166.969 133.503 168.458C133.875 169.916 134.061 171.653 134.061 173.67V191.493H130.201V174.973C130.201 173.515 130.17 172.212 130.108 171.064C130.046 169.916 129.845 169.078 129.504 168.551C129.194 168.055 128.76 167.76 128.202 167.667C127.675 167.543 127.241 167.481 126.9 167.481C126.063 167.481 125.195 167.605 124.296 167.853C123.428 168.07 122.606 168.349 121.831 168.691C121.056 169.001 120.405 169.296 119.878 169.575C119.382 169.854 119.057 170.04 118.902 170.133C118.964 170.63 119.01 171.157 119.041 171.715C119.072 172.274 119.088 172.863 119.088 173.484V191.493H115.228V174.833C115.228 173.065 115.182 171.7 115.089 170.738C115.027 169.776 114.825 169.032 114.484 168.504C114.174 168.07 113.787 167.791 113.322 167.667C112.857 167.543 112.407 167.481 111.973 167.481C110.919 167.481 109.865 167.651 108.811 167.993C107.757 168.303 106.812 168.66 105.975 169.063C105.138 169.435 104.502 169.714 104.068 169.901V191.493H100.208Z" fill="white"/>
<path d="M156.195 192.098C153.622 192.098 151.591 191.524 150.103 190.376C148.646 189.228 147.608 187.599 146.988 185.49C146.368 183.38 146.058 180.867 146.058 177.951C146.058 175.035 146.368 172.522 146.988 170.412C147.608 168.303 148.646 166.674 150.103 165.526C151.591 164.378 153.622 163.804 156.195 163.804C158.768 163.804 160.783 164.378 162.24 165.526C163.728 166.674 164.782 168.303 165.402 170.412C166.022 172.522 166.332 175.035 166.332 177.951C166.332 180.867 166.022 183.38 165.402 185.49C164.782 187.599 163.728 189.228 162.24 190.376C160.783 191.524 158.768 192.098 156.195 192.098ZM156.195 188.747C157.373 188.747 158.349 188.608 159.124 188.329C159.93 188.049 160.566 187.537 161.031 186.793C161.527 186.048 161.868 184.962 162.054 183.535C162.271 182.108 162.379 180.247 162.379 177.951C162.379 175.655 162.271 173.794 162.054 172.367C161.868 170.94 161.527 169.854 161.031 169.109C160.566 168.334 159.93 167.822 159.124 167.574C158.349 167.295 157.373 167.155 156.195 167.155C155.017 167.155 154.025 167.295 153.219 167.574C152.444 167.822 151.808 168.334 151.312 169.109C150.847 169.854 150.506 170.94 150.289 172.367C150.072 173.794 149.964 175.655 149.964 177.951C149.964 180.247 150.072 182.108 150.289 183.535C150.506 184.962 150.847 186.048 151.312 186.793C151.808 187.537 152.444 188.049 153.219 188.329C154.025 188.608 155.017 188.747 156.195 188.747Z" fill="white"/>
<path d="M187.637 192.098C185.064 192.098 183.033 191.524 181.545 190.376C180.088 189.228 179.05 187.599 178.43 185.49C177.81 183.38 177.5 180.867 177.5 177.951C177.5 175.035 177.81 172.522 178.43 170.412C179.05 168.303 180.088 166.674 181.545 165.526C183.033 164.378 185.064 163.804 187.637 163.804C190.21 163.804 192.225 164.378 193.682 165.526C195.17 166.674 196.224 168.303 196.844 170.412C197.464 172.522 197.774 175.035 197.774 177.951C197.774 180.867 197.464 183.38 196.844 185.49C196.224 187.599 195.17 189.228 193.682 190.376C192.225 191.524 190.21 192.098 187.637 192.098ZM187.637 188.747C188.815 188.747 189.791 188.608 190.566 188.329C191.372 188.049 192.008 187.537 192.473 186.793C192.969 186.048 193.31 184.962 193.496 183.535C193.713 182.108 193.821 180.247 193.821 177.951C193.821 175.655 193.713 173.794 193.496 172.367C193.31 170.94 192.969 169.854 192.473 169.109C192.008 168.334 191.372 167.822 190.566 167.574C189.791 167.295 188.815 167.155 187.637 167.155C186.459 167.155 185.467 167.295 184.661 167.574C183.886 167.822 183.25 168.334 182.754 169.109C182.289 169.854 181.948 170.94 181.731 172.367C181.514 173.794 181.406 175.655 181.406 177.951C181.406 180.247 181.514 182.108 181.731 183.535C181.948 184.962 182.289 186.048 182.754 186.793C183.25 187.537 183.886 188.049 184.661 188.329C185.467 188.608 186.459 188.747 187.637 188.747Z" fill="white"/>
<path d="M210.384 191.493V164.409H212.988L213.406 167.062H213.639C213.918 166.907 214.383 166.659 215.034 166.317C215.685 165.945 216.46 165.573 217.359 165.2C218.258 164.797 219.219 164.471 220.242 164.223C221.265 163.944 222.288 163.804 223.311 163.804C225.016 163.804 226.318 164.239 227.217 165.107C228.116 165.945 228.72 167.093 229.03 168.551C229.371 170.009 229.542 171.653 229.542 173.484V191.493H225.682V174.833C225.682 173.003 225.651 171.607 225.589 170.645C225.527 169.683 225.326 168.954 224.985 168.458C224.737 168.055 224.38 167.791 223.915 167.667C223.45 167.543 222.954 167.481 222.427 167.481C221.311 167.481 220.164 167.667 218.986 168.039C217.839 168.38 216.832 168.753 215.964 169.156C215.096 169.528 214.522 169.792 214.243 169.947V191.493H210.384Z" fill="white"/>
<path d="M250.029 192.144C248.696 192.144 247.534 191.927 246.542 191.493C245.55 191.028 244.775 190.159 244.217 188.887C243.69 187.584 243.426 185.661 243.426 183.117V169.016H240.357V166.597L243.566 165.945L244.589 159.616H247.286V165.992H252.68V169.109H247.286V183.396C247.286 185.102 247.332 186.343 247.425 187.119C247.518 187.894 247.751 188.391 248.123 188.608C248.526 188.794 249.192 188.887 250.122 188.887C250.866 188.887 251.471 188.871 251.936 188.84C252.401 188.809 252.633 188.794 252.633 188.794V191.912C252.633 191.912 252.401 191.943 251.936 192.005C251.471 192.098 250.835 192.144 250.029 192.144Z" fill="white"/>
</svg>
