<svg width="1519" height="602" fill="none" xmlns="http://www.w3.org/2000/svg"><path fill-rule="evenodd" clip-rule="evenodd" d="M483.11.582c-9.673 2.417-17.75 7.996-31.723 21.91-15.003 14.939-17.485 18.977-14.482 23.56 1.953 2.98 5.888 4.113 9.142 2.63 1.329-.605 7.709-5.98 14.176-11.94 6.467-5.962 17.309-15.311 24.091-20.776C503.095.835 501.95 1.924 499.904 1.138 496.72-.083 487.052-.404 483.11.582zm62.372 26.895a927.928 927.928 0 01-8.5 6.428c-2.75 2.055-11.862 10.525-20.25 18.823-12.651 12.515-15.25 15.577-15.25 17.969 0 4.007 3.495 5.275 9.094 3.3 9.124-3.22 28.55-20.064 34.142-29.607 3.116-5.316 5.048-12.29 4.59-16.563l-.326-3.042-3.5 2.692zm-67.735 20.595c-10.479 2.822-21.354 9.887-33.358 21.673-11.22 11.016-27.089 31.872-29.923 39.327-1.346 3.539.328 6.458 3.703 6.458 2.845 0 4.698-1.754 23.813-22.54 6.05-6.578 15.05-15.661 20-20.185 10.315-9.428 27.561-22.82 30.804-23.92 2.054-.697 2.002-.79-.804-1.432-4.699-1.075-8.571-.907-14.235.619zm-82.096 22.023c-14.8 3.984-29.978 20.98-43.702 48.935-7.848 15.985-8.785 22.134-4.155 27.25 2.454 2.711 7.053 2.959 9.254.5.861-.962 6.27-9.726 12.02-19.474s12.762-20.773 15.583-24.5c8.506-11.24 25.167-29.322 27.574-29.926 3.851-.967 2.502-2.09-3.4-2.826-3.111-.39-6.148-.862-6.75-1.05-.601-.19-3.492.302-6.424 1.09zM588.409 73.5c-2.284 4.724-33.087 35.269-44.013 43.644-5.494 4.211-10.422 8.466-10.952 9.455-3.149 5.885 1.028 10.666 8.304 9.504 6.387-1.02 17.428-6.772 24.942-12.994 12.619-10.449 18.717-21.207 20.761-36.623.617-4.651 1.596-9.95 2.176-11.774 1.361-4.281.621-5.017-1.218-1.212zm-47.427 6.407c-1.65.715-4.961 1.61-7.357 1.99-8.083 1.28-19.751 6.608-31.73 14.489-19.144 12.593-24.139 18.017-20.213 21.943 1.816 1.816 4.349 1.462 9.981-1.392 7.001-3.547 27.381-16.04 32.536-19.944 3.868-2.93 20.884-18.515 20.116-18.425-.183.022-1.683.624-3.333 1.339zm87.689 34.071c-1.239 2.721-3.98 7.221-6.092 10-2.111 2.778-9.353 12.701-16.093 22.051-12.335 17.112-17.274 23.384-26.378 33.5-8.078 8.976-9.969 13.336-8.005 18.455.792 2.063 5.552 4.545 8.715 4.545 7.723 0 28.883-20.933 40.452-40.017 7.291-12.027 9.466-19.657 9.974-34.983.246-7.425.274-14.625.063-16-.339-2.208-.647-1.922-2.636 2.449zm-120.167 17.319c-4.663 3.115-14.338 11.322-21.5 18.236-13.768 13.293-20.047 18.414-33.022 26.93-10.848 7.12-12.5 8.784-12.5 12.585 0 4.899 3.001 6.975 9.835 6.802 21.16-.535 54.948-26.28 63.241-48.188 1.82-4.807 4.043-22.243 2.815-22.082-.215.029-4.206 2.601-8.869 5.717zm-73.798 2.31c-10.325 1.787-26.637 8.908-42.724 18.651-10.276 6.224-14.5 9.853-14.5 12.458 0 3.118 4.297 2.155 22.834-5.118 9.716-3.812 21.963-8.485 27.214-10.384 9.102-3.291 16.256-6.721 25.761-12.349 2.37-1.403 4.17-2.673 4-2.823-.99-.872-18.152-1.202-22.585-.435zm515.041 9.418c-16.223 4.509-35.594 19.919-42.704 33.971-2.405 4.754-2.669 6.002-1.711 8.104 2.202 4.831 7.171 4.048 10.544-1.661 3.672-6.215 13.319-15.271 23.006-21.595 18.977-12.388 20.808-13.703 22.339-16.039.842-1.286 1.302-2.569 1.02-2.85-1.288-1.288-7.738-1.251-12.494.07zm-390.765 7.595c-7.838 1.107-17.858 5.049-25.703 10.113-13.671 8.821-45.116 36.876-51.243 45.718-3.021 4.359-3.641 8.775-1.429 10.176 4.491 2.845 10.993-.739 30.875-17.015 6.875-5.629 17.9-14.551 24.5-19.827 6.6-5.277 16.05-13.497 21-18.267 4.95-4.77 10.113-9.419 11.473-10.331l2.472-1.658-2.972.122c-1.635.067-5.673.503-8.973.969zm422.371 3.033c-9.236 1.348-21.386 8.535-30.489 18.035-9.605 10.023-12.229 15.932-9.024 20.317 2.007 2.743 7.109 2.398 10.413-.706 2.209-2.075 3.058-2.348 4.456-1.436 1.449.945 2.502.325 6.548-3.854 11.339-11.713 32.726-30.48 34.736-30.48.819 0 1.489-.502 1.489-1.117 0-.614-.801-.907-1.78-.651s-4.017.185-6.75-.159c-2.734-.343-7.053-.32-9.599.051zm48.407 5.126c-1.19 4.462-21.33 35.611-34.751 53.75-4.272 5.775-12.202 14.825-17.624 20.11-8.965 8.742-12.732 11.9-24.153 20.25-6.289 4.598-4.484 9.659 3.434 9.627 5.281-.022 19.055-5.307 27.525-10.563 14.607-9.064 29.549-26.819 37.879-45.006 5.52-12.055 8.36-24.631 8.95-39.614.28-7.042.36-12.804.19-12.804-.17 0-.83 1.913-1.45 4.25zm-605.278 6.708c-17.582 6.403-28.637 14.259-44.513 31.633-14.964 16.375-18.408 23.121-13.05 25.562 2.043.931 3.154.691 6.864-1.484 4.561-2.672 35.061-29.821 44.533-39.64 5.574-5.777 15.744-19.112 14.427-18.916-.418.063-4.136 1.343-8.261 2.845zm249.5 18.868c-10.334 8.126-49.564 46.289-53.048 51.607-1.279 1.952-1.363 2.865-.424 4.619 1.669 3.118 7.452 2.246 17.252-2.603 16.723-8.274 32.21-23.658 40.147-39.878 4.286-8.759 9.064-22.664 7.726-22.482-.359.048-5.603 3.98-11.653 8.737zm-336.595 6.042c-13.859 6.905-21.083 12.282-31.373 23.353-9.457 10.175-22.15 26.601-23.961 31.009-1.865 4.538-.533 7.77 3.202 7.77 1.955 0 4.855-1.664 9.325-5.351 10.278-8.478 36.835-37.399 43.829-47.733 3.506-5.179 7.516-10.653 8.911-12.166 1.395-1.513 2.339-2.729 2.099-2.704-.24.025-5.655 2.645-12.032 5.822zm519.919 9.574c-13.171 5.025-31.824 23.296-31.824 31.173 0 3.178 2.028 5.385 4.949 5.385.594 0 5.236-3.896 10.316-8.658 10.554-9.896 16.126-13.715 26.735-18.324 4.125-1.793 8.034-3.686 8.686-4.208.652-.522 2.452-1.3 4-1.73l2.814-.781-4-1.805c-5.194-2.344-16.812-2.908-21.676-1.052zm48.676 9.379c-3.3.995-8.152 2.773-10.782 3.952-20.679 9.267-46.622 35.028-58.478 58.07-3.562 6.92-4.285 9.238-4.039 12.941.34 5.136 2.138 6.85 6.133 5.847 1.898-.476 5.472-4.479 12.673-14.189 17.386-23.447 33.603-37.238 56.536-48.08 5.476-2.589 14.682-7.29 20.457-10.447 5.775-3.157 12.075-6.099 14-6.537 3.491-.796 3.485-.8-2-1.566-3.025-.422-10.675-1-17-1.284-9.307-.418-12.644-.172-17.5 1.293zm-203.5 9.76c-4.675 5.168-11.983 12.336-16.241 15.929-9.463 7.986-11.333 10.549-9.795 13.423 4.277 7.992 30.542-8.794 34.473-22.033 1.6-5.389 2.161-16.973.813-16.808-.412.05-4.575 4.321-9.25 9.489zm-155.07.003c-.723.872-3.366 2.975-5.872 4.674-7.982 5.409-15.989 12.813-22.324 20.64-8.528 10.538-18.826 21.134-27.987 28.796-8.411 7.034-10.098 10.156-7.211 13.346 7.637 8.439 34.796-9.409 52.231-34.323 4.897-6.998 8.677-16.136 10.241-24.759.638-3.523 1.589-7.205 2.112-8.182 1.179-2.203.562-2.303-1.19-.192zm520.348 14.327c-7.05 1.805-14.93 6.688-22.58 14.001-13.63 13.014-19.39 23.001-15.5 26.888 2.58 2.576 6.57 1.279 13.48-4.38 11.81-9.666 18.64-14.544 24.51-17.51 5.89-2.977 22.57-9.05 31.31-11.397 4.13-1.109 4.48-1.358 1.98-1.428-1.66-.047-6.37-1.495-10.47-3.218-7.88-3.309-16.81-4.471-22.73-2.956zm-465.039 4.707c-8.433 1.831-14.806 5.221-21.77 11.578-7.133 6.512-11.469 12.346-11.469 15.431 0 2.933 4.107 5.791 7.002 4.872 3.432-1.089 23.705-19.187 27.989-24.987 2.18-2.951 4.425-5.651 4.987-5.998 1.178-.729 1.39-2.577.272-2.385-.412.071-3.568.741-7.011 1.489zm-168.739.587c-14.665 5.119-23.6 10.573-45.5 27.773-7.425 5.832-19.071 14.834-25.88 20.005-17.673 13.422-23.12 18.596-23.12 21.962 0 5.316 5.494 7.661 14.148 6.039 10.594-1.985 26.205-10.724 47.852-26.788 20.815-15.445 31.914-28.847 36.324-43.859 1.939-6.602 1.619-7.032-3.824-5.132zm285.5 9.683c-9.12 9.332-30.922 28.577-40.5 35.751-12.592 9.431-21.734 18.688-21.322 21.591.29 2.043.834 2.257 5.452 2.141 10.453-.262 28.801-8.235 40.208-17.472 7.604-6.158 14.284-14.935 17.107-22.482 1.7-4.544 5.49-24.433 4.762-24.996-.114-.088-2.682 2.372-5.707 5.467zm424.998.822c-6.95 7.572-13.02 15.034-17.73 21.79-10.22 14.666-15.55 20.621-22.76 25.403-3.84 2.552-7.15 5.454-7.34 6.448-1.62 8.428 8.23 11.291 19.48 5.665 16.27-8.129 31.23-29.018 33.02-46.092.57-5.511-1.05-14.978-2.55-14.886-.34.021-1.29.773-2.12 1.672zm-792.998 3.336c-14.777 1.149-24.691 3.723-35.571 9.236-11.019 5.585-28.372 20.223-37.719 31.821-5.521 6.85-4.873 12.897 1.383 12.897 1.932 0 6.467-3.048 16.05-10.788 15.538-12.549 19.029-15.064 35.857-25.832 17.799-11.389 23.64-14.554 30.478-16.512 6.9-1.977 5.647-2.075-10.478-.822zm125.646 7.242c-8.579 5.908-17.661 15.43-24.574 25.766-7.892 11.799-24.072 44.088-24.072 48.039 0 3.271 3.813 7.907 6.504 7.907 3.448 0 7.479-3.219 10.933-8.729 5.226-8.338 22.562-42.907 27.967-55.771 2.542-6.05 5.736-13.218 7.096-15.93 1.361-2.711 2.368-5.015 2.237-5.121-.13-.106-2.871 1.622-6.091 3.839zm507.244 10.207c-6.935 6.26-16.913 16.276-22.173 22.258-5.26 5.982-13.501 14.222-18.315 18.311l-15.567 13.225c-7.761 6.591-9.222 9.768-5.982 13.008 2.01 2.011 2.468 2.055 9.224.896 13.978-2.396 28.999-11.225 41.511-24.396 13.84-14.57 19.658-26.141 22.349-44.449.578-3.934 1.327-7.872 1.664-8.75.337-.879.452-1.573.256-1.542-.196.031-6.031 5.178-12.967 11.439zm-199.39-6.075c-13.878 3.94-23.334 9.057-33.169 17.947-9.991 9.031-14.92 20.287-12.327 28.145 1.489 4.511 3.473 4.423 5.891-.262 3.871-7.501 14.454-18.417 30.959-31.937 9.275-7.597 17.715-14.349 18.755-15.004 1.833-1.155 1.83-1.191-.109-1.176-1.1.009-5.6 1.038-10 2.287zm288.568 2.066c-21.97 4.993-48.03 25.75-58.68 46.731-2.78 5.483-3 8.033-.84 9.823 2.17 1.8 6.12-.241 15.27-7.885 21.38-17.869 32-24.489 59.84-37.299 9.99-4.596 17.96-8.565 17.7-8.821-1.24-1.256-10.77-3.082-18.36-3.52-5.54-.32-10.73.018-14.93.971zm-443.474 2.574c-11.005 1.837-26.888 12.323-44.481 29.368-12.25 11.867-16.113 16.835-16.113 20.722 0 3.962 3.192 6.85 7.57 6.85 4.099 0 6.443-1.485 26.93-17.059 7.7-5.854 18.05-13.508 23-17.011 4.95-3.502 11.801-8.969 15.225-12.149 3.423-3.179 7.001-5.781 7.95-5.781 4.244 0-5.369-4.319-11.675-5.245-1.925-.283-5.708-.146-8.406.305zm302.247-.568c-.27.271-4.688.726-9.817 1.012-16.686.93-26.418 4.611-40.762 15.419-10.921 8.23-22.762 21.008-31.365 33.848-7.546 11.265-14.897 25.323-14.897 28.492 0 6.706 6.348 7.857 11.335 2.055 20.072-23.351 36.519-40.015 52.165-52.855 6.6-5.417 15.375-12.961 19.5-16.765 4.125-3.804 9.412-7.752 11.75-8.772 2.338-1.02 4.25-2.096 4.25-2.39 0-.672-1.5-.702-2.159-.044zM239.616 286.84c-4.052 3.313-9.797 8.971-12.769 12.573-8.425 10.215-36.365 53.439-36.365 56.259 0 3.277 1.758 4.857 5.407 4.857 2.376 0 4.277-1.311 9.06-6.25 10.787-11.137 32.296-43.231 36.622-54.644 2.067-5.454 5.956-18.456 5.592-18.698-.1-.067-3.496 2.59-7.547 5.903zm543.866 9.54c0 1.018-2.277 4.859-5.061 8.536-9.073 11.986-29.939 53.561-29.939 59.654 0 8.272 7.885 11.304 14.066 5.409 7.32-6.981 17.931-26.232 22.452-40.735 2.416-7.748 2.655-9.731 2.107-17.477-.854-12.045-1.676-17.238-2.73-17.238-.492 0-.895.833-.895 1.851zm-239.072 4.016c-1.965.982-7.583 3.037-12.484 4.565-16.329 5.091-26.201 11.164-48.48 29.824-18.372 15.388-33.994 30.772-33.978 33.459.021 3.306 3.308 4.664 7.813 3.228 11.646-3.711 47.644-28.357 65.37-44.755 3.381-3.129 8.963-9.418 12.403-13.976 3.441-4.559 7.532-9.248 9.092-10.422 5.761-4.332 5.812-4.699.264-1.923zm284.965.675c-8.683 5.552-12.83 13.226-18.854 34.881-3.416 12.278-3.758 16.715-1.468 19.006 4.234 4.233 10.364.4 12.488-7.81.587-2.265 2.893-10.194 5.125-17.619 3.221-10.713 7.284-29.944 6.472-30.633-.086-.073-1.779.906-3.763 2.175zm-420.053 12.725c-6.413 7.828-15.149 18.87-19.413 24.537-10.492 13.945-18.753 22.683-29.992 31.722-5.189 4.174-9.435 8.183-9.435 8.909 0 5.007 9.617 3.995 22.5-2.368 21.118-10.43 39.606-34.841 45.871-60.567 1.529-6.277 3.064-16.512 2.473-16.483-.189.009-5.591 6.422-12.004 14.25zm-112.34 2.261c-2.2.725-6.043 1.353-8.54 1.395-10.289.174-22.093 5.049-35.754 14.765-13.481 9.587-16.798 14.656-12.273 18.751 2.502 2.264 5.995 1.547 16.725-3.435 12.379-5.748 22.05-12.455 30.342-21.042 4.125-4.272 8.962-8.498 10.75-9.39 1.788-.893 3.25-1.837 3.25-2.098 0-.261-.112-.427-.25-.369-.138.058-2.05.698-4.25 1.423zm423.517 1.939c-.726 1.357-3.164 3.688-5.418 5.18-6.925 4.583-14.24 12.109-29.986 30.853-19.673 23.418-21.555 25.793-26.474 33.405-13.311 20.599 6.731 11.341 33.478-15.464 18.998-19.039 26.709-31.156 28.36-44.563.5-4.058 1.212-8.391 1.582-9.628.891-2.974.107-2.863-1.542.217zm-95.517 3.839c-9.25 4.85-8.384 4.241-41.703 29.347-30.406 22.91-34.418 26.927-30.308 30.338 2.379 1.975 7.325.469 21.622-6.583 21.56-10.635 41.335-24.821 49.685-35.644 4.055-5.255 9.587-17.767 9-20.352-.205-.901-2.755-.011-8.296 2.894zm519.998 1.103c-8.56 2.122-13.67 5.486-23.5 15.468-18.03 18.318-35 48.511-35 62.281 0 2.893.57 4.166 2.38 5.353 3.05 1.999 6.32.653 9.27-3.816 1.16-1.757 6.4-9.72 11.64-17.695 9.52-14.472 14.74-21.264 28.5-37.109 4.19-4.817 8.57-11.16 10.3-14.891 1.66-3.575 3.44-7.281 3.96-8.236.52-.955.95-1.968.95-2.25 0-.786-2.98-.472-8.5.895zm-75.5 6.279c-11.13 9.509-18.87 17.39-28.8 29.312-15.2 18.24-31.66 36.381-37.67 41.516-5.861 5.011-6.841 7.711-3.453 9.524 4.133 2.211 17.343-1.824 26.593-8.123 15.33-10.435 35.24-34.614 43.85-53.257 2.65-5.719 7.48-21.289 7.48-24.077 0-1.332-1.84-.158-8 5.105zm123 1.351c-13.57 4.854-35.38 23.828-48.23 41.961-13.31 18.777-17.95 30.975-12.11 31.808 1.69.24 4.52-2.446 13-12.331 13.14-15.324 29.54-29.808 50.69-44.768 8.71-6.165 16.7-11.701 17.75-12.302 1.81-1.04 1.82-1.171.15-2.681-4.58-4.146-12.59-4.782-21.25-1.687zm-846.31 4.09c-11.754 1.511-25.923 8.335-53.688 25.858-25.304 15.969-35 23.791-35 28.234 0 4.07 3.569 5.23 9.768 3.173 10.196-3.383 60.142-32.075 72.392-41.588 7.734-6.005 17.193-17.203 14.09-16.68-.413.07-3.815.521-7.562 1.003zm640.496 8.334c-10.552 5.136-23.967 13.855-36.184 23.518-13.489 10.668-26.921 20.39-34.5 24.97-3.85 2.326-7.562 4.95-8.25 5.83-1.915 2.453-1.525 7.944.725 10.194 4.875 4.875 13.887 3.919 27.525-2.921 26.493-13.287 53.463-38.976 60.408-57.538 2.427-6.487 2.61-8.516.769-8.516-.727 0-5.449 2.009-10.493 4.463zM884.72 341.64c-6.159 3.049-11.756 9.977-17.281 21.389-5.415 11.186-7.196 18.783-5.968 25.464 1 5.442 3.889 8.036 8.947 8.036 5.246 0 7.956-3.191 9.026-10.627 1.05-7.294 4.089-15.486 8.083-21.783 3.628-5.72 12.364-15.207 16.155-17.544l2.7-1.664-4.15-2.691c-5.191-3.366-11.464-3.573-17.512-.58zm-630.344 17.517c-.766.922-3.766 3.43-6.667 5.574-7.759 5.731-13.567 13.671-20.883 28.545-4.9 9.961-7.291 16.371-9.637 25.836-2.865 11.552-2.999 12.807-1.631 15.252 1.971 3.523 4.952 3.829 7.797.8 2.919-3.107 24.562-46.848 27.739-56.06 1.313-3.809 2.408-8.309 2.432-10 .024-1.691.679-4.858 1.455-7.037 1.598-4.487 1.419-5.349-.605-2.91zm1003.104 7.672c-6.89 7.718-12.57 15.192-20.29 26.7-3.87 5.775-10.11 14.268-13.87 18.873s-6.84 9.207-6.84 10.227c0 2.76 4.21 5.13 7.65 4.303 17.45-4.21 36.8-29.876 38.89-51.609.34-3.462.24-7.922-.21-9.913l-.83-3.619-4.5 5.038zm-31.45-3.378c-.31.507-3.38 1.858-6.82 3.003-12.96 4.311-26.66 18.119-38.12 38.424-5.09 9.008-5.93 14.144-2.78 16.996 3.17 2.872 7.42 2.065 12.45-2.363 4.98-4.381 19.76-22.544 26.98-33.14 4.25-6.25 8.74-16.171 8.74-19.32 0-.772.45-1.682 1-2.022.55-.34 1-1.041 1-1.559 0-1.209-1.71-1.222-2.45-.019zm50.12 1.828c-.3 1.513-3.03 9.95-6.05 18.75-3.03 8.8-8.07 24.516-11.22 34.925-5.27 17.478-5.6 19.123-4.27 21.5 1.05 1.892 2.39 2.655 5.02 2.877 3 .253 4.03-.223 6.28-2.899 5.6-6.654 11.77-22.236 15.14-38.218 2.2-10.485 1.88-23.789-.79-32.435-1.23-3.987-2.53-7.25-2.89-7.25-.37 0-.91 1.237-1.22 2.75zm-637.185 13.165c-8.905 4.268-13.637 7.258-18.272 11.55-9.3 8.61-23.679 31.111-25.625 40.101-.499 2.305-.14 3.731 1.448 5.75 2.623 3.335 6.631 3.522 10.485.49 2.929-2.304 24.376-34.372 30.985-46.329 4.475-8.094 7.574-12.082 11.836-15.227 4.646-3.429 2.28-2.63-10.857 3.665zm174.351.652c-22.047 3.989-42.222 17.162-63.139 41.228-11.328 13.034-19.695 25.457-19.695 29.244 0 3.476 3.088 6.961 6.167 6.961 1.485 0 7.711-5.616 19.75-17.815 9.671-9.798 23.208-22.264 30.083-27.703s17.929-14.184 24.563-19.435c6.635-5.251 13.385-10.534 15-11.741l2.937-2.195-4 .034c-2.2.019-7.449.659-11.666 1.422zm-412.334 3.131c-16.425 2.178-35.82 14.089-53.01 32.556-12.273 13.184-15.078 19.807-9.031 21.325 3.261.819 7.095-1.412 20.444-11.897 6.378-5.009 17.897-13.368 25.597-18.574 18.209-12.313 31.5-22.112 31.5-23.223 0-.865-9.526-.98-15.5-.187zm-199.799 4.934c-.348.348-3.23.573-6.405.5-12.688-.293-22.958 3.167-36.93 12.442-9.259 6.146-22.756 18.346-24.915 22.521-4.323 8.36 2.016 15.909 9.865 11.747 1.201-.637 5.69-3.822 9.974-7.076 4.285-3.255 13.51-9.49 20.5-13.857 9.421-5.884 14.555-9.902 19.838-15.524 3.92-4.171 8.42-8.437 10-9.478 2.53-1.669 2.624-1.895.789-1.9-1.146-.004-2.368.278-2.716.625zm305.616 3.726c-18.749 6.224-41.466 23.466-56.84 43.142-7.667 9.813-10.877 15.809-10.877 20.319 0 4.177 3.21 7.181 7.674 7.181 2.59 0 5.413-2.314 18.639-15.282 17.065-16.731 21.061-19.991 41.087-33.527 15.804-10.683 27.664-20.927 26.072-22.519-.581-.581-4.997-1.2-9.814-1.377-7.144-.262-10.081.118-15.941 2.063zm-173.317 4.594c-24.755 5.644-38.617 13.511-58.092 32.967-11.388 11.377-23.023 25.924-30.25 37.821-5.402 8.892-4.746 14.26 1.74 14.26 2.595 0 6.438-3.479 28.55-25.847 24.837-25.123 49.741-48.838 57.244-54.511 2.031-1.535 5.856-3.637 8.5-4.67 6.103-2.384 2.715-2.393-7.692-.02zm724.948 6.643c-1.9 1.978-5.47 4.988-7.95 6.689-5.27 3.624-20.93 16.097-33 26.29-10.22 8.627-20.936 15.883-30.748 20.81-5.887 2.957-7.25 4.08-7.25 5.974 0 3.292 2.759 5.397 8.762 6.684 21.076 4.521 51.886-20.516 66.256-53.841 2.06-4.786 4.75-10.388 5.97-12.451 1.21-2.062 2.03-3.75 1.81-3.75-.22 0-1.96 1.618-3.85 3.595zm-75.194.489c-8.245 1.944-16.105 7.002-25.302 16.284-15.465 15.608-32.279 43.497-33.244 55.142-.396 4.773-.196 5.452 2.041 6.918 4.339 2.843 6.759.825 19.34-16.127 6.45-8.691 16.081-21.201 21.402-27.801 5.322-6.6 11.028-14.025 12.68-16.5 2.859-4.281 10.329-17.728 10.329-18.592 0-.604-3.006-.324-7.246.676zm-145.386 2.694c-17.064 6.101-35.079 22.882-46.751 43.547-4.831 8.553-5.805 13.282-2.96 14.374 2.327.893 4.24-.487 21.526-15.521 8.424-7.327 19.967-16.449 25.651-20.27 13.581-9.132 17.521-12.369 20.783-17.077 3.472-5.01 2.541-5.97-6.295-6.488-4.917-.288-8.255.112-11.954 1.435zm-155.105 1.736c-9.514 2.067-17.628 6.961-28.052 16.921-12.173 11.632-14.532 16.155-10.382 19.91 2.553 2.311 7.37 2.062 10.786-.556 4.835-3.704 22.748-19.403 25.016-21.922 3.987-4.429 11.287-15.867 10.076-15.788-.664.044-4.014.69-7.444 1.435zm-254.925 5.962c-1.123.786-4.92 2.517-8.44 3.846-11.609 4.384-18.587 9.024-45.398 30.187-20.705 16.343-27.994 21.248-35 23.552-6.215 2.043-6.839 4.806-1.5 6.644 8.982 3.093 25.252-3.045 47.37-17.872 21.806-14.618 33.67-25.725 39.654-37.123 1.793-3.416 3.943-7 4.779-7.966 1.998-2.312 1.116-3.076-1.465-1.268zm137.162-.542c-12.381 3.011-28.026 14.724-44.6 33.391-14.889 16.769-17.467 21.947-12.535 25.179 4.122 2.7 7.665.266 30.635-21.048 5.225-4.848 18.034-15.145 28.464-22.882 18.061-13.398 18.822-14.097 16-14.702-4.036-.865-14.297-.83-17.964.062zm755.118.178c-15.24 3.577-34.05 21.093-45.04 41.948-5.55 10.517-6.23 15.18-2.67 18.067 4.94 4.003 7.34 2.376 18.59-12.595 9.87-13.143 14.5-17.547 29.87-28.44 6.12-4.336 12.91-9.73 15.08-11.988 2.18-2.257 4.65-4.138 5.5-4.18.86-.042-1.37-.941-4.95-1.997-7.01-2.07-10.33-2.235-16.38-.815zm-604.651 2.722c-17.419 6.294-30.156 16.964-45.186 37.854-10.362 14.404-23.353 39.084-22.613 42.963.611 3.205 4.495 2.759 9.142-1.049 4.604-3.773 23.302-26.58 52.551-64.102 5.145-6.6 10.993-13.456 12.997-15.235 4.429-3.934 3.044-4.021-6.891-.431zm183.171 3.718c-12.062 8.618-17.778 14.054-30.894 29.381-18.466 21.579-24.244 29.546-24.244 33.429 0 10.986 13.555 5.551 33.347-13.371 18.233-17.43 25.553-29.261 28.192-45.564.784-4.838 1.32-8.873 1.193-8.966-.128-.093-3.545 2.198-7.594 5.091zm232.86-2.641c-1.37 1.016-5.74 3.009-9.7 4.429-14.44 5.176-30 14.574-48.41 29.224-10.97 8.741-13.33 11.537-12.5 14.842 1.71 6.814 15.12 1.67 39.34-15.092 12.46-8.617 19.91-15.712 27.71-26.376 3.59-4.916 6.43-8.924 6.3-8.906-.13.017-1.36.863-2.74 1.879zm97.12 19.161c-1.87 1.136-7.08 3.4-11.59 5.032-17.92 6.483-28.75 14.349-54.8 39.806-16.85 16.467-25.54 26.183-33.55 37.503-3.75 5.311-4.18 6.507-4.18 11.75 0 3.21.28 5.837.62 5.837.34 0 3.6-1.993 7.25-4.428 22.89-15.276 75.61-64.273 86.63-80.514 2.75-4.051 6.98-9.546 9.39-12.212 2.41-2.665 4.21-4.844 4-4.842-.21.002-1.91.933-3.77 2.068zM111.322 447.78c-6.322 6.188-12.308 12.502-13.303 14.032-.995 1.53-6.135 5.99-11.423 9.911-11.171 8.282-12.114 9.282-12.114 12.843 0 6.698 8.643 7.962 19.09 2.792 4.339-2.147 9.021-5.781 14.493-11.25 11.111-11.105 13.664-16.727 15.814-34.828.311-2.612.199-4.75-.249-4.75s-5.986 5.063-12.308 11.25zm189.16 10.513c-7.425 7.365-18.562 17.189-24.75 21.83-8.813 6.61-11.25 8.952-11.25 10.815 0 3.149 2.148 3.824 7.822 2.459 14.454-3.477 29.745-15.335 36.324-28.17 1.804-3.52 6.344-19.669 5.657-20.125-.166-.11-6.378 5.825-13.803 13.191zm1099.998-11.16c-7.2 1.927-14.53 6.441-22.98 14.156-12.81 11.692-17.03 20.203-12.19 24.586 4.3 3.895 9.57 1.588 21.69-9.493 3.29-3.008 9.81-8.463 14.48-12.12 4.68-3.658 10.48-8.46 12.9-10.67 2.42-2.211 5.34-4.333 6.5-4.715 1.56-.516.43-1.02-4.4-1.959-8.2-1.595-9.29-1.58-16 .215zm-1205.998 1.541c-4.675.483-10.975 1.571-14 2.417-15.128 4.233-44.583 22.868-51.297 32.453-3.901 5.569-.594 11.986 6.176 11.986 2.816 0 5.982-1.331 12.211-5.132 4.626-2.823 14.485-8.749 21.91-13.17 17.093-10.175 18.851-11.457 28.2-20.557 6.621-6.444 8.668-9.523 5.991-9.008-.38.073-4.516.528-9.191 1.011zm576.15 4.874c-9.521 4.32-21.28 20.388-25.552 34.914-1.87 6.355-2.122 21.103-.473 27.651 2.006 7.965 9.938 11.172 14.808 5.988 1.85-1.969 2.536-4.495 3.624-13.336 1.576-12.799 3.25-17.433 11.439-31.647 6.374-11.065 8.309-15.616 9.288-21.838l.59-3.75-4.687.022c-2.578.012-6.645.91-9.037 1.996zm566.218 1.821c-9.16 3.164-16.64 8.448-27.86 19.666-12.31 12.309-20.12 22.236-28.07 35.689-8.59 14.529-10.09 21.319-5.28 23.892 3.86 2.066 6.51.102 16.44-12.211 12.1-14.996 22.12-25.822 38.8-41.923 15.74-15.187 24.13-24.999 22.35-26.129-2.17-1.377-11.05-.826-16.38 1.016zm-733.512 1.118c-8.644 2.718-16.692 7.757-23.928 14.982-7.291 7.279-16.928 20.427-16.928 23.095 0 2.413 2.537 4.248 4.854 3.512 2.352-.746 44.612-43.585 42.868-43.455-.672.05-3.762.89-6.866 1.866zm542.642 3.97c-25.26 6.422-53.55 25.184-84.55 56.073-15.01 14.955-22.71 24.36-27.93 34.14-5.05 9.439-3.56 16.86 3.38 16.86 4.25 0 6.26-1.553 11.99-9.302 6.11-8.262 19.67-23.853 30.01-34.52 8.4-8.658 21.03-19.73 39.6-34.697 7.43-5.985 17.72-14.396 22.88-18.691 5.16-4.295 10.56-8.691 12-9.768 3.24-2.418 1.83-2.436-7.38-.095zm-503.978 10.035c-.895 1.731-4.591 6.376-8.213 10.322-3.621 3.947-9.959 11.46-14.083 16.696-4.124 5.236-14.411 16.527-22.861 25.091-15.567 15.777-17.362 18.53-14.163 21.729 4.782 4.782 26.466-5.391 39.308-18.44 9.433-9.585 16.511-21.29 19.431-32.135 1.247-4.629 3.367-25.253 2.668-25.952-.253-.252-1.192.958-2.087 2.689zm64.702 3.776c-8.679 5.749-31.649 28.798-33.837 33.953-1.44 3.393-.701 6.056 2.21 7.964 1.953 1.279 2.941 1.327 6.117.296 9.859-3.198 24.34-17.227 29.367-28.451 1.59-3.549 5.258-18.565 4.655-19.056-.129-.105-3.959 2.277-8.512 5.294zm-174.898-2.299c-11.596 3.626-24.582 15.625-33.615 31.061-4.494 7.679-10.709 22.664-10.709 25.821 0 3.13 2.348 5.06 5.265 4.327 3.07-.77 6.226-4.202 19.226-20.906 7.844-10.078 13.343-16.027 19.13-20.693 4.466-3.602 11.555-9.812 15.753-13.799l7.632-7.25-9.253.067c-5.089.037-11.132.654-13.429 1.372zm503.174-.04c-6.63 2.098-10.65 4.602-16.82 10.491-6.9 6.578-13.77 17.537-13.9 22.176-.09 3.034 2.11 5.934 4.5 5.934 1.28 0 6.13-5.453 11.56-12.969 4.14-5.742 14.73-15.364 26.56-24.139l3.9-2.892-5.9.067c-3.24.037-7.7.636-9.9 1.332zm402.08 4.601c-.99 1.925-2.58 4.4-3.53 5.5-5.59 6.525-22.79 37.562-25.12 45.352-1.09 3.644-1.05 4.451.29 5.794 2.47 2.469 5.32.818 11.19-6.468 7.31-9.088 13.97-20.356 16.64-28.178 2.12-6.179 3.66-19.297 2.77-23.53-.35-1.645-.72-1.393-2.24 1.53zm-1007.723-.029c-6.12 1.85-15.566 7.882-22.536 14.392-16.495 15.404-36.319 44.081-36.319 52.537 0 6.544 6.596 8.15 12.431 3.026 1.926-1.691 6.972-7.878 11.215-13.75 4.242-5.872 10.791-14.342 14.553-18.822 7.776-9.26 31.58-32.641 35.916-35.278 1.583-.962 2.579-2.048 2.215-2.413-.911-.911-14.219-.676-17.475.308zm44.828 7.157c-2.462 5.707-13.61 23.701-35.082 56.624-10.277 15.759-22.752 29.327-35.292 38.383-8.255 5.963-9.959 8.243-8.825 11.814 2.506 7.896 20.137-.343 37.107-17.341 17.057-17.085 31.927-42.25 38.242-64.719 3.15-11.206 7.352-30.037 6.822-30.567-.179-.18-1.516 2.433-2.972 5.806zm744.795 5.633c-19.27 20.531-17.03 17.351-48.65 69.108-7.87 12.894-12.6 18.357-18.25 21.093-2.42 1.172-4.68 2.848-5.01 3.725-2.48 6.448 9.32 10.832 18.03 6.701 4.76-2.26 13.21-11.717 18.79-21.015 6.56-10.957 27.29-52.354 33.64-67.196 2.89-6.777 6.99-14.99 9.1-18.25 2.1-3.26 3.73-5.922 3.6-5.916-.13.006-5.19 5.293-11.25 11.75zm52.52-4.215c-1.37.76-4.97 2.114-8 3.009-16.06 4.752-30.66 19.652-41.1 41.928-7.02 14.973-10.96 35.802-7.86 41.583.71 1.329 2.09 1.934 4.43 1.934 4.39 0 4.96-.832 16.82-24.568 5.25-10.487 12.99-24.359 17.21-30.828 4.21-6.468 9.68-15.663 12.14-20.432 2.46-4.77 5.62-9.708 7.03-10.973 3.08-2.768 2.76-3.552-.67-1.653zm-1090.391 7.095c-8.192 1.757-17.676 6.358-26.607 12.91-18.188 13.343-43.345 42.845-47.03 55.154-1.096 3.659-1.038 4.542.444 6.803 3.847 5.873 7.587 4.576 16.59-5.753 11.636-13.349 31.777-33.353 41.882-41.597a15058.92 15058.92 0 0020.592-16.84c6.162-5.051 12.738-9.851 14.613-10.669 3.362-1.465 3.292-1.486-5.091-1.486-4.675 0-11.602.665-15.393 1.478zm188.393 5.401c-22.445 11.493-37.578 24.3-53.124 44.955-9.099 12.089-18.876 30.419-18.876 35.387 0 6.526 6.595 8.809 11.172 3.866 1.401-1.513 5.817-7.7 9.815-13.75 8.05-12.184 14.724-20.761 26.065-33.5 4.163-4.675 12.587-14.484 18.721-21.798 6.134-7.314 13.082-14.894 15.44-16.843 8.813-7.288 8.026-7.144-9.213 1.683zm418.401-2.353c-.996 2.646-3.315 7.185-5.153 10.087-4.564 7.203-11.453 21.072-15.262 30.724-6.021 15.256-12.015 25.607-18.697 32.289-3.538 3.539-6.289 7.167-6.289 8.296 0 2.622 4.338 6.915 6.987 6.915 10.063 0 23.837-15.707 31.934-36.417 5.715-14.617 7.043-21.191 7.089-35.083.021-6.6.494-13.972 1.049-16.382 1.388-6.018.53-6.24-1.658-.429zm94.092.205c-13.821 3.732-26.694 10.144-39.128 19.491-15.401 11.577-34.365 36.158-34.365 44.542 0 3.57 3.615 6.53 6.609 5.412 1.04-.388 6.841-5.717 12.891-11.842 19.128-19.365 35.354-29.875 63.237-40.96 8.67-3.447 18.851-7.744 22.626-9.549l6.863-3.282-5.863-2.535c-7.999-3.457-22.68-4.028-32.87-1.277zm567.965 1.281c-1.11 3.529-25.11 39.53-30.74 46.087-2.71 3.169-9.16 8.94-14.33 12.823-12.2 9.17-13.61 11.822-9.23 17.391 1.96 2.49 2.64 2.706 7.31 2.318 11-.912 26.68-11.003 35.83-23.056 12.54-16.51 17.11-32.206 14.2-48.748-.8-4.554-1.65-8.474-1.89-8.711-.23-.236-.75.617-1.15 1.896zm-58.46 6.485c-8.15.562-15.4 2.506-22.44 6.018-9.1 4.536-13.44 8.07-19.16 15.614-5.91 7.785-21.52 39.623-22.14 45.136-.63 5.661 2.43 9.572 7.5 9.572 5.62 0 11.16-6.639 21.24-25.495 12.18-22.772 18.62-32.116 28-40.627 4.4-3.992 9.35-7.825 11-8.52 3.05-1.281 4.03-2.501 1.75-2.183-.69.096-3.27.314-5.75.485zM67.493 512.797c-1.92 1.228-7.811 4.07-13.093 6.315-17.57 7.467-33.373 20.805-44.522 37.574C2.035 568.484.024 574.393 0 585.703c-.016 8.28.283 10.081 2.08 12.5 2.479 3.34 6.54 4.121 9.916 1.909 2.649-1.736 4.459-6.992 4.503-13.082.073-10.001 8.143-22.584 26.933-42 7.452-7.7 15.33-16.7 17.508-20 2.178-3.3 5.759-7.913 7.958-10.25 4.417-4.694 3.92-5.393-1.406-1.983zm502.489.658c-22.204 6.321-39.147 22.081-51.015 47.452-7.572 16.189-8.231 23.933-2.217 26.048 5.678 1.997 7.688.138 14.732-13.631 7.758-15.165 13.433-23.435 26.622-38.801 16.236-18.914 19.574-22.998 18.705-22.884-.455.059-3.527.877-6.827 1.816zm-464.314 6.22c-12.563 8.235-20.648 16.48-34.67 35.355-6.537 8.8-15.177 19.459-19.201 23.687-4.023 4.227-7.315 8.353-7.315 9.168 0 2.851 1.266 4.731 4.212 6.255 5.618 2.905 13.936-.328 23.82-9.259 8.418-7.604 26.005-32.186 32.883-45.959 3.776-7.564 10.377-24.433 9.79-25.02-.155-.155-4.438 2.443-9.519 5.773zm835.314-4.597c-8.32 2.279-18.554 8.093-27.058 15.371-13.161 11.266-28.433 32.118-28.439 38.831-.004 4.109 3.292 7.674 6.339 6.856 1.187-.318 2.425-.585 2.752-.592.326-.008 4.314-4.516 8.86-10.019 9.261-11.207 19.498-21.104 31.35-30.306 4.383-3.404 11.454-9.114 15.711-12.689 4.258-3.575 8.583-7.036 9.613-7.691 2.736-1.741-12.599-1.549-19.128.239zm100.308 2.982c-13.73 3.608-25.05 13.648-36.04 31.97-7.243 12.078-12.962 30.606-11.386 36.886.37 1.475 1.786 3.189 3.146 3.809 4.72 2.153 6.8-.013 14.42-15.027 3.9-7.689 11.58-20.364 17.14-28.298 8.67-12.361 18.71-29.545 17.72-30.324-.17-.136-2.42.307-5 .984zm442.36 3.827c-.69 2.672-2.75 7.847-4.58 11.5-1.83 3.654-5.28 11.143-7.68 16.643-2.4 5.5-6.06 13.024-8.13 16.719-4.3 7.644-4.76 11.184-1.69 12.831 7.83 4.189 19.48-10.798 23.97-30.828 1.19-5.29 1.25-21.605.11-27.722l-.75-4-1.25 4.857zM212.056 525.28c-4.11 9.665-14.609 25.174-20.897 30.87-5.536 5.015-9.797 7.717-24.886 15.784-11.363 6.075-14.791 8.99-14.791 12.578 0 5.31 4.502 5.322 18.535.051 19.575-7.353 31.042-15.154 38.342-26.086 5.921-8.867 8.123-16.879 8.123-29.552 0-5.717-.35-10.395-.777-10.395-.428 0-2.07 3.038-3.649 6.75zm506.426-4.335c-19.904 5.639-40.965 25.686-53.348 50.779-5.794 11.743-6.627 16.297-3.668 20.059 2.306 2.931 6.467 3.646 10.053 1.727 1.049-.561 5.708-6.748 10.356-13.75 13.271-19.994 17.751-24.642 46.964-48.722 5.702-4.701 9.578-8.614 9.409-9.5-.381-1.995-13.436-2.386-19.766-.593zm383.068 2.878c-.07 2.895-11.43 32.487-15.79 41.13-1.37 2.708-5.82 8.417-9.88 12.687-5.35 5.616-7.4 8.491-7.4 10.392 0 10.648 11.36 9.23 23.59-2.942 9.7-9.663 14.34-21.396 14.65-37.06.14-7.248-1.89-19.127-4.29-25-.71-1.741-.82-1.638-.88.793zm-807.275 2.676c-12.188 1.244-27.447 10.62-41.896 25.743-11.044 11.56-15.64 22.402-11.326 26.717 3.744 3.743 8.562 1.187 12.513-6.638 3.012-5.967 17.656-20.104 28.416-27.433 4.95-3.372 11.745-8.544 15.099-11.494 3.355-2.95 6.955-5.9 8-6.555 1.716-1.075 1.609-1.183-1.099-1.108-1.65.046-6.018.391-9.707.768zm1033.705 4.086c-1.1.443-3.14.836-4.53.875-1.39.038-5.86 1.67-9.94 3.625-12.44 5.963-30.54 25.796-34.72 38.041-2.49 7.313-.01 15.404 4.72 15.404 2.34 0 3.73-1.88 5.34-7.23 2.48-8.255 11.26-19.045 24.72-30.41 4.9-4.13 9.81-9.45 12.59-13.622 2.5-3.765 4.38-6.99 4.18-7.166-.2-.177-1.26.041-2.36.483zm-682.638 10.604c-3.498 2.563-11.333 9.426-17.412 15.25-6.078 5.825-13.166 12.422-15.75 14.66-5.56 4.815-6.163 8.134-2.063 11.358 1.449 1.14 3.362 2.069 4.25 2.063 7.983-.048 29.48-19.135 35.116-31.179 3.176-6.786 5.113-16.811 3.248-16.811-.566 0-3.891 2.097-7.389 4.659zm870.798.782c-.43 1.618-2.49 4.993-4.55 7.5-8.07 9.782-20.11 30.803-20.11 35.118 0 2.824 2.59 7.571 4.55 8.32 6.05 2.321 11.12-.808 15.56-9.587 5.92-11.725 7.83-24.031 6.02-38.792-.61-5.01-.74-5.238-1.47-2.559zm-648.658 10.922c-4.675 3.49-11.65 9.158-15.5 12.596-3.85 3.437-11.275 9.649-16.5 13.803-11.028 8.768-12 9.817-12 12.951 0 3.524 3.741 4.84 8.32 2.927 10.864-4.539 31.204-21.104 37.749-30.742 5.241-7.718 9.344-17.913 7.2-17.89-.423.005-4.594 2.864-9.269 6.355zm102.045 1.801c-10.015 1.802-22.374 10.429-33.098 23.105-6.576 7.774-9.947 13.43-9.947 16.691 0 2.987 3.542 6.04 7.009 6.04 3.086 0 10.236-6.471 40.402-36.565l10.089-10.065-5-.003c-2.75-.002-7.005.357-9.455.797zm-167.378 11.503c-1.08 1.08-.771 2.079.833 2.695 1.02.391 1.5-.054 1.5-1.393 0-1.965-1.072-2.564-2.333-1.302zm-654.667 29.274c0 .518.45 1.219 1 1.559.55.34 1-.084 1-.941s-.45-1.559-1-1.559-1 .423-1 .941z" fill="#000"/></svg>