<svg width="24" height="24" fill="none" xmlns="http://www.w3.org/2000/svg"><path fill-rule="evenodd" clip-rule="evenodd" d="M0 12C0 5.373 5.373 0 12 0s12 5.373 12 12-5.373 12-12 12S0 18.627 0 12zm6 0c0-3.3 2.7-6 6-6s6 2.7 5.925 5.7c0 3.3-2.7 6-6 6-.6 0-1.2-.075-1.725-.225.225-.375.45-.825.6-1.275.075-.3.45-1.65.45-1.65.225.375.825.75 1.5.75 1.95 0 3.225-1.8 3.225-4.125 0-1.8-1.5-3.45-3.825-3.45-2.85 0-4.275 2.025-4.275 3.75 0 1.05.375 1.95 1.2 2.325.15.075.225 0 .3-.15.075-.075.15-.375.15-.45.053-.106.031-.137-.013-.2a.728.728 0 01-.062-.1c-.225-.3-.375-.675-.375-1.2 0-1.5 1.125-2.85 2.925-2.85 1.575 0 2.475.975 2.475 2.325 0 1.8-.75 3.225-1.875 3.225-.675 0-1.125-.525-.975-1.125a9.47 9.47 0 01.262-.951c.136-.435.263-.843.263-1.149 0-.525-.3-.9-.825-.9-.6 0-1.125.675-1.125 1.575 0 .6.225.975.225.975s-.6 2.775-.75 3.3c-.075.45-.075.9-.075 1.35-2.1-.9-3.6-3-3.6-5.475z" fill="#000"/></svg>