<svg width="353" height="203" fill="none" xmlns="http://www.w3.org/2000/svg"><path fill-rule="evenodd" clip-rule="evenodd" d="M112.324.135c-2.249.563-4.127 1.86-7.376 5.098-3.488 3.476-4.065 4.416-3.367 5.482a1.71 1.71 0 002.126.612c.309-.14 1.792-1.391 3.296-2.778a134.304 134.304 0 015.601-4.834c4.367-3.52 4.1-3.267 3.625-3.45-.741-.284-2.988-.359-3.905-.13zm14.502 6.258c-.448.345-1.337 1.018-1.977 1.496-.639.478-2.758 2.449-4.708 4.38-2.941 2.912-3.545 3.624-3.545 4.18 0 .933.812 1.228 2.114.768 2.121-.749 6.638-4.668 7.938-6.888.725-1.237 1.174-2.86 1.067-3.854l-.076-.708-.813.626zm-15.749 4.792c-2.436.657-4.965 2.3-7.756 5.043-2.608 2.563-6.298 7.416-6.957 9.15-.313.824.076 1.503.861 1.503.662 0 1.092-.408 5.537-5.244 1.406-1.531 3.499-3.644 4.65-4.697 2.398-2.194 6.408-5.31 7.162-5.566.477-.162.465-.183-.187-.333-1.093-.25-1.993-.21-3.31.144zM91.99 16.31c-3.441.927-6.97 4.882-10.161 11.386-1.825 3.72-2.043 5.15-.966 6.34.57.632 1.64.69 2.151.117.2-.224 1.458-2.263 2.795-4.53 1.337-2.269 2.967-4.834 3.623-5.701 1.978-2.616 5.852-6.823 6.411-6.963.895-.225.582-.487-.79-.658-.724-.09-1.43-.2-1.57-.244-.14-.044-.812.07-1.493.253zm44.816.793c-.531 1.1-7.692 8.206-10.233 10.155-1.277.98-2.423 1.97-2.546 2.2-.732 1.37.239 2.482 1.931 2.211 1.485-.237 4.052-1.575 5.799-3.023 2.934-2.431 4.351-4.935 4.827-8.521.143-1.083.371-2.316.506-2.74.316-.996.144-1.167-.284-.282zm-11.027 1.49c-.383.167-1.153.375-1.71.464-1.879.298-4.592 1.537-7.377 3.371-4.451 2.93-5.613 4.192-4.7 5.106.422.422 1.011.34 2.321-.324 1.627-.826 6.366-3.732 7.564-4.64.9-.682 4.856-4.309 4.677-4.288-.042.005-.391.145-.775.312zm20.388 7.928c-.288.633-.925 1.68-1.416 2.327-.491.646-2.175 2.955-3.742 5.13-2.868 3.982-4.016 5.442-6.133 7.795-1.878 2.089-2.317 3.103-1.861 4.294.184.48 1.291 1.058 2.026 1.058 1.796 0 6.716-4.87 9.406-9.311 1.695-2.799 2.2-4.574 2.319-8.14.057-1.727.063-3.403.014-3.723-.079-.513-.15-.447-.613.57zm-27.939 4.03c-1.084.725-3.333 2.634-4.999 4.243-3.201 3.093-4.661 4.285-7.677 6.266-2.522 1.657-2.907 2.044-2.907 2.928 0 1.14.698 1.623 2.287 1.583 4.92-.125 12.776-6.115 14.704-11.212.423-1.119.94-5.176.654-5.138-.05.007-.978.605-2.062 1.33zm-17.158.537c-2.4.416-6.193 2.073-9.933 4.34-2.39 1.448-3.372 2.293-3.372 2.899 0 .725 1 .501 5.31-1.191a331.544 331.544 0 016.327-2.416c2.116-.766 3.779-1.564 5.989-2.873.551-.327.97-.622.93-.657-.23-.203-4.22-.28-5.251-.102zm119.748 2.192c-3.772 1.049-8.275 4.634-9.929 7.904-.559 1.106-.62 1.397-.397 1.886.512 1.124 1.667.941 2.451-.387.854-1.446 3.097-3.553 5.349-5.025 4.412-2.882 4.838-3.188 5.194-3.731.196-.3.303-.598.237-.663-.299-.3-1.799-.292-2.905.016zm-90.854 1.767c-1.822.258-4.152 1.175-5.976 2.353-3.178 2.053-10.489 8.58-11.914 10.637-.702 1.015-.846 2.042-.332 2.368 1.044.662 2.556-.172 7.179-3.959a739.173 739.173 0 015.696-4.613c1.534-1.228 3.732-3.14 4.882-4.25 1.151-1.11 2.352-2.192 2.668-2.404l.575-.386-.691.029c-.38.015-1.319.117-2.087.225zm98.203.706c-2.148.313-4.973 1.986-7.089 4.196-2.233 2.332-2.843 3.707-2.098 4.727.466.639 1.653.558 2.421-.164.513-.483.711-.546 1.036-.334.337.22.582.075 1.522-.897 2.637-2.725 7.609-7.092 8.077-7.092.19 0 .346-.117.346-.26 0-.143-.187-.21-.414-.151-.228.06-.934.043-1.57-.037-.635-.08-1.639-.075-2.231.012zm11.254 1.192c-.277 1.039-4.96 8.286-8.079 12.507-.994 1.343-2.837 3.45-4.098 4.679-2.084 2.034-2.96 2.769-5.615 4.712-1.463 1.07-1.043 2.247.798 2.24 1.228-.006 4.43-1.235 6.4-2.458 3.396-2.11 6.87-6.24 8.806-10.472 1.283-2.805 1.944-5.731 2.082-9.217.064-1.639.084-2.98.044-2.98-.04 0-.192.446-.338.99zm-140.728 1.56c-4.088 1.49-6.658 3.318-10.35 7.36-3.479 3.81-4.28 5.38-3.034 5.948.475.217.734.16 1.596-.345 1.06-.622 8.152-6.939 10.354-9.224 1.296-1.344 3.661-4.446 3.355-4.4-.098.014-.962.312-1.921.661zm58.009 4.39c-2.402 1.891-11.523 10.77-12.334 12.008-.297.454-.316.667-.098 1.075.388.725 1.732.522 4.011-.606 3.888-1.925 7.489-5.505 9.334-9.279.997-2.038 2.108-5.273 1.797-5.23-.084.01-1.303.925-2.71 2.032zm-78.259 1.406c-3.222 1.607-4.902 2.858-7.294 5.434-2.199 2.367-5.15 6.19-5.571 7.215-.434 1.056-.124 1.808.744 1.808.455 0 1.13-.387 2.168-1.245 2.39-1.973 8.565-8.702 10.19-11.107.816-1.205 1.748-2.478 2.073-2.83.324-.352.543-.635.488-.63-.056.006-1.315.616-2.798 1.355zm120.882 2.228c-3.062 1.169-7.399 5.42-7.399 7.253 0 .74.472 1.253 1.151 1.253.138 0 1.217-.906 2.398-2.014 2.454-2.303 3.75-3.192 6.216-4.264.96-.417 1.868-.858 2.02-.98.152-.12.57-.302.93-.402l.654-.181-.93-.42c-1.207-.546-3.909-.677-5.04-.245zm11.318 2.182c-.767.232-1.896.645-2.507.92-4.808 2.156-10.84 8.15-13.596 13.511-.829 1.61-.997 2.15-.939 3.011.079 1.195.497 1.594 1.426 1.36.441-.11 1.272-1.041 2.946-3.3 4.042-5.456 7.813-8.665 13.145-11.188a110.74 110.74 0 004.756-2.43c1.343-.735 2.808-1.42 3.255-1.522.812-.185.81-.186-.465-.364-.703-.098-2.482-.233-3.952-.299-2.164-.097-2.94-.04-4.069.301zm-47.314 2.271c-1.087 1.203-2.787 2.87-3.777 3.706-2.2 1.858-2.634 2.455-2.277 3.123.995 1.86 7.101-2.046 8.015-5.126.372-1.254.503-3.95.189-3.91-.096.01-1.063 1.005-2.15 2.207zm-36.055 0c-.168.204-.782.693-1.365 1.088-1.856 1.259-3.717 2.981-5.19 4.803-1.983 2.452-4.377 4.917-6.507 6.7-1.956 1.637-2.348 2.363-1.677 3.105 1.776 1.964 8.09-2.19 12.144-7.986 1.139-1.628 2.017-3.755 2.381-5.76.148-.82.37-1.677.491-1.905.274-.512.131-.535-.277-.044zm120.983 3.334c-1.64.42-3.471 1.556-5.251 3.258-3.169 3.028-4.506 5.352-3.603 6.256.599.6 1.528.298 3.135-1.019 2.746-2.249 4.333-3.384 5.697-4.074 1.369-.693 5.249-2.106 7.281-2.652.96-.258 1.04-.316.46-.332-.386-.011-1.482-.348-2.435-.749-1.831-.77-3.908-1.04-5.284-.688zm-108.123 1.095c-1.961.426-3.443 1.215-5.062 2.694-1.658 1.516-2.666 2.873-2.666 3.59 0 .683.955 1.348 1.628 1.134.798-.253 5.511-4.464 6.507-5.813.507-.687 1.029-1.315 1.16-1.396.274-.17.323-.6.063-.555-.096.017-.83.172-1.63.346zm-39.232.137c-3.41 1.191-5.487 2.46-10.58 6.462a566.596 566.596 0 01-6.016 4.655c-4.11 3.123-5.376 4.327-5.376 5.11 0 1.237 1.278 1.782 3.29 1.405 2.463-.462 6.092-2.495 11.125-6.233 4.84-3.594 7.42-6.712 8.446-10.205.451-1.536.376-1.636-.889-1.194zm66.379 2.253c-2.12 2.171-7.189 6.65-9.416 8.319-2.928 2.194-5.053 4.348-4.958 5.023.068.475.194.525 1.268.498 2.43-.06 6.696-1.916 9.348-4.065 1.768-1.433 3.321-3.475 3.978-5.231.395-1.057 1.276-5.685 1.107-5.816-.027-.02-.624.552-1.327 1.272zm98.814.191c-1.617 1.762-3.029 3.498-4.123 5.07-2.376 3.413-3.617 4.798-5.291 5.911-.894.594-1.662 1.269-1.707 1.5-.377 1.961 1.912 2.627 4.53 1.318 3.782-1.891 7.26-6.751 7.675-10.724.134-1.282-.242-3.485-.592-3.464-.079.005-.301.18-.492.39zM81.72 58.77c-3.435.267-5.74.866-8.27 2.148-2.562 1.3-6.597 4.706-8.77 7.404-1.284 1.594-1.133 3.001.322 3.001.449 0 1.503-.709 3.731-2.51 3.613-2.92 4.425-3.505 8.337-6.01 4.139-2.65 5.497-3.387 7.086-3.842 1.605-.46 1.313-.483-2.436-.191zm29.213 1.685c-1.994 1.374-4.106 3.59-5.713 5.995-1.835 2.745-5.597 10.258-5.597 11.177 0 .761.886 1.84 1.512 1.84.802 0 1.739-.749 2.542-2.031 1.215-1.94 5.246-9.984 6.502-12.977.592-1.407 1.334-3.075 1.65-3.706.317-.63.551-1.167.52-1.192-.03-.024-.667.378-1.416.894zm117.936 2.374c-1.613 1.457-3.933 3.787-5.156 5.18-1.223 1.391-3.139 3.309-4.258 4.26l-3.619 3.077c-1.805 1.534-2.144 2.273-1.391 3.027.467.468.574.478 2.144.208 3.25-.557 6.743-2.612 9.652-5.676 3.218-3.39 4.57-6.082 5.196-10.342.134-.916.309-1.832.387-2.036.078-.205.105-.366.059-.36-.045.008-1.402 1.206-3.014 2.663zm-46.359-1.413c-3.227.917-5.425 2.107-7.712 4.176-2.323 2.101-3.469 4.72-2.866 6.549.346 1.05.808 1.029 1.37-.061.9-1.746 3.36-4.286 7.198-7.431 2.156-1.768 4.119-3.34 4.36-3.491.427-.27.426-.278-.025-.274-.256.002-1.302.241-2.325.532zm67.094.48c-5.108 1.162-11.168 5.992-13.643 10.874-.647 1.276-.698 1.869-.197 2.285.504.42 1.423-.056 3.55-1.834 4.971-4.158 7.441-5.698 13.914-8.679 2.323-1.07 4.175-1.993 4.116-2.052-.289-.292-2.505-.717-4.27-.82-1.289-.074-2.495.005-3.47.227zm-103.11.6c-2.559.427-6.252 2.867-10.342 6.833-2.848 2.761-3.746 3.917-3.746 4.821 0 .922.742 1.594 1.76 1.594.953 0 1.498-.345 6.261-3.969a245.634 245.634 0 015.348-3.958c1.151-.815 2.743-2.087 3.539-2.827.796-.74 1.628-1.345 1.849-1.345.987 0-1.248-1.005-2.715-1.22-.447-.066-1.327-.034-1.954.07zm70.273-.133c-.063.063-1.09.17-2.282.236-3.88.216-6.143 1.073-9.478 3.588-2.539 1.914-5.292 4.888-7.292 7.875-1.755 2.621-3.464 5.892-3.464 6.63 0 1.56 1.476 1.828 2.636.478 4.667-5.433 8.491-9.31 12.128-12.298 1.535-1.26 3.575-3.016 4.534-3.901.959-.885 2.188-1.804 2.732-2.041.544-.238.988-.488.988-.556 0-.157-.349-.164-.502-.01zm-161.056 4.38c-.942.77-2.278 2.087-2.969 2.925-1.959 2.376-8.455 12.434-8.455 13.09 0 .762.41 1.13 1.258 1.13.552 0 .994-.305 2.106-1.454 2.508-2.592 7.509-10.06 8.515-12.715.48-1.269 1.385-4.294 1.3-4.35-.023-.016-.813.602-1.755 1.373zm126.45 2.219c0 .237-.529 1.13-1.176 1.986-2.11 2.789-6.961 12.462-6.961 13.88 0 1.925 1.833 2.63 3.27 1.259 1.702-1.625 4.169-6.104 5.22-9.478.562-1.803.617-2.265.49-4.067-.198-2.802-.39-4.01-.635-4.01-.114 0-.208.193-.208.43zm-55.585.934c-.456.229-1.763.707-2.902 1.063-3.797 1.184-6.092 2.597-11.272 6.939-4.271 3.58-7.904 7.16-7.9 7.785.005.77.769 1.085 1.817.751 2.707-.863 11.077-6.598 15.198-10.413.787-.728 2.084-2.192 2.884-3.252.8-1.061 1.751-2.152 2.114-2.425 1.34-1.008 1.351-1.094.061-.448zm66.255.157c-2.018 1.292-2.983 3.078-4.383 8.116-.794 2.857-.874 3.89-.341 4.423.984.985 2.409.093 2.903-1.818.137-.527.673-2.371 1.192-4.1.749-2.492 1.693-6.966 1.504-7.127-.02-.017-.413.211-.875.506zm-97.663 2.961c-1.49 1.822-3.522 4.39-4.513 5.71-2.44 3.244-4.36 5.277-6.974 7.38-1.206.972-2.193 1.904-2.193 2.073 0 1.165 2.236.93 5.231-.55 4.91-2.428 9.209-8.107 10.665-14.093.356-1.46.713-3.842.575-3.835-.044.002-1.3 1.494-2.79 3.315zm-26.12.526c-.51.169-1.404.315-1.985.325-2.392.04-5.136 1.175-8.313 3.435-3.134 2.231-3.905 3.41-2.853 4.363.582.527 1.394.36 3.889-.799 2.878-1.337 5.126-2.898 7.054-4.896.96-.994 2.084-1.977 2.5-2.185.415-.208.755-.427.755-.488 0-.06-.026-.1-.058-.086a60.94 60.94 0 01-.988.331zm98.47.451c-.169.316-.736.859-1.26 1.206-1.61 1.066-3.311 2.817-6.972 7.178-4.574 5.45-5.012 6.002-6.155 7.773-3.095 4.793 1.565 2.639 7.783-3.598 4.418-4.43 6.21-7.25 6.594-10.369.117-.944.282-1.952.368-2.24.207-.692.025-.666-.358.05zm-22.208.894c-2.151 1.128-1.95.987-9.696 6.828-7.07 5.33-8.003 6.265-7.047 7.059.553.46 1.703.11 5.027-1.532 5.013-2.474 9.611-5.775 11.552-8.293.943-1.223 2.229-4.134 2.092-4.736-.047-.21-.64-.002-1.928.674zm120.901.256c-1.991.494-3.179 1.277-5.464 3.6-4.192 4.262-8.138 11.287-8.138 14.49 0 .674.132.97.553 1.246.709.465 1.469.152 2.155-.888.27-.408 1.488-2.261 2.707-4.117 2.213-3.367 3.426-4.948 6.627-8.634.973-1.121 1.993-2.597 2.395-3.465.385-.832.799-1.694.92-1.916.122-.223.221-.458.221-.524 0-.183-.694-.11-1.976.208zm-17.554 1.461c-2.587 2.213-4.388 4.047-6.697 6.82-3.533 4.245-7.36 8.465-8.757 9.66-1.364 1.166-1.592 1.794-.804 2.216.961.515 4.033-.424 6.184-1.89 3.564-2.428 8.192-8.054 10.195-12.391.615-1.331 1.739-4.954 1.739-5.603 0-.31-.428-.036-1.86 1.188zm28.598.315c-3.156 1.13-8.227 5.544-11.215 9.763-3.094 4.369-4.173 7.207-2.815 7.401.393.056 1.052-.57 3.023-2.87 3.055-3.565 6.868-6.935 11.785-10.416 2.026-1.434 3.883-2.722 4.127-2.862.422-.242.423-.273.035-.624-1.065-.965-2.928-1.113-4.94-.392zm-196.77.951c-2.733.352-6.027 1.94-12.482 6.017-5.884 3.716-8.138 5.535-8.138 6.57 0 .946.83 1.216 2.271.738 2.37-.788 13.983-7.464 16.831-9.677 1.799-1.397 3.998-4.003 3.276-3.881-.096.016-.887.121-1.758.233zm148.917 1.94c-2.453 1.194-5.572 3.223-8.413 5.471-3.136 2.483-6.259 4.745-8.021 5.81-.895.542-1.758 1.152-1.918 1.357-.446.57-.355 1.848.168 2.372 1.134 1.134 3.229.912 6.4-.68 6.16-3.091 12.43-9.069 14.045-13.388.564-1.509.607-1.981.179-1.981-.169 0-1.267.467-2.44 1.038zm-23.703-.315c-1.432.71-2.733 2.321-4.018 4.977-1.259 2.602-1.673 4.37-1.387 5.924.232 1.267.904 1.87 2.08 1.87 1.22 0 1.85-.742 2.099-2.472.244-1.698.95-3.604 1.879-5.069.843-1.33 2.875-3.538 3.756-4.082l.628-.387-.965-.626c-1.207-.783-2.666-.831-4.072-.135zM59.143 83.568c-.178.214-.876.798-1.55 1.297-1.804 1.333-3.155 3.18-4.856 6.641-1.139 2.318-1.695 3.81-2.24 6.012-.666 2.688-.697 2.98-.38 3.549.459.819 1.152.89 1.813.186.68-.723 5.711-10.9 6.45-13.044.305-.886.56-1.934.565-2.327.006-.393.158-1.13.339-1.637.371-1.044.33-1.245-.141-.677zm233.224 1.785c-1.602 1.796-2.923 3.535-4.717 6.212-.9 1.344-2.352 3.32-3.226 4.392-.874 1.071-1.589 2.142-1.589 2.38 0 .641.979 1.193 1.777 1 4.059-.98 8.556-6.951 9.044-12.008.078-.805.055-1.843-.051-2.306l-.191-.843-1.047 1.173zm-7.312-.786c-.073.118-.787.432-1.586.699-3.012 1.003-6.198 4.215-8.864 8.94-1.183 2.096-1.378 3.29-.645 3.954.738.669 1.726.48 2.895-.55 1.158-1.019 4.594-5.245 6.271-7.71.99-1.455 2.034-3.763 2.034-4.496 0-.18.104-.391.232-.47.128-.08.233-.242.233-.363 0-.281-.397-.284-.57-.004zm11.653.425c-.071.352-.705 2.315-1.408 4.363a276.522 276.522 0 00-2.607 8.126c-1.227 4.067-1.303 4.449-.994 5.003.245.44.556.617 1.168.669.697.059.936-.052 1.46-.675 1.302-1.548 2.736-5.173 3.519-8.892.514-2.44.439-5.535-.182-7.547-.287-.927-.59-1.687-.674-1.687-.084 0-.211.288-.282.64zm-148.147 3.063c-2.071.993-3.171 1.69-4.249 2.688-2.162 2.003-5.505 7.239-5.957 9.33-.116.537-.033.868.336 1.338.61.776 1.542.82 2.438.114.681-.536 5.667-7.997 7.204-10.78 1.041-1.883 1.761-2.81 2.752-3.543 1.08-.797.53-.611-2.524.853zm40.537.152c-5.126.928-9.817 3.993-14.68 9.593-2.634 3.032-4.579 5.923-4.579 6.804 0 .809.718 1.62 1.433 1.62.346 0 1.793-1.307 4.592-4.145 2.249-2.28 5.396-5.18 6.995-6.446l5.711-4.522a292.144 292.144 0 013.487-2.732l.683-.51-.93.007c-.511.004-1.732.153-2.712.331zm-95.869.729c-3.819.506-8.328 3.278-12.325 7.574-2.853 3.068-3.505 4.609-2.1 4.962.759.191 1.65-.328 4.754-2.768 1.483-1.165 4.16-3.11 5.951-4.322 4.234-2.865 7.324-5.145 7.324-5.403 0-.201-2.215-.228-3.604-.043zm-46.454 1.147c-.08.082-.75.134-1.489.117-2.95-.068-5.337.737-8.586 2.895-2.153 1.43-5.29 4.269-5.793 5.24-1.005 1.945.469 3.702 2.294 2.733.279-.148 1.323-.889 2.319-1.646.996-.758 3.14-2.208 4.766-3.224 2.19-1.37 3.384-2.304 4.612-3.612.912-.971 1.958-1.964 2.325-2.206.589-.388.61-.44.184-.442-.267 0-.55.065-.632.145zm71.057.868c-4.359 1.448-9.641 5.46-13.216 10.038-1.782 2.283-2.529 3.678-2.529 4.727 0 .972.747 1.671 1.785 1.671.602 0 1.258-.538 4.333-3.556 3.968-3.892 4.897-4.651 9.553-7.8 3.675-2.486 6.432-4.87 6.062-5.24-.135-.135-1.162-.28-2.282-.32-1.661-.062-2.344.027-3.706.48zm-40.297 1.068c-5.755 1.314-8.978 3.144-13.506 7.671-2.648 2.647-5.353 6.032-7.033 8.8-1.257 2.069-1.104 3.318.404 3.318.603 0 1.497-.809 6.638-6.014 5.775-5.845 11.565-11.363 13.31-12.683.472-.358 1.36-.847 1.976-1.087 1.419-.555.63-.557-1.789-.005zm168.552 1.546c-.441.46-1.272 1.16-1.848 1.556-1.226.844-4.865 3.746-7.672 6.118-2.376 2.007-4.868 3.695-7.15 4.842-1.368.688-1.685.949-1.685 1.39 0 .765.641 1.255 2.037 1.555 4.901 1.052 12.064-4.774 15.405-12.528.48-1.113 1.104-2.417 1.387-2.897.283-.48.472-.872.421-.872-.052 0-.454.376-.895.836zm-17.482.114c-1.917.452-3.745 1.629-5.883 3.789-3.596 3.631-7.505 10.12-7.73 12.83-.092 1.111-.045 1.269.475 1.61 1.009.661 1.571.192 4.497-3.753 1.499-2.022 3.738-4.933 4.976-6.468 1.237-1.536 2.564-3.264 2.948-3.84.664-.996 2.401-4.124 2.401-4.325 0-.141-.699-.076-1.684.157zm-33.803.627c-3.967 1.42-8.156 5.324-10.87 10.132-1.123 1.99-1.349 3.09-.688 3.345.541.207.986-.114 5.005-3.612 1.958-1.705 4.642-3.827 5.964-4.716 3.157-2.125 4.073-2.878 4.832-3.974.807-1.165.591-1.389-1.464-1.51-1.143-.066-1.919.027-2.779.335zm-36.062.404c-2.212.48-4.099 1.62-6.522 3.937-2.831 2.706-3.379 3.759-2.414 4.632.593.538 1.713.48 2.507-.129 1.125-.862 5.289-4.515 5.817-5.1.927-1.031 2.624-3.693 2.342-3.674-.154.01-.933.16-1.73.334zm-59.271 1.387c-.261.183-1.144.586-1.962.895-2.7 1.02-4.322 2.1-10.555 7.023-4.814 3.803-6.51 4.944-8.138 5.48-1.445.476-1.59 1.119-.349 1.546 2.089.72 5.871-.708 11.014-4.158 5.07-3.401 7.828-5.986 9.22-8.638.416-.794.916-1.628 1.11-1.853.465-.538.26-.716-.34-.295zm31.891-.126c-2.879.7-6.517 3.426-10.37 7.769-3.462 3.902-4.061 5.107-2.915 5.859.959.628 1.783.061 7.123-4.898 1.215-1.128 4.193-3.524 6.618-5.324 4.199-3.117 4.376-3.28 3.72-3.42-.938-.202-3.324-.194-4.176.014zm175.566.041c-3.543.832-7.915 4.908-10.472 9.76-1.289 2.448-1.449 3.532-.62 4.204 1.149.932 1.707.553 4.322-2.93 2.295-3.058 3.37-4.083 6.945-6.618 1.423-1.009 3.001-2.264 3.507-2.789.505-.525 1.081-.963 1.279-.973.197-.01-.321-.218-1.152-.464-1.63-.482-2.402-.52-3.809-.19zm-140.583.633c-4.05 1.465-7.011 3.948-10.505 8.808-2.41 3.352-5.43 9.094-5.258 9.997.142.745 1.045.642 2.126-.244 1.07-.878 5.417-6.185 12.218-14.915 1.196-1.536 2.556-3.131 3.022-3.545 1.029-.916.707-.936-1.603-.1zm42.588.866c-2.804 2.005-4.133 3.27-7.183 6.836-4.293 5.021-5.637 6.874-5.637 7.778 0 2.556 3.152 1.292 7.754-3.111 4.239-4.056 5.941-6.808 6.554-10.602.183-1.126.307-2.064.278-2.086-.03-.022-.825.511-1.766 1.185zm54.141-.615c-.32.236-1.335.7-2.256 1.03-3.356 1.205-6.976 3.392-11.254 6.8-2.553 2.034-3.1 2.685-2.908 3.454.398 1.585 3.516.388 9.148-3.512 2.896-2.005 4.629-3.656 6.442-6.137.835-1.144 1.494-2.076 1.464-2.072-.03.004-.316.2-.636.437zm22.579 4.458c-.433.265-1.645.791-2.694 1.171-4.166 1.509-6.684 3.339-12.74 9.262-3.918 3.832-5.939 6.092-7.8 8.726-.873 1.236-.973 1.514-.973 2.734 0 .747.065 1.358.144 1.358.078 0 .837-.463 1.685-1.03 5.322-3.554 17.58-14.955 20.143-18.734.639-.942 1.621-2.221 2.182-2.841.561-.62.98-1.127.93-1.127-.049.001-.444.217-.877.481zm-259.769 2.834c-1.47 1.44-2.861 2.909-3.093 3.265-.23.356-1.426 1.394-2.655 2.306-2.598 1.927-2.817 2.16-2.817 2.988 0 1.559 2.01 1.853 4.439.65 1.008-.5 2.097-1.345 3.37-2.618 2.583-2.584 3.176-3.892 3.676-8.103.072-.608.046-1.106-.058-1.106-.104 0-1.392 1.178-2.861 2.618zm43.98 2.446c-1.726 1.714-4.315 4-5.754 5.079-2.049 1.538-2.615 2.083-2.615 2.517 0 .732.499.89 1.818.572 3.36-.809 6.916-3.568 8.446-6.555.419-.819 1.475-4.576 1.315-4.682-.039-.026-1.483 1.355-3.21 3.069zm255.753-2.597c-1.674.449-3.378 1.499-5.344 3.294-2.978 2.721-3.959 4.701-2.833 5.721 1 .906 2.226.369 5.043-2.209.765-.7 2.28-1.969 3.367-2.82 1.087-.851 2.436-1.969 2.998-2.483.562-.514 1.242-1.008 1.511-1.097.364-.12.101-.237-1.022-.456-1.906-.371-2.16-.367-3.72.05zm-280.398.359c-1.087.112-2.551.365-3.255.562-3.517.985-10.365 5.321-11.926 7.551-.907 1.296-.138 2.789 1.436 2.789.654 0 1.39-.309 2.839-1.194a666.66 666.66 0 015.094-3.064c3.974-2.368 4.383-2.666 6.556-4.783 1.54-1.5 2.016-2.216 1.393-2.096-.088.017-1.05.123-2.137.235zm133.957 1.134c-2.214 1.005-4.948 4.744-5.941 8.124-.435 1.478-.494 4.91-.11 6.433.466 1.854 2.31 2.6 3.443 1.394.43-.458.589-1.046.842-3.103.367-2.978.756-4.057 2.66-7.364 1.482-2.574 1.932-3.633 2.159-5.081l.137-.873-1.089.006c-.6.002-1.545.211-2.101.464zm131.647.424c-2.129.736-3.87 1.965-6.478 4.576-2.863 2.864-4.678 5.173-6.526 8.304-1.996 3.38-2.345 4.96-1.227 5.559.897.48 1.512.023 3.822-2.842 2.813-3.489 5.143-6.008 9.021-9.754 3.659-3.534 5.61-5.817 5.196-6.08-.504-.32-2.569-.192-3.808.237zm-170.544.26c-2.009.632-3.881 1.805-5.563 3.486-1.695 1.693-3.936 4.753-3.936 5.373 0 .562.59.989 1.129.818.547-.174 10.372-10.142 9.967-10.111-.157.011-.875.207-1.597.434zm126.166.924c-5.872 1.494-12.45 5.859-19.658 13.046-3.49 3.48-5.28 5.668-6.495 7.944-1.173 2.196-.827 3.923.786 3.923.99 0 1.456-.361 2.789-2.164 1.421-1.923 4.573-5.55 6.978-8.032 1.951-2.015 4.889-4.591 9.206-8.074a521.078 521.078 0 005.32-4.349c1.199-.999 2.454-2.022 2.79-2.272.752-.563.425-.567-1.716-.022zm-117.176 2.334c-.208.403-1.068 1.484-1.91 2.402-.842.919-2.315 2.667-3.274 3.885-.959 1.218-3.351 3.845-5.315 5.838-3.62 3.671-4.037 4.312-3.293 5.056 1.112 1.113 6.153-1.255 9.139-4.291 2.193-2.23 3.839-4.953 4.518-7.477.29-1.077.783-5.876.62-6.038-.059-.059-.277.223-.485.625zm15.043.879c-2.018 1.338-7.358 6.701-7.867 7.9-.335.79-.163 1.409.514 1.853.454.298.684.309 1.422.069 2.292-.744 5.659-4.008 6.828-6.62.37-.826 1.222-4.319 1.082-4.434-.03-.024-.92.53-1.979 1.232zm-40.664-.535c-2.696.844-5.715 3.636-7.816 7.227-1.044 1.787-2.489 5.274-2.489 6.008 0 .729.545 1.178 1.224 1.007.713-.179 1.447-.978 4.47-4.864 1.824-2.345 3.102-3.729 4.448-4.815a72.864 72.864 0 003.662-3.211l1.775-1.687-2.152.016c-1.183.009-2.588.152-3.122.319zm116.99-.009c-1.543.488-2.476 1.071-3.912 2.441-1.604 1.53-3.2 4.08-3.231 5.16-.02.706.491 1.38 1.046 1.38.297 0 1.426-1.268 2.687-3.017.963-1.336 3.424-3.575 6.176-5.617l.907-.673-1.372.016c-.754.009-1.79.148-2.301.31zm93.485 1.07c-.233.448-.602 1.024-.821 1.28-1.302 1.518-5.299 8.74-5.842 10.552-.254.848-.244 1.036.068 1.349.574.574 1.237.19 2.601-1.505 1.7-2.115 3.248-4.737 3.871-6.557.491-1.437.85-4.49.642-5.475-.081-.382-.167-.324-.519.356zm-234.3-.006c-1.422.43-3.618 1.834-5.239 3.348-3.835 3.584-8.444 10.257-8.444 12.224 0 1.523 1.533 1.897 2.89.705.448-.394 1.621-1.834 2.608-3.2.986-1.366 2.508-3.337 3.383-4.379 1.808-2.155 7.343-7.595 8.351-8.209.368-.223.599-.476.515-.561-.212-.212-3.306-.157-4.063.072zm10.423 1.665c-.572 1.328-3.164 5.515-8.156 13.175-2.39 3.667-5.29 6.824-8.206 8.931-1.92 1.387-2.315 1.918-2.052 2.749.583 1.837 4.682-.08 8.628-4.035 3.966-3.975 7.423-9.831 8.891-15.059.733-2.607 1.71-6.989 1.586-7.112-.041-.042-.352.566-.691 1.351zm173.167 1.311c-4.481 4.777-3.961 4.037-11.31 16.079-1.831 3.001-2.93 4.272-4.245 4.908-.562.273-1.087.663-1.165.867-.575 1.5 2.168 2.52 4.192 1.559 1.107-.526 3.073-2.726 4.369-4.89 1.527-2.549 6.345-12.181 7.821-15.635.674-1.576 1.626-3.487 2.116-4.246.49-.758.867-1.378.838-1.376-.03.001-1.206 1.231-2.616 2.734zm12.211-.981c-.32.177-1.156.492-1.86.7-3.733 1.106-7.13 4.573-9.557 9.756-1.631 3.483-2.546 8.33-1.827 9.675.165.309.487.45 1.03.45 1.02 0 1.153-.194 3.912-5.716 1.22-2.44 3.019-5.668 4-7.173.981-1.505 2.251-3.645 2.823-4.754.572-1.11 1.308-2.259 1.635-2.554.716-.644.642-.826-.156-.384zm-253.519 1.651c-1.904.408-4.11 1.479-6.186 3.004-4.228 3.104-10.078 9.969-10.934 12.833-.255.851-.242 1.056.103 1.582.894 1.367 1.764 1.065 3.857-1.338 2.706-3.106 7.388-7.761 9.738-9.679 1.2-.98 3.355-2.743 4.788-3.918 1.432-1.175 2.961-2.292 3.397-2.482.782-.341.766-.346-1.184-.346-1.087 0-2.697.154-3.579.344zm43.802 1.256c-5.218 2.675-8.737 5.654-12.351 10.46-2.116 2.813-4.389 7.078-4.389 8.234 0 1.518 1.533 2.05 2.598.9.325-.352 1.352-1.792 2.282-3.2 1.871-2.835 3.423-4.83 6.06-7.794a283.84 283.84 0 004.352-5.072c1.427-1.702 3.042-3.466 3.59-3.919 2.05-1.696 1.866-1.662-2.142.391zm97.279-.547c-.231.616-.77 1.672-1.198 2.347-1.061 1.676-2.662 4.903-3.548 7.149-1.4 3.549-2.794 5.958-4.347 7.513-.823.823-1.462 1.667-1.462 1.93 0 .61 1.008 1.609 1.624 1.609 2.34 0 5.542-3.655 7.425-8.474 1.329-3.401 1.637-4.93 1.648-8.163.005-1.535.115-3.251.244-3.811.323-1.401.123-1.452-.386-.1zm21.877.048c-3.213.868-6.206 2.36-9.097 4.535-3.581 2.693-7.99 8.413-7.99 10.364 0 .83.84 1.519 1.536 1.259.242-.09 1.591-1.33 2.998-2.756 4.447-4.505 8.219-6.951 14.702-9.53 2.016-.802 4.383-1.802 5.261-2.222l1.596-.763-1.364-.59c-1.859-.805-5.273-.938-7.642-.297zm132.053.298c-.257.821-5.839 9.197-7.146 10.723-.632.737-2.132 2.08-3.333 2.984-2.837 2.133-3.164 2.75-2.145 4.046.455.579.613.63 1.699.539 2.557-.212 6.204-2.56 8.331-5.364 2.914-3.842 3.977-7.494 3.301-11.343-.186-1.059-.383-1.971-.438-2.027-.055-.054-.176.144-.269.442zm-13.591 1.509c-1.896.13-3.581.583-5.219 1.4-2.115 1.055-3.124 1.877-4.454 3.633-1.374 1.811-5.004 9.219-5.147 10.502-.147 1.317.565 2.227 1.743 2.227 1.308 0 2.594-1.545 4.939-5.932 2.832-5.299 4.329-7.473 6.51-9.453 1.023-.929 2.174-1.821 2.557-1.982.709-.298.937-.582.407-.508a33.1 33.1 0 01-1.336.113zm-307.83 2.235c-.447.286-1.817.947-3.045 1.469-4.085 1.738-7.76 4.841-10.351 8.743-1.824 2.745-2.292 4.12-2.297 6.751-.004 1.927.066 2.346.484 2.909.576.777 1.52.959 2.305.444.616-.404 1.037-1.627 1.047-3.044.017-2.327 1.893-5.255 6.262-9.772 1.733-1.792 3.565-3.886 4.07-4.654.507-.768 1.34-1.841 1.851-2.385 1.027-1.092.912-1.255-.327-.461zm116.829.153c-5.162 1.471-9.102 5.138-11.861 11.041-1.761 3.767-1.914 5.569-.516 6.061 1.321.464 1.788.032 3.426-3.172 1.803-3.528 3.123-5.453 6.189-9.028 3.775-4.401 4.551-5.351 4.349-5.325-.105.014-.82.204-1.587.423zm-107.954 1.447c-2.921 1.916-4.8 3.835-8.06 8.226-1.52 2.048-3.53 4.528-4.465 5.512-.935.983-1.7 1.943-1.7 2.133 0 .663.293 1.101.978 1.455 1.307.676 3.24-.076 5.539-2.154 1.957-1.769 6.046-7.489 7.645-10.693.878-1.76 2.413-5.685 2.276-5.822-.036-.036-1.032.568-2.213 1.343zm194.212-1.069c-1.934.53-4.313 1.883-6.291 3.576-3.06 2.621-6.61 7.473-6.612 9.035-.001.956.766 1.786 1.474 1.595.276-.074.564-.136.64-.137.076-.002 1.003-1.051 2.06-2.332a45.594 45.594 0 017.289-7.051 149.08 149.08 0 003.653-2.953c.99-.831 1.995-1.637 2.235-1.789.636-.405-2.93-.36-4.448.056zm23.323.693c-3.194.84-5.826 3.176-8.38 7.439-1.684 2.81-3.014 7.121-2.647 8.583.086.343.415.742.731.886 1.099.501 1.582-.003 3.353-3.497.907-1.789 2.693-4.738 3.986-6.584 2.015-2.876 4.35-6.874 4.12-7.056-.04-.031-.563.072-1.163.229zm102.848.891c-.159.622-.638 1.826-1.063 2.676-.426.85-1.23 2.592-1.787 3.872-.557 1.28-1.407 3.03-1.89 3.89-.999 1.779-1.107 2.602-.392 2.986 1.82.974 4.53-2.513 5.573-7.173.276-1.231.29-5.027.024-6.451l-.174-.93-.291 1.13zm-295.648.789c-.955 2.249-3.396 5.858-4.858 7.183-1.287 1.167-2.278 1.796-5.786 3.673-2.642 1.413-3.44 2.091-3.44 2.926 0 1.236 1.047 1.239 4.31.012 4.551-1.711 7.218-3.526 8.915-6.069 1.377-2.064 1.889-3.928 1.889-6.877 0-1.33-.082-2.418-.181-2.418-.1 0-.482.707-.849 1.57zm117.746-1.008c-4.628 1.312-9.525 5.976-12.404 11.815-1.347 2.732-1.541 3.792-.853 4.667.536.682 1.504.848 2.338.402.243-.131 1.327-1.57 2.407-3.199 3.086-4.653 4.128-5.734 10.92-11.337 1.325-1.094 2.227-2.004 2.187-2.21-.088-.465-3.124-.555-4.595-.138zm89.064.669c-.017.674-2.658 7.559-3.672 9.57-.318.63-1.351 1.959-2.297 2.952-1.244 1.307-1.72 1.976-1.72 2.418 0 2.478 2.642 2.148 5.484-.684 2.255-2.249 3.334-4.979 3.407-8.623.034-1.687-.44-4.451-.997-5.817-.165-.405-.192-.381-.205.184zm-187.694.623c-2.833.289-6.381 2.471-9.74 5.99-2.568 2.69-3.637 5.212-2.634 6.216.87.871 1.991.276 2.91-1.544.7-1.389 4.105-4.678 6.606-6.383 1.151-.785 2.731-1.988 3.51-2.675.781-.686 1.618-1.372 1.86-1.525.4-.25.375-.275-.255-.258-.383.011-1.399.091-2.257.179zm240.34.951c-.256.103-.73.194-1.053.203-.323.009-1.364.389-2.313.844-2.892 1.387-7.1 6.002-8.07 8.851-.58 1.702-.003 3.584 1.097 3.584.544 0 .866-.437 1.241-1.682.577-1.921 2.617-4.431 5.748-7.076 1.138-.961 2.28-2.199 2.925-3.169.582-.876 1.02-1.627.974-1.668-.046-.041-.294.01-.549.113zm-158.716 2.467c-.813.596-2.635 2.193-4.048 3.548-1.413 1.356-3.061 2.891-3.662 3.411-1.293 1.121-1.433 1.893-.48 2.643.337.265.782.482.989.48 1.856-.011 6.854-4.452 8.164-7.255.739-1.578 1.189-3.911.755-3.911-.131 0-.904.488-1.718 1.084zm202.464.182c-.102.376-.579 1.162-1.06 1.745-1.876 2.276-4.674 7.167-4.674 8.171 0 .657.603 1.762 1.057 1.936 1.406.54 2.587-.188 3.617-2.231 1.376-2.728 1.821-5.591 1.401-9.026-.142-1.165-.173-1.218-.341-.595zm-150.816 2.541a64.267 64.267 0 00-3.603 2.931c-.895.8-2.622 2.245-3.837 3.212-2.564 2.04-2.79 2.284-2.79 3.013 0 .82.87 1.126 1.935.681 2.526-1.056 7.255-4.91 8.776-7.153 1.219-1.796 2.173-4.168 1.675-4.162-.099.001-1.069.666-2.156 1.478zm23.726.419c-2.328.42-5.202 2.427-7.695 5.376-1.529 1.809-2.313 3.125-2.313 3.884 0 .695.824 1.405 1.63 1.405.717 0 2.38-1.505 9.393-8.508l2.346-2.341-1.163-.001a14.972 14.972 0 00-2.198.185zm-38.916 2.677c-.251.251-.179.484.194.627.237.091.349-.013.349-.324 0-.457-.249-.597-.543-.303zM34.29 138.552c0 .121.104.284.232.363.128.079.233-.02.233-.219s-.105-.363-.233-.363-.232.099-.232.219z" fill="#fff"/><path d="M100.208 191.493v-27.084h2.605l.418 2.653h.186c.279-.155.744-.403 1.395-.745a22.638 22.638 0 012.279-1.117 15.98 15.98 0 012.743-.977 10.145 10.145 0 012.837-.419c1.333 0 2.48.311 3.441.931a4.996 4.996 0 012.092 2.56 42.83 42.83 0 014.325-2.327 11.645 11.645 0 015.115-1.164c1.674 0 2.976.404 3.906 1.21.93.807 1.581 1.955 1.953 3.444.372 1.458.558 3.195.558 5.212v17.823h-3.86v-16.52c0-1.458-.031-2.761-.093-3.909-.062-1.148-.263-1.986-.604-2.513-.31-.496-.744-.791-1.302-.884-.527-.124-.961-.186-1.302-.186a9.78 9.78 0 00-2.604.372c-.868.217-1.69.496-2.465.838-.775.31-1.426.605-1.953.884-.496.279-.821.465-.976.558a23.2 23.2 0 01.139 1.582c.031.559.047 1.148.047 1.769v18.009h-3.86v-16.66c0-1.768-.046-3.133-.139-4.095-.062-.962-.264-1.706-.605-2.234-.31-.434-.697-.713-1.162-.837a5.23 5.23 0 00-1.349-.186c-1.054 0-2.108.17-3.162.512-1.054.31-1.999.667-2.836 1.07-.837.372-1.473.651-1.907.838v21.592h-3.86zm55.987.605c-2.573 0-4.604-.574-6.092-1.722-1.457-1.148-2.495-2.777-3.115-4.886-.62-2.11-.93-4.623-.93-7.539 0-2.916.31-5.429.93-7.539.62-2.109 1.658-3.738 3.115-4.886 1.488-1.148 3.519-1.722 6.092-1.722 2.573 0 4.588.574 6.045 1.722 1.488 1.148 2.542 2.777 3.162 4.886.62 2.11.93 4.623.93 7.539 0 2.916-.31 5.429-.93 7.539-.62 2.109-1.674 3.738-3.162 4.886-1.457 1.148-3.472 1.722-6.045 1.722zm0-3.351c1.178 0 2.154-.139 2.929-.418a3.582 3.582 0 001.907-1.536c.496-.745.837-1.831 1.023-3.258.217-1.427.325-3.288.325-5.584s-.108-4.157-.325-5.584c-.186-1.427-.527-2.513-1.023-3.258-.465-.775-1.101-1.287-1.907-1.535-.775-.279-1.751-.419-2.929-.419s-2.17.14-2.976.419c-.775.248-1.411.76-1.907 1.535-.465.745-.806 1.831-1.023 3.258-.217 1.427-.325 3.288-.325 5.584s.108 4.157.325 5.584c.217 1.427.558 2.513 1.023 3.258.496.744 1.132 1.256 1.907 1.536.806.279 1.798.418 2.976.418zm31.442 3.351c-2.573 0-4.604-.574-6.092-1.722-1.457-1.148-2.495-2.777-3.115-4.886-.62-2.11-.93-4.623-.93-7.539 0-2.916.31-5.429.93-7.539.62-2.109 1.658-3.738 3.115-4.886 1.488-1.148 3.519-1.722 6.092-1.722 2.573 0 4.588.574 6.045 1.722 1.488 1.148 2.542 2.777 3.162 4.886.62 2.11.93 4.623.93 7.539 0 2.916-.31 5.429-.93 7.539-.62 2.109-1.674 3.738-3.162 4.886-1.457 1.148-3.472 1.722-6.045 1.722zm0-3.351c1.178 0 2.154-.139 2.929-.418a3.582 3.582 0 001.907-1.536c.496-.745.837-1.831 1.023-3.258.217-1.427.325-3.288.325-5.584s-.108-4.157-.325-5.584c-.186-1.427-.527-2.513-1.023-3.258-.465-.775-1.101-1.287-1.907-1.535-.775-.279-1.751-.419-2.929-.419s-2.17.14-2.976.419c-.775.248-1.411.76-1.907 1.535-.465.745-.806 1.831-1.023 3.258-.217 1.427-.325 3.288-.325 5.584s.108 4.157.325 5.584c.217 1.427.558 2.513 1.023 3.258.496.744 1.132 1.256 1.907 1.536.806.279 1.798.418 2.976.418zm22.747 2.746v-27.084h2.604l.418 2.653h.233c.279-.155.744-.403 1.395-.745a20.757 20.757 0 012.325-1.117c.899-.403 1.86-.729 2.883-.977a11.62 11.62 0 013.069-.419c1.705 0 3.007.435 3.906 1.303.899.838 1.503 1.986 1.813 3.444.341 1.458.512 3.102.512 4.933v18.009h-3.86v-16.66c0-1.83-.031-3.226-.093-4.188-.062-.962-.263-1.691-.604-2.187a1.737 1.737 0 00-1.07-.791 5.755 5.755 0 00-1.488-.186c-1.116 0-2.263.186-3.441.558a22.3 22.3 0 00-3.022 1.117c-.868.372-1.442.636-1.721.791v21.546h-3.859zm39.645.651c-1.333 0-2.495-.217-3.487-.651-.992-.465-1.767-1.334-2.325-2.606-.527-1.303-.791-3.226-.791-5.77v-14.101h-3.069v-2.419l3.209-.652 1.023-6.329h2.697v6.376h5.394v3.117h-5.394v14.287c0 1.706.046 2.947.139 3.723.093.775.326 1.272.698 1.489.403.186 1.069.279 1.999.279.744 0 1.349-.016 1.814-.047l.697-.046v3.118l-.697.093c-.465.093-1.101.139-1.907.139z" fill="#fff"/></svg>